<svg width="800" height="620" xmlns="http://www.w3.org/2000/svg" version="1.1"><g transform="translate(0,10)"><g><path class="link" d="M5,75.32C400,75.32 400,40.31999999999994 795,40.31999999999994" style="stroke-width: 80.64; fill: none; stroke: rgb(105, 191, 191); stroke-opacity: 0.4;"><title>21</title></path><path class="link" d="M5,344.52C400,344.52 400,129.03999999999994 795,129.03999999999994" style="stroke-width: 76.8; fill: none; stroke: rgb(191, 105, 105); stroke-opacity: 0.4;"><title>20</title></path><path class="link" d="M5,132.92000000000002C400,132.92000000000002 400,194.71999999999994 795,194.71999999999994" style="stroke-width: 34.56; fill: none; stroke: rgb(105, 191, 191); stroke-opacity: 0.4;"><title>9</title></path><path class="link" d="M5,165.56C400,165.56 400,260.3999999999999 795,260.3999999999999" style="stroke-width: 30.72; fill: none; stroke: rgb(105, 191, 191); stroke-opacity: 0.4;"><title>8</title></path><path class="link" d="M5,194.36C400,194.36 400,318.3999999999999 795,318.3999999999999" style="stroke-width: 26.88; fill: none; stroke: rgb(105, 191, 191); stroke-opacity: 0.4;"><title>7</title></path><path class="link" d="M5,436.67999999999995C400,436.67999999999995 400,417.1199999999999 795,417.1199999999999" style="stroke-width: 23.04; fill: none; stroke: rgb(191, 105, 105); stroke-opacity: 0.4;"><title>6</title></path><path class="link" d="M5,510.44C400,510.44 400,223.51999999999995 795,223.51999999999995" style="stroke-width: 23.04; fill: none; stroke: rgb(191, 105, 191); stroke-opacity: 0.4;"><title>6</title></path><path class="link" d="M5,413.64C400,413.64 400,384.07999999999987 795,384.07999999999987" style="stroke-width: 23.04; fill: none; stroke: rgb(191, 105, 105); stroke-opacity: 0.4;"><title>6</title></path><path class="link" d="M5,477.4C400,477.4 400,453.9999999999999 795,453.9999999999999" style="stroke-width: 23.04; fill: none; stroke: rgb(105, 105, 191); stroke-opacity: 0.4;"><title>6</title></path><path class="link" d="M5,286.52C400,286.52 400,572.72 795,572.72" style="stroke-width: 19.2; fill: none; stroke: rgb(105, 191, 191); stroke-opacity: 0.4;"><title>5</title></path><path class="link" d="M5,248.12C400,248.12 400,514.3199999999999 795,514.3199999999999" style="stroke-width: 19.2; fill: none; stroke: rgb(105, 191, 191); stroke-opacity: 0.4;"><title>5</title></path><path class="link" d="M5,541.5600000000001C400,541.5600000000001 400,341.43999999999994 795,341.43999999999994" style="stroke-width: 19.2; fill: none; stroke: rgb(191, 191, 105); stroke-opacity: 0.4;"><title>5</title></path><path class="link" d="M5,392.52000000000004C400,392.52000000000004 400,285.35999999999996 795,285.35999999999996" style="stroke-width: 19.2; fill: none; stroke: rgb(191, 105, 105); stroke-opacity: 0.4;"><title>5</title></path><path class="link" d="M5,228.92000000000002C400,228.92000000000002 400,485.11999999999995 795,485.11999999999995" style="stroke-width: 19.2; fill: none; stroke: rgb(105, 191, 191); stroke-opacity: 0.4;"><title>5</title></path><path class="link" d="M5,267.32000000000005C400,267.32000000000005 400,543.52 795,543.52" style="stroke-width: 19.2; fill: none; stroke: rgb(105, 191, 191); stroke-opacity: 0.4;"><title>5</title></path><path class="link" d="M5,213.56C400,213.56 400,366.7999999999999 795,366.7999999999999" style="stroke-width: 11.52; fill: none; stroke: rgb(105, 191, 191); stroke-opacity: 0.4;"><title>3</title></path><path class="link" d="M5,452.03999999999996C400,452.03999999999996 400,596.1600000000001 795,596.1600000000001" style="stroke-width: 7.68; fill: none; stroke: rgb(191, 105, 105); stroke-opacity: 0.4;"><title>2</title></path><path class="link" d="M5,563.08C400,563.08 400,430.55999999999995 795,430.55999999999995" style="stroke-width: 3.84; fill: none; stroke: rgb(105, 191, 105); stroke-opacity: 0.4;"><title>1</title></path></g><g><g class="node" transform="translate(0,531.96)"><rect height="19.2" width="5"><title>18 bis 24 Jahre
5</title></rect><text x="11" y="9.6" dy=".35em" text-anchor="start" style="font-size: 11px; font-family: Arial, Helvetica; pointer-events: none;">18 bis 24 Jahre</text></g><g class="node" transform="translate(0,306.12)"><rect height="149.76" width="5"><title>25 bis 34 Jahre
39</title></rect><text x="11" y="74.88" dy=".35em" text-anchor="start" style="font-size: 11px; font-family: Arial, Helvetica; pointer-events: none;">25 bis 34 Jahre</text></g><g class="node" transform="translate(0,35)"><rect height="261.12" width="5"><title>35 bis 44 Jahre
68</title></rect><text x="11" y="130.56" dy=".35em" text-anchor="start" style="font-size: 11px; font-family: Arial, Helvetica; pointer-events: none;">35 bis 44 Jahre</text></g><g class="node" transform="translate(0,465.88)"><rect height="23.04" width="5"><title>45 bis 54 Jahre
6</title></rect><text x="11" y="11.52" dy=".35em" text-anchor="start" style="font-size: 11px; font-family: Arial, Helvetica; pointer-events: none;">45 bis 54 Jahre</text></g><g class="node" transform="translate(0,498.92)"><rect height="23.04" width="5"><title>55 bis 64 Jahre
6</title></rect><text x="11" y="11.52" dy=".35em" text-anchor="start" style="font-size: 11px; font-family: Arial, Helvetica; pointer-events: none;">55 bis 64 Jahre</text></g><g class="node" transform="translate(0,561.1600000000001)"><rect height="3.84" width="5"><title>Keine Angabe
1</title></rect><text x="11" y="1.92" dy=".35em" text-anchor="start" style="font-size: 11px; font-family: Arial, Helvetica; pointer-events: none;">Keine Angabe</text></g><g class="node" transform="translate(795,405.5999999999999)"><rect height="26.88" width="5" style="fill: rgb(102, 102, 102);"><title>1
7</title></rect><text x="-6" y="13.44" dy=".35em" text-anchor="end" style="font-size: 11px; font-family: Arial, Helvetica; pointer-events: none;">1</text></g><g class="node" transform="translate(795,245.03999999999994)"><rect height="49.92" width="5" style="fill: rgb(102, 102, 102);"><title>12
13</title></rect><text x="-6" y="24.96" dy=".35em" text-anchor="end" style="font-size: 11px; font-family: Arial, Helvetica; pointer-events: none;">12</text></g><g class="node" transform="translate(795,504.7199999999999)"><rect height="19.2" width="5" style="fill: rgb(102, 102, 102);"><title>13
5</title></rect><text x="-6" y="9.6" dy=".35em" text-anchor="end" style="font-size: 11px; font-family: Arial, Helvetica; pointer-events: none;">13</text></g><g class="node" transform="translate(795,177.43999999999994)"><rect height="57.599999999999994" width="5" style="fill: rgb(102, 102, 102);"><title>15
15</title></rect><text x="-6" y="28.799999999999997" dy=".35em" text-anchor="end" style="font-size: 11px; font-family: Arial, Helvetica; pointer-events: none;">15</text></g><g class="node" transform="translate(795,442.4799999999999)"><rect height="23.04" width="5" style="fill: rgb(102, 102, 102);"><title>18
6</title></rect><text x="-6" y="11.52" dy=".35em" text-anchor="end" style="font-size: 11px; font-family: Arial, Helvetica; pointer-events: none;">18</text></g><g class="node" transform="translate(795,361.0399999999999)"><rect height="34.56" width="5" style="fill: rgb(102, 102, 102);"><title>2
9</title></rect><text x="-6" y="17.28" dy=".35em" text-anchor="end" style="font-size: 11px; font-family: Arial, Helvetica; pointer-events: none;">2</text></g><g class="node" transform="translate(795,-5.684341886080802e-14)"><rect height="80.64" width="5" style="fill: rgb(102, 102, 102);"><title>20
21</title></rect><text x="-6" y="40.32" dy=".35em" text-anchor="end" style="font-size: 11px; font-family: Arial, Helvetica; pointer-events: none;">20</text></g><g class="node" transform="translate(795,475.5199999999999)"><rect height="19.2" width="5" style="fill: rgb(102, 102, 102);"><title>28
5</title></rect><text x="-6" y="9.6" dy=".35em" text-anchor="end" style="font-size: 11px; font-family: Arial, Helvetica; pointer-events: none;">28</text></g><g class="node" transform="translate(795,90.63999999999994)"><rect height="76.8" width="5" style="fill: rgb(102, 102, 102);"><title>3
20</title></rect><text x="-6" y="38.4" dy=".35em" text-anchor="end" style="font-size: 11px; font-family: Arial, Helvetica; pointer-events: none;">3</text></g><g class="node" transform="translate(795,592.32)"><rect height="7.68" width="5" style="fill: rgb(102, 102, 102);"><title>4
2</title></rect><text x="-6" y="3.84" dy=".35em" text-anchor="end" style="font-size: 11px; font-family: Arial, Helvetica; pointer-events: none;">4</text></g><g class="node" transform="translate(795,304.9599999999999)"><rect height="46.08" width="5" style="fill: rgb(102, 102, 102);"><title>5
12</title></rect><text x="-6" y="23.04" dy=".35em" text-anchor="end" style="font-size: 11px; font-family: Arial, Helvetica; pointer-events: none;">5</text></g><g class="node" transform="translate(795,533.92)"><rect height="19.2" width="5" style="fill: rgb(102, 102, 102);"><title>6
5</title></rect><text x="-6" y="9.6" dy=".35em" text-anchor="end" style="font-size: 11px; font-family: Arial, Helvetica; pointer-events: none;">6</text></g><g class="node" transform="translate(795,563.12)"><rect height="19.2" width="5" style="fill: rgb(102, 102, 102);"><title>7
5</title></rect><text x="-6" y="9.6" dy=".35em" text-anchor="end" style="font-size: 11px; font-family: Arial, Helvetica; pointer-events: none;">7</text></g></g></g></svg>