<svg width="700" height="620" xmlns="http://www.w3.org/2000/svg" version="1.1"><g transform="translate(0,10)"><g><path class="link" d="M5,107.76000000000002C350,107.76000000000002 350,17.759999999999998 695,17.759999999999998" style="stroke-width: 35.52; fill: none; stroke: rgb(105, 191, 191); stroke-opacity: 0.4;"><title>12</title></path><path class="link" d="M5,165.48000000000002C350,165.48000000000002 350,151.72 695,151.72" style="stroke-width: 26.64; fill: none; stroke: rgb(105, 191, 191); stroke-opacity: 0.4;"><title>9</title></path><path class="link" d="M5,138.84000000000003C350,138.84000000000003 350,88.44 695,88.44" style="stroke-width: 26.64; fill: none; stroke: rgb(105, 191, 191); stroke-opacity: 0.4;"><title>9</title></path><path class="link" d="M5,313.12C350,313.12 350,47.36 695,47.36" style="stroke-width: 23.68; fill: none; stroke: rgb(191, 105, 105); stroke-opacity: 0.4;"><title>8</title></path><path class="link" d="M5,335.32000000000005C350,335.32000000000005 350,112.12 695,112.12" style="stroke-width: 20.72; fill: none; stroke: rgb(191, 105, 105); stroke-opacity: 0.4;"><title>7</title></path><path class="link" d="M5,205.44000000000003C350,205.44000000000003 350,253.11999999999998 695,253.11999999999998" style="stroke-width: 17.76; fill: none; stroke: rgb(105, 191, 191); stroke-opacity: 0.4;"><title>6</title></path><path class="link" d="M5,187.68C350,187.68 350,204.64 695,204.64" style="stroke-width: 17.76; fill: none; stroke: rgb(105, 191, 191); stroke-opacity: 0.4;"><title>6</title></path><path class="link" d="M5,223.20000000000002C350,223.20000000000002 350,295.67999999999995 695,295.67999999999995" style="stroke-width: 17.76; fill: none; stroke: rgb(105, 191, 191); stroke-opacity: 0.4;"><title>6</title></path><path class="link" d="M5,353.08C350,353.08 350,172.44000000000003 695,172.44000000000003" style="stroke-width: 14.8; fill: none; stroke: rgb(191, 105, 105); stroke-opacity: 0.4;"><title>5</title></path><path class="link" d="M5,367.88C350,367.88 350,220.92 695,220.92" style="stroke-width: 14.8; fill: none; stroke: rgb(191, 105, 105); stroke-opacity: 0.4;"><title>5</title></path><path class="link" d="M5,239.48000000000002C350,239.48000000000002 350,333.79999999999995 695,333.79999999999995" style="stroke-width: 14.8; fill: none; stroke: rgb(105, 191, 191); stroke-opacity: 0.4;"><title>5</title></path><path class="link" d="M5,394.52000000000004C350,394.52000000000004 350,345.64 695,345.64" style="stroke-width: 8.88; fill: none; stroke: rgb(191, 105, 105); stroke-opacity: 0.4;"><title>3</title></path><path class="link" d="M5,379.72C350,379.72 350,266.44 695,266.44" style="stroke-width: 8.88; fill: none; stroke: rgb(191, 105, 105); stroke-opacity: 0.4;"><title>3</title></path><path class="link" d="M5,387.12C350,387.12 350,307.5199999999999 695,307.5199999999999" style="stroke-width: 5.92; fill: none; stroke: rgb(191, 105, 105); stroke-opacity: 0.4;"><title>2</title></path><path class="link" d="M5,267.59999999999997C350,267.59999999999997 350,438.55999999999995 695,438.55999999999995" style="stroke-width: 5.92; fill: none; stroke: rgb(105, 191, 191); stroke-opacity: 0.4;"><title>2</title></path><path class="link" d="M5,249.84000000000003C350,249.84000000000003 350,365.99999999999994 695,365.99999999999994" style="stroke-width: 5.92; fill: none; stroke: rgb(105, 191, 191); stroke-opacity: 0.4;"><title>2</title></path><path class="link" d="M5,273.52C350,273.52 350,454.47999999999996 695,454.47999999999996" style="stroke-width: 5.92; fill: none; stroke: rgb(105, 191, 191); stroke-opacity: 0.4;"><title>2</title></path><path class="link" d="M5,258.72C350,258.72 350,403.75999999999993 695,403.75999999999993" style="stroke-width: 5.92; fill: none; stroke: rgb(105, 191, 191); stroke-opacity: 0.4;"><title>2</title></path><path class="link" d="M5,508.52000000000004C350,508.52000000000004 350,184.28 695,184.28" style="stroke-width: 2.96; fill: none; stroke: rgb(105, 191, 105); stroke-opacity: 0.4;"><title>1</title></path><path class="link" d="M5,415.24C350,415.24 350,585.5600000000002 695,585.5600000000002" style="stroke-width: 2.96; fill: none; stroke: rgb(191, 105, 105); stroke-opacity: 0.4;"><title>1</title></path><path class="link" d="M5,289.80000000000007C350,289.80000000000007 350,598.5200000000002 695,598.5200000000002" style="stroke-width: 2.96; fill: none; stroke: rgb(105, 191, 191); stroke-opacity: 0.4;"><title>1</title></path><path class="link" d="M5,470.76000000000005C350,470.76000000000005 350,546.6800000000001 695,546.6800000000001" style="stroke-width: 2.96; fill: none; stroke: rgb(191, 105, 191); stroke-opacity: 0.4;"><title>1</title></path><path class="link" d="M5,400.44000000000005C350,400.44000000000005 350,370.44 695,370.44" style="stroke-width: 2.96; fill: none; stroke: rgb(191, 105, 105); stroke-opacity: 0.4;"><title>1</title></path><path class="link" d="M5,409.32000000000005C350,409.32000000000005 350,481.88 695,481.88" style="stroke-width: 2.96; fill: none; stroke: rgb(191, 105, 105); stroke-opacity: 0.4;"><title>1</title></path><path class="link" d="M5,403.40000000000003C350,403.40000000000003 350,408.2 695,408.2" style="stroke-width: 2.96; fill: none; stroke: rgb(191, 105, 105); stroke-opacity: 0.4;"><title>1</title></path><path class="link" d="M5,489.64000000000004C350,489.64000000000004 350,232.76 695,232.76" style="stroke-width: 2.96; fill: none; stroke: rgb(191, 191, 105); stroke-opacity: 0.4;"><title>1</title></path><path class="link" d="M5,412.28000000000003C350,412.28000000000003 350,507.79999999999995 695,507.79999999999995" style="stroke-width: 2.96; fill: none; stroke: rgb(191, 105, 105); stroke-opacity: 0.4;"><title>1</title></path><path class="link" d="M5,492.6C350,492.6 350,275.32 695,275.32" style="stroke-width: 2.96; fill: none; stroke: rgb(191, 191, 105); stroke-opacity: 0.4;"><title>1</title></path><path class="link" d="M5,406.36C350,406.36 350,424.11999999999995 695,424.11999999999995" style="stroke-width: 2.96; fill: none; stroke: rgb(191, 105, 105); stroke-opacity: 0.4;"><title>1</title></path><path class="link" d="M5,495.56C350,495.56 350,314.91999999999996 695,314.91999999999996" style="stroke-width: 2.96; fill: none; stroke: rgb(191, 191, 105); stroke-opacity: 0.4;"><title>1</title></path><path class="link" d="M5,486.68C350,486.68 350,126.92 695,126.92" style="stroke-width: 2.96; fill: none; stroke: rgb(191, 191, 105); stroke-opacity: 0.4;"><title>1</title></path><path class="link" d="M5,280.92C350,280.92 350,533.72 695,533.72" style="stroke-width: 2.96; fill: none; stroke: rgb(105, 191, 191); stroke-opacity: 0.4;"><title>1</title></path><path class="link" d="M5,483.72C350,483.72 350,63.63999999999999 695,63.63999999999999" style="stroke-width: 2.96; fill: none; stroke: rgb(191, 191, 105); stroke-opacity: 0.4;"><title>1</title></path><path class="link" d="M5,263.16C350,263.16 350,421.15999999999997 695,421.15999999999997" style="stroke-width: 2.96; fill: none; stroke: rgb(105, 191, 191); stroke-opacity: 0.4;"><title>1</title></path><path class="link" d="M5,286.84000000000003C350,286.84000000000003 350,572.6000000000001 695,572.6000000000001" style="stroke-width: 2.96; fill: none; stroke: rgb(105, 191, 191); stroke-opacity: 0.4;"><title>1</title></path><path class="link" d="M5,254.28C350,254.28 350,383.4 695,383.4" style="stroke-width: 2.96; fill: none; stroke: rgb(105, 191, 191); stroke-opacity: 0.4;"><title>1</title></path><path class="link" d="M5,283.88C350,283.88 350,559.6400000000001 695,559.6400000000001" style="stroke-width: 2.96; fill: none; stroke: rgb(105, 191, 191); stroke-opacity: 0.4;"><title>1</title></path><path class="link" d="M5,431.16C350,431.16 350,123.96000000000001 695,123.96000000000001" style="stroke-width: 2.96; fill: none; stroke: rgb(105, 105, 191); stroke-opacity: 0.4;"><title>1</title></path><path class="link" d="M5,437.08000000000004C350,437.08000000000004 350,272.36 695,272.36" style="stroke-width: 2.96; fill: none; stroke: rgb(105, 105, 191); stroke-opacity: 0.4;"><title>1</title></path><path class="link" d="M5,434.12000000000006C350,434.12000000000006 350,229.79999999999998 695,229.79999999999998" style="stroke-width: 2.96; fill: none; stroke: rgb(105, 105, 191); stroke-opacity: 0.4;"><title>1</title></path><path class="link" d="M5,443.00000000000006C350,443.00000000000006 350,386.35999999999996 695,386.35999999999996" style="stroke-width: 2.96; fill: none; stroke: rgb(105, 105, 191); stroke-opacity: 0.4;"><title>1</title></path><path class="link" d="M5,428.20000000000005C350,428.20000000000005 350,60.67999999999999 695,60.67999999999999" style="stroke-width: 2.96; fill: none; stroke: rgb(105, 105, 191); stroke-opacity: 0.4;"><title>1</title></path><path class="link" d="M5,440.04C350,440.04 350,351.56 695,351.56" style="stroke-width: 2.96; fill: none; stroke: rgb(105, 105, 191); stroke-opacity: 0.4;"><title>1</title></path><path class="link" d="M5,461.88000000000005C350,461.88000000000005 350,389.32 695,389.32" style="stroke-width: 2.96; fill: none; stroke: rgb(191, 105, 191); stroke-opacity: 0.4;"><title>1</title></path><path class="link" d="M5,455.96000000000004C350,455.96000000000004 350,181.32 695,181.32" style="stroke-width: 2.96; fill: none; stroke: rgb(191, 105, 191); stroke-opacity: 0.4;"><title>1</title></path><path class="link" d="M5,458.92C350,458.92 350,311.96 695,311.96" style="stroke-width: 2.96; fill: none; stroke: rgb(191, 105, 191); stroke-opacity: 0.4;"><title>1</title></path><path class="link" d="M5,467.8C350,467.8 350,520.76 695,520.76" style="stroke-width: 2.96; fill: none; stroke: rgb(191, 105, 191); stroke-opacity: 0.4;"><title>1</title></path><path class="link" d="M5,464.84000000000003C350,464.84000000000003 350,468.92 695,468.92" style="stroke-width: 2.96; fill: none; stroke: rgb(191, 105, 191); stroke-opacity: 0.4;"><title>1</title></path><path class="link" d="M5,277.96000000000004C350,277.96000000000004 350,494.84 695,494.84" style="stroke-width: 2.96; fill: none; stroke: rgb(105, 191, 191); stroke-opacity: 0.4;"><title>1</title></path></g><g><g class="node" transform="translate(0,482.24)"><rect height="14.8" width="5"><title>18 bis 24 Jahre
5</title></rect><text x="11" y="7.4" dy=".35em" text-anchor="start" style="font-size: 11px; font-family: Arial, Helvetica; pointer-events: none;">18 bis 24 Jahre</text></g><g class="node" transform="translate(0,301.28000000000003)"><rect height="115.44" width="5"><title>25 bis 34 Jahre
39</title></rect><text x="11" y="57.72" dy=".35em" text-anchor="start" style="font-size: 11px; font-family: Arial, Helvetica; pointer-events: none;">25 bis 34 Jahre</text></g><g class="node" transform="translate(0,90.00000000000003)"><rect height="201.28" width="5"><title>35 bis 44 Jahre
68</title></rect><text x="11" y="100.64" dy=".35em" text-anchor="start" style="font-size: 11px; font-family: Arial, Helvetica; pointer-events: none;">35 bis 44 Jahre</text></g><g class="node" transform="translate(0,426.72)"><rect height="17.759999999999998" width="5"><title>45 bis 54 Jahre
6</title></rect><text x="11" y="8.879999999999999" dy=".35em" text-anchor="start" style="font-size: 11px; font-family: Arial, Helvetica; pointer-events: none;">45 bis 54 Jahre</text></g><g class="node" transform="translate(0,454.48)"><rect height="17.759999999999998" width="5"><title>55 bis 64 Jahre
6</title></rect><text x="11" y="8.879999999999999" dy=".35em" text-anchor="start" style="font-size: 11px; font-family: Arial, Helvetica; pointer-events: none;">55 bis 64 Jahre</text></g><g class="node" transform="translate(0,507.04)"><rect height="2.96" width="5"><title>Keine Angabe
1</title></rect><text x="11" y="1.48" dy=".35em" text-anchor="start" style="font-size: 11px; font-family: Arial, Helvetica; pointer-events: none;">Keine Angabe</text></g><g class="node" transform="translate(695,597.0400000000002)"><rect height="2.96" width="5" style="fill: rgb(102, 102, 102);"><title>Bash
1</title></rect><text x="-6" y="1.48" dy=".35em" text-anchor="end" style="font-size: 11px; font-family: Arial, Helvetica; pointer-events: none;">Bash</text></g><g class="node" transform="translate(695,493.35999999999996)"><rect height="2.96" width="5" style="fill: rgb(102, 102, 102);"><title>C#
1</title></rect><text x="-6" y="1.48" dy=".35em" text-anchor="end" style="font-size: 11px; font-family: Arial, Helvetica; pointer-events: none;">C#</text></g><g class="node" transform="translate(695,363.03999999999996)"><rect height="8.879999999999999" width="5" style="fill: rgb(102, 102, 102);"><title>C++
3</title></rect><text x="-6" y="4.4399999999999995" dy=".35em" text-anchor="end" style="font-size: 11px; font-family: Arial, Helvetica; pointer-events: none;">C++</text></g><g class="node" transform="translate(695,571.1200000000001)"><rect height="2.96" width="5" style="fill: rgb(102, 102, 102);"><title>Go
1</title></rect><text x="-6" y="1.48" dy=".35em" text-anchor="end" style="font-size: 11px; font-family: Arial, Helvetica; pointer-events: none;">Go</text></g><g class="node" transform="translate(695,558.1600000000001)"><rect height="2.96" width="5" style="fill: rgb(102, 102, 102);"><title>Groovy
1</title></rect><text x="-6" y="1.48" dy=".35em" text-anchor="end" style="font-size: 11px; font-family: Arial, Helvetica; pointer-events: none;">Groovy</text></g><g class="node" transform="translate(695,326.4)"><rect height="26.64" width="5" style="fill: rgb(102, 102, 102);"><title>Java
9</title></rect><text x="-6" y="13.32" dy=".35em" text-anchor="end" style="font-size: 11px; font-family: Arial, Helvetica; pointer-events: none;">Java</text></g><g class="node" transform="translate(695,0)"><rect height="65.12" width="5" style="fill: rgb(102, 102, 102);"><title>JavaScript
22</title></rect><text x="-6" y="32.56" dy=".35em" text-anchor="end" style="font-size: 11px; font-family: Arial, Helvetica; pointer-events: none;">JavaScript</text></g><g class="node" transform="translate(695,506.31999999999994)"><rect height="2.96" width="5" style="fill: rgb(102, 102, 102);"><title>Lua
1</title></rect><text x="-6" y="1.48" dy=".35em" text-anchor="end" style="font-size: 11px; font-family: Arial, Helvetica; pointer-events: none;">Lua</text></g><g class="node" transform="translate(695,381.91999999999996)"><rect height="8.879999999999999" width="5" style="fill: rgb(102, 102, 102);"><title>Perl
3</title></rect><text x="-6" y="4.4399999999999995" dy=".35em" text-anchor="end" style="font-size: 11px; font-family: Arial, Helvetica; pointer-events: none;">Perl</text></g><g class="node" transform="translate(695,195.76)"><rect height="38.48" width="5" style="fill: rgb(102, 102, 102);"><title>PHP
13</title></rect><text x="-6" y="19.24" dy=".35em" text-anchor="end" style="font-size: 11px; font-family: Arial, Helvetica; pointer-events: none;">PHP</text></g><g class="node" transform="translate(695,138.4)"><rect height="47.36" width="5" style="fill: rgb(102, 102, 102);"><title>Python
16</title></rect><text x="-6" y="23.68" dy=".35em" text-anchor="end" style="font-size: 11px; font-family: Arial, Helvetica; pointer-events: none;">Python</text></g><g class="node" transform="translate(695,400.79999999999995)"><rect height="8.879999999999999" width="5" style="fill: rgb(102, 102, 102);"><title>R
3</title></rect><text x="-6" y="4.4399999999999995" dy=".35em" text-anchor="end" style="font-size: 11px; font-family: Arial, Helvetica; pointer-events: none;">R</text></g><g class="node" transform="translate(695,435.59999999999997)"><rect height="5.92" width="5" style="fill: rgb(102, 102, 102);"><title>Ruby
2</title></rect><text x="-6" y="2.96" dy=".35em" text-anchor="end" style="font-size: 11px; font-family: Arial, Helvetica; pointer-events: none;">Ruby</text></g><g class="node" transform="translate(695,480.4)"><rect height="2.96" width="5" style="fill: rgb(102, 102, 102);"><title>Rust
1</title></rect><text x="-6" y="1.48" dy=".35em" text-anchor="end" style="font-size: 11px; font-family: Arial, Helvetica; pointer-events: none;">Rust</text></g><g class="node" transform="translate(695,532.24)"><rect height="2.96" width="5" style="fill: rgb(102, 102, 102);"><title>Scala
1</title></rect><text x="-6" y="1.48" dy=".35em" text-anchor="end" style="font-size: 11px; font-family: Arial, Helvetica; pointer-events: none;">Scala</text></g><g class="node" transform="translate(695,286.79999999999995)"><rect height="29.6" width="5" style="fill: rgb(102, 102, 102);"><title>SQL
10</title></rect><text x="-6" y="14.8" dy=".35em" text-anchor="end" style="font-size: 11px; font-family: Arial, Helvetica; pointer-events: none;">SQL</text></g><g class="node" transform="translate(695,419.67999999999995)"><rect height="5.92" width="5" style="fill: rgb(102, 102, 102);"><title>TypeScript
2</title></rect><text x="-6" y="2.96" dy=".35em" text-anchor="end" style="font-size: 11px; font-family: Arial, Helvetica; pointer-events: none;">TypeScript</text></g><g class="node" transform="translate(695,519.28)"><rect height="2.96" width="5" style="fill: rgb(102, 102, 102);"><title>VB.NET
1</title></rect><text x="-6" y="1.48" dy=".35em" text-anchor="end" style="font-size: 11px; font-family: Arial, Helvetica; pointer-events: none;">VB.NET</text></g><g class="node" transform="translate(695,467.44)"><rect height="2.96" width="5" style="fill: rgb(102, 102, 102);"><title>VBA
1</title></rect><text x="-6" y="1.48" dy=".35em" text-anchor="end" style="font-size: 11px; font-family: Arial, Helvetica; pointer-events: none;">VBA</text></g><g class="node" transform="translate(695,545.2)"><rect height="2.96" width="5" style="fill: rgb(102, 102, 102);"><title>Visual Basic
1</title></rect><text x="-6" y="1.48" dy=".35em" text-anchor="end" style="font-size: 11px; font-family: Arial, Helvetica; pointer-events: none;">Visual Basic</text></g><g class="node" transform="translate(695,451.52)"><rect height="5.92" width="5" style="fill: rgb(102, 102, 102);"><title>Xproc
2</title></rect><text x="-6" y="2.96" dy=".35em" text-anchor="end" style="font-size: 11px; font-family: Arial, Helvetica; pointer-events: none;">Xproc</text></g><g class="node" transform="translate(695,244.23999999999998)"><rect height="32.56" width="5" style="fill: rgb(102, 102, 102);"><title>XQuery
11</title></rect><text x="-6" y="16.28" dy=".35em" text-anchor="end" style="font-size: 11px; font-family: Arial, Helvetica; pointer-events: none;">XQuery</text></g><g class="node" transform="translate(695,584.0800000000002)"><rect height="2.96" width="5" style="fill: rgb(102, 102, 102);"><title>XQuery 
1</title></rect><text x="-6" y="1.48" dy=".35em" text-anchor="end" style="font-size: 11px; font-family: Arial, Helvetica; pointer-events: none;">XQuery </text></g><g class="node" transform="translate(695,75.12)"><rect height="53.28" width="5" style="fill: rgb(102, 102, 102);"><title>XSLT
18</title></rect><text x="-6" y="26.64" dy=".35em" text-anchor="end" style="font-size: 11px; font-family: Arial, Helvetica; pointer-events: none;">XSLT</text></g></g></g></svg>