<svg width="847" height="720" xmlns="http://www.w3.org/2000/svg" version="1.1"><g transform="translate(0,10)"><g><path class="link" d="M5,227.04225352112675C213,227.04225352112675 213,202.04225352112675 421,202.04225352112675" style="stroke-width: 134.085; fill: none; stroke: rgb(174, 191, 105); stroke-opacity: 0.4;"><title>56</title></path><path class="link" d="M5,319.22535211267603C213,319.22535211267603 213,340.14084507042253 421,340.14084507042253" style="stroke-width: 50.2817; fill: none; stroke: rgb(174, 191, 105); stroke-opacity: 0.4;"><title>21</title></path><path class="link" d="M426,151.7605633802817C634,151.7605633802817 634,16.76056338028163 842,16.76056338028163" style="stroke-width: 33.5211; fill: none; stroke: rgb(105, 191, 174); stroke-opacity: 0.4;"><title>14</title></path><path class="link" d="M5,413.0281690140845C213,413.0281690140845 213,284.6478873239436 421,284.6478873239436" style="stroke-width: 31.1268; fill: none; stroke: rgb(139, 191, 105); stroke-opacity: 0.4;"><title>13</title></path><path class="link" d="M5,358.7323943661971C213,358.7323943661971 213,406.4084507042254 421,406.4084507042254" style="stroke-width: 28.7324; fill: none; stroke: rgb(174, 191, 105); stroke-opacity: 0.4;"><title>12</title></path><path class="link" d="M5,488.87323943661977C213,488.87323943661977 213,432.7464788732395 421,432.7464788732395" style="stroke-width: 23.9437; fill: none; stroke: rgb(191, 139, 105); stroke-opacity: 0.4;"><title>10</title></path><path class="link" d="M426,178.09859154929578C634,178.09859154929578 634,96.1971830985915 842,96.1971830985915" style="stroke-width: 19.1549; fill: none; stroke: rgb(105, 191, 174); stroke-opacity: 0.4;"><title>8</title></path><path class="link" d="M426,324.5774647887324C634,324.5774647887324 634,43.09859154929571 842,43.09859154929571" style="stroke-width: 19.1549; fill: none; stroke: rgb(105, 174, 191); stroke-opacity: 0.4;"><title>8</title></path><path class="link" d="M426,205.63380281690138C634,205.63380281690138 634,174.8591549295774 842,174.8591549295774" style="stroke-width: 16.7606; fill: none; stroke: rgb(105, 191, 174); stroke-opacity: 0.4;"><title>7</title></path><path class="link" d="M5,436.9718309859155C213,436.9718309859155 213,373.6619718309859 421,373.6619718309859" style="stroke-width: 16.7606; fill: none; stroke: rgb(139, 191, 105); stroke-opacity: 0.4;"><title>7</title></path><path class="link" d="M426,399.2253521126761C634,399.2253521126761 634,59.8591549295774 842,59.8591549295774" style="stroke-width: 14.3662; fill: none; stroke: rgb(105, 191, 105); stroke-opacity: 0.4;"><title>6</title></path><path class="link" d="M426,224.7887323943662C634,224.7887323943662 634,237.95774647887316 842,237.95774647887316" style="stroke-width: 11.9718; fill: none; stroke: rgb(105, 191, 174); stroke-opacity: 0.4;"><title>5</title></path><path class="link" d="M5,451.3380281690141C213,451.3380281690141 213,470.2816901408451 421,470.2816901408451" style="stroke-width: 11.9718; fill: none; stroke: rgb(139, 191, 105); stroke-opacity: 0.4;"><title>5</title></path><path class="link" d="M426,192.46478873239437C634,192.46478873239437 634,134.92957746478868 842,134.92957746478868" style="stroke-width: 9.57746; fill: none; stroke: rgb(105, 191, 174); stroke-opacity: 0.4;"><title>4</title></path><path class="link" d="M5,520.4225352112676C213,520.4225352112676 213,449.50704225352115 421,449.50704225352115" style="stroke-width: 9.57746; fill: none; stroke: rgb(191, 105, 105); stroke-opacity: 0.4;"><title>4</title></path><path class="link" d="M426,235.56338028169012C634,235.56338028169012 634,268.3098591549295 842,268.3098591549295" style="stroke-width: 9.57746; fill: none; stroke: rgb(105, 191, 174); stroke-opacity: 0.4;"><title>4</title></path><path class="link" d="M426,350.9154929577465C634,350.9154929577465 634,209.99999999999994 842,209.99999999999994" style="stroke-width: 9.57746; fill: none; stroke: rgb(105, 174, 191); stroke-opacity: 0.4;"><title>4</title></path><path class="link" d="M426,417.1830985915493C634,417.1830985915493 634,143.3098591549295 842,143.3098591549295" style="stroke-width: 7.1831; fill: none; stroke: rgb(105, 191, 105); stroke-opacity: 0.4;"><title>3</title></path><path class="link" d="M426,410.00000000000006C634,410.00000000000006 634,116.54929577464782 842,116.54929577464782" style="stroke-width: 7.1831; fill: none; stroke: rgb(105, 191, 105); stroke-opacity: 0.4;"><title>3</title></path><path class="link" d="M5,463.3098591549296C213,463.3098591549296 213,509.43661971830994 421,509.43661971830994" style="stroke-width: 7.1831; fill: none; stroke: rgb(139, 191, 105); stroke-opacity: 0.4;"><title>3</title></path><path class="link" d="M426,337.7464788732394C634,337.7464788732394 634,109.36619718309854 842,109.36619718309854" style="stroke-width: 7.1831; fill: none; stroke: rgb(105, 174, 191); stroke-opacity: 0.4;"><title>3</title></path><path class="link" d="M426,257.112676056338C634,257.112676056338 634,368.5915492957746 842,368.5915492957746" style="stroke-width: 4.78873; fill: none; stroke: rgb(105, 191, 174); stroke-opacity: 0.4;"><title>2</title></path><path class="link" d="M426,273.8732394366197C634,273.8732394366197 634,447.32394366197184 842,447.32394366197184" style="stroke-width: 4.78873; fill: none; stroke: rgb(105, 191, 174); stroke-opacity: 0.4;"><title>2</title></path><path class="link" d="M5,503.23943661971833C213,503.23943661971833 213,493.4507042253522 421,493.4507042253522" style="stroke-width: 4.78873; fill: none; stroke: rgb(191, 139, 105); stroke-opacity: 0.4;"><title>2</title></path><path class="link" d="M5,537.6056338028169C213,537.6056338028169 213,302.6056338028169 421,302.6056338028169" style="stroke-width: 4.78873; fill: none; stroke: rgb(191, 174, 105); stroke-opacity: 0.4;"><title>2</title></path><path class="link" d="M426,261.9014084507042C634,261.9014084507042 634,385.7746478873239 842,385.7746478873239" style="stroke-width: 4.78873; fill: none; stroke: rgb(105, 191, 174); stroke-opacity: 0.4;"><title>2</title></path><path class="link" d="M426,269.0845070422535C634,269.0845070422535 634,417.7464788732394 842,417.7464788732394" style="stroke-width: 4.78873; fill: none; stroke: rgb(105, 191, 174); stroke-opacity: 0.4;"><title>2</title></path><path class="link" d="M426,362.88732394366195C634,362.88732394366195 634,275.4929577464788 842,275.4929577464788" style="stroke-width: 4.78873; fill: none; stroke: rgb(105, 174, 191); stroke-opacity: 0.4;"><title>2</title></path><path class="link" d="M426,216.40845070422534C634,216.40845070422534 634,202.81690140845063 842,202.81690140845063" style="stroke-width: 4.78873; fill: none; stroke: rgb(105, 191, 174); stroke-opacity: 0.4;"><title>2</title></path><path class="link" d="M426,367.67605633802816C634,367.67605633802816 634,297.46478873239425 842,297.46478873239425" style="stroke-width: 4.78873; fill: none; stroke: rgb(105, 174, 191); stroke-opacity: 0.4;"><title>2</title></path><path class="link" d="M5,377.88732394366195C213,377.88732394366195 213,525.4225352112677 421,525.4225352112677" style="stroke-width: 4.78873; fill: none; stroke: rgb(174, 191, 105); stroke-opacity: 0.4;"><title>2</title></path><path class="link" d="M426,242.74647887323943C634,242.74647887323943 634,292.67605633802805 842,292.67605633802805" style="stroke-width: 4.78873; fill: none; stroke: rgb(105, 191, 174); stroke-opacity: 0.4;"><title>2</title></path><path class="link" d="M426,247.53521126760563C634,247.53521126760563 634,317.04225352112667 842,317.04225352112667" style="stroke-width: 4.78873; fill: none; stroke: rgb(105, 191, 174); stroke-opacity: 0.4;"><title>2</title></path><path class="link" d="M426,491.0563380281691C634,491.0563380281691 634,149.29577464788727 842,149.29577464788727" style="stroke-width: 4.78873; fill: none; stroke: rgb(105, 191, 139); stroke-opacity: 0.4;"><title>2</title></path><path class="link" d="M426,343.7323943661972C634,343.7323943661972 634,185.63380281690135 842,185.63380281690135" style="stroke-width: 4.78873; fill: none; stroke: rgb(105, 174, 191); stroke-opacity: 0.4;"><title>2</title></path><path class="link" d="M426,427.9577464788733C634,427.9577464788733 634,251.1267605633802 842,251.1267605633802" style="stroke-width: 4.78873; fill: none; stroke: rgb(105, 191, 105); stroke-opacity: 0.4;"><title>2</title></path><path class="link" d="M426,358.09859154929575C634,358.09859154929575 634,246.338028169014 842,246.338028169014" style="stroke-width: 4.78873; fill: none; stroke: rgb(105, 174, 191); stroke-opacity: 0.4;"><title>2</title></path><path class="link" d="M426,253.52112676056336C634,253.52112676056336 634,350.21126760563374 842,350.21126760563374" style="stroke-width: 2.39437; fill: none; stroke: rgb(105, 191, 174); stroke-opacity: 0.4;"><title>1</title></path><path class="link" d="M426,494.64788732394373C634,494.64788732394373 634,488.0985915492958 842,488.0985915492958" style="stroke-width: 2.39437; fill: none; stroke: rgb(105, 191, 139); stroke-opacity: 0.4;"><title>1</title></path><path class="link" d="M426,441.1267605633803C634,441.1267605633803 634,463.3098591549296 842,463.3098591549296" style="stroke-width: 2.39437; fill: none; stroke: rgb(105, 191, 105); stroke-opacity: 0.4;"><title>1</title></path><path class="link" d="M426,438.7323943661972C634,438.7323943661972 634,404.15492957746477 842,404.15492957746477" style="stroke-width: 2.39437; fill: none; stroke: rgb(105, 191, 105); stroke-opacity: 0.4;"><title>1</title></path><path class="link" d="M426,448.3098591549296C634,448.3098591549296 634,525.2816901408451 842,525.2816901408451" style="stroke-width: 2.39437; fill: none; stroke: rgb(105, 191, 105); stroke-opacity: 0.4;"><title>1</title></path><path class="link" d="M426,450.7042253521127C634,450.7042253521127 634,550.0704225352113 842,550.0704225352113" style="stroke-width: 2.39437; fill: none; stroke: rgb(105, 191, 105); stroke-opacity: 0.4;"><title>1</title></path><path class="link" d="M426,436.3380281690141C634,436.3380281690141 634,320.6338028169013 842,320.6338028169013" style="stroke-width: 2.39437; fill: none; stroke: rgb(105, 191, 105); stroke-opacity: 0.4;"><title>1</title></path><path class="link" d="M426,424.3661971830986C634,424.3661971830986 634,215.98591549295767 842,215.98591549295767" style="stroke-width: 2.39437; fill: none; stroke: rgb(105, 191, 105); stroke-opacity: 0.4;"><title>1</title></path><path class="link" d="M426,265.49295774647885C634,265.49295774647885 634,401.76056338028167 842,401.76056338028167" style="stroke-width: 2.39437; fill: none; stroke: rgb(105, 191, 174); stroke-opacity: 0.4;"><title>1</title></path><path class="link" d="M426,291.830985915493C634,291.830985915493 634,624.4366197183099 842,624.4366197183099" style="stroke-width: 2.39437; fill: none; stroke: rgb(105, 191, 174); stroke-opacity: 0.4;"><title>1</title></path><path class="link" d="M426,287.0422535211268C634,287.0422535211268 634,587.2535211267606 842,587.2535211267606" style="stroke-width: 2.39437; fill: none; stroke: rgb(105, 191, 174); stroke-opacity: 0.4;"><title>1</title></path><path class="link" d="M426,443.5211267605634C634,443.5211267605634 634,500.4929577464789 842,500.4929577464789" style="stroke-width: 2.39437; fill: none; stroke: rgb(105, 191, 105); stroke-opacity: 0.4;"><title>1</title></path><path class="link" d="M426,282.2535211267606C634,282.2535211267606 634,537.6760563380282 842,537.6760563380282" style="stroke-width: 2.39437; fill: none; stroke: rgb(105, 191, 174); stroke-opacity: 0.4;"><title>1</title></path><path class="link" d="M426,433.94366197183103C634,433.94366197183103 634,301.0563380281689 842,301.0563380281689" style="stroke-width: 2.39437; fill: none; stroke: rgb(105, 191, 105); stroke-opacity: 0.4;"><title>1</title></path><path class="link" d="M426,421.9718309859155C634,421.9718309859155 634,189.22535211267598 842,189.22535211267598" style="stroke-width: 2.39437; fill: none; stroke: rgb(105, 191, 105); stroke-opacity: 0.4;"><title>1</title></path><path class="link" d="M426,284.6478873239437C634,284.6478873239437 634,574.8591549295775 842,574.8591549295775" style="stroke-width: 2.39437; fill: none; stroke: rgb(105, 191, 174); stroke-opacity: 0.4;"><title>1</title></path><path class="link" d="M426,277.46478873239437C634,277.46478873239437 634,460.9154929577465 842,460.9154929577465" style="stroke-width: 2.39437; fill: none; stroke: rgb(105, 191, 174); stroke-opacity: 0.4;"><title>1</title></path><path class="link" d="M426,289.4366197183099C634,289.4366197183099 634,612.0422535211268 842,612.0422535211268" style="stroke-width: 2.39437; fill: none; stroke: rgb(105, 191, 174); stroke-opacity: 0.4;"><title>1</title></path><path class="link" d="M426,453.0985915492958C634,453.0985915492958 634,599.6478873239437 842,599.6478873239437" style="stroke-width: 2.39437; fill: none; stroke: rgb(105, 191, 105); stroke-opacity: 0.4;"><title>1</title></path><path class="link" d="M426,294.2253521126761C634,294.2253521126761 634,636.830985915493 842,636.830985915493" style="stroke-width: 2.39437; fill: none; stroke: rgb(105, 191, 174); stroke-opacity: 0.4;"><title>1</title></path><path class="link" d="M426,296.6197183098592C634,296.6197183098592 634,649.2253521126761 842,649.2253521126761" style="stroke-width: 2.39437; fill: none; stroke: rgb(105, 191, 174); stroke-opacity: 0.4;"><title>1</title></path><path class="link" d="M426,251.12676056338026C634,251.12676056338026 634,333.0281690140844 842,333.0281690140844" style="stroke-width: 2.39437; fill: none; stroke: rgb(105, 191, 174); stroke-opacity: 0.4;"><title>1</title></path><path class="link" d="M426,279.85915492957747C634,279.85915492957747 634,475.7042253521127 842,475.7042253521127" style="stroke-width: 2.39437; fill: none; stroke: rgb(105, 191, 174); stroke-opacity: 0.4;"><title>1</title></path><path class="link" d="M426,303.8028169014085C634,303.8028169014085 634,698.8028169014085 842,698.8028169014085" style="stroke-width: 2.39437; fill: none; stroke: rgb(105, 191, 174); stroke-opacity: 0.4;"><title>1</title></path><path class="link" d="M426,301.4084507042254C634,301.4084507042254 634,674.0140845070423 842,674.0140845070423" style="stroke-width: 2.39437; fill: none; stroke: rgb(105, 191, 174); stroke-opacity: 0.4;"><title>1</title></path><path class="link" d="M426,299.0140845070423C634,299.0140845070423 634,661.6197183098592 842,661.6197183098592" style="stroke-width: 2.39437; fill: none; stroke: rgb(105, 191, 174); stroke-opacity: 0.4;"><title>1</title></path><path class="link" d="M426,487.4647887323944C634,487.4647887323944 634,70.63380281690135 842,70.63380281690135" style="stroke-width: 2.39437; fill: none; stroke: rgb(105, 191, 139); stroke-opacity: 0.4;"><title>1</title></path><path class="link" d="M426,431.54929577464793C634,431.54929577464793 634,279.0845070422534 842,279.0845070422534" style="stroke-width: 2.39437; fill: none; stroke: rgb(105, 191, 105); stroke-opacity: 0.4;"><title>1</title></path><path class="link" d="M426,445.9154929577465C634,445.9154929577465 634,512.887323943662 842,512.887323943662" style="stroke-width: 2.39437; fill: none; stroke: rgb(105, 191, 105); stroke-opacity: 0.4;"><title>1</title></path><path class="link" d="M426,373.6619718309859C634,373.6619718309859 634,352.60563380281684 842,352.60563380281684" style="stroke-width: 2.39437; fill: none; stroke: rgb(105, 174, 191); stroke-opacity: 0.4;"><title>1</title></path><path class="link" d="M5,458.5211267605634C213,458.5211267605634 213,489.8591549295775 421,489.8591549295775" style="stroke-width: 2.39437; fill: none; stroke: rgb(139, 191, 105); stroke-opacity: 0.4;"><title>1</title></path><path class="link" d="M5,386.2676056338028C213,386.2676056338028 213,563.8028169014085 421,563.8028169014085" style="stroke-width: 2.39437; fill: none; stroke: rgb(174, 191, 105); stroke-opacity: 0.4;"><title>1</title></path><path class="link" d="M5,381.4788732394366C213,381.4788732394366 213,539.0140845070423 421,539.0140845070423" style="stroke-width: 2.39437; fill: none; stroke: rgb(174, 191, 105); stroke-opacity: 0.4;"><title>1</title></path><path class="link" d="M426,371.2676056338028C634,371.2676056338028 634,335.42253521126753 842,335.42253521126753" style="stroke-width: 2.39437; fill: none; stroke: rgb(105, 174, 191); stroke-opacity: 0.4;"><title>1</title></path><path class="link" d="M5,374.2957746478873C213,374.2957746478873 213,487.4647887323944 421,487.4647887323944" style="stroke-width: 2.39437; fill: none; stroke: rgb(174, 191, 105); stroke-opacity: 0.4;"><title>1</title></path><path class="link" d="M426,376.056338028169C634,376.056338028169 634,389.36619718309856 842,389.36619718309856" style="stroke-width: 2.39437; fill: none; stroke: rgb(105, 174, 191); stroke-opacity: 0.4;"><title>1</title></path><path class="link" d="M5,383.8732394366197C213,383.8732394366197 213,551.4084507042254 421,551.4084507042254" style="stroke-width: 2.39437; fill: none; stroke: rgb(174, 191, 105); stroke-opacity: 0.4;"><title>1</title></path><path class="link" d="M426,380.84507042253523C634,380.84507042253523 634,562.4647887323944 842,562.4647887323944" style="stroke-width: 2.39437; fill: none; stroke: rgb(105, 174, 191); stroke-opacity: 0.4;"><title>1</title></path><path class="link" d="M426,378.4507042253521C634,378.4507042253521 634,431.3380281690141 842,431.3380281690141" style="stroke-width: 2.39437; fill: none; stroke: rgb(105, 174, 191); stroke-opacity: 0.4;"><title>1</title></path><path class="link" d="M426,551.4084507042254C634,551.4084507042254 634,155.281690140845 842,155.281690140845" style="stroke-width: 2.39437; fill: none; stroke: rgb(105, 139, 191); stroke-opacity: 0.4;"><title>1</title></path><path class="link" d="M426,524.2253521126761C634,524.2253521126761 634,75.42253521126756 842,75.42253521126756" style="stroke-width: 2.39437; fill: none; stroke: rgb(105, 105, 191); stroke-opacity: 0.4;"><title>1</title></path><path class="link" d="M426,526.6197183098592C634,526.6197183098592 634,433.7323943661972 842,433.7323943661972" style="stroke-width: 2.39437; fill: none; stroke: rgb(105, 105, 191); stroke-opacity: 0.4;"><title>1</title></path><path class="link" d="M426,539.0140845070423C634,539.0140845070423 634,152.8873239436619 842,152.8873239436619" style="stroke-width: 2.39437; fill: none; stroke: rgb(139, 105, 191); stroke-opacity: 0.4;"><title>1</title></path><path class="link" d="M426,563.8028169014085C634,563.8028169014085 634,686.4084507042254 842,686.4084507042254" style="stroke-width: 2.39437; fill: none; stroke: rgb(174, 105, 191); stroke-opacity: 0.4;"><title>1</title></path><path class="link" d="M426,472.6760563380282C634,472.6760563380282 634,337.81690140845063 842,337.81690140845063" style="stroke-width: 2.39437; fill: none; stroke: rgb(191, 105, 174); stroke-opacity: 0.4;"><title>1</title></path><path class="link" d="M426,475.0704225352113C634,475.0704225352113 634,372.18309859154925 842,372.18309859154925" style="stroke-width: 2.39437; fill: none; stroke: rgb(191, 105, 174); stroke-opacity: 0.4;"><title>1</title></path><path class="link" d="M426,470.2816901408451C634,470.2816901408451 634,303.450704225352 842,303.450704225352" style="stroke-width: 2.39437; fill: none; stroke: rgb(191, 105, 174); stroke-opacity: 0.4;"><title>1</title></path><path class="link" d="M426,467.887323943662C634,467.887323943662 634,218.38028169014078 842,218.38028169014078" style="stroke-width: 2.39437; fill: none; stroke: rgb(191, 105, 174); stroke-opacity: 0.4;"><title>1</title></path><path class="link" d="M426,465.4929577464789C634,465.4929577464789 634,68.23943661971825 842,68.23943661971825" style="stroke-width: 2.39437; fill: none; stroke: rgb(191, 105, 174); stroke-opacity: 0.4;"><title>1</title></path><path class="link" d="M426,511.83098591549305C634,511.83098591549305 634,354.99999999999994 842,354.99999999999994" style="stroke-width: 2.39437; fill: none; stroke: rgb(191, 105, 139); stroke-opacity: 0.4;"><title>1</title></path><path class="link" d="M426,509.43661971830994C634,509.43661971830994 634,220.77464788732388 842,220.77464788732388" style="stroke-width: 2.39437; fill: none; stroke: rgb(191, 105, 139); stroke-opacity: 0.4;"><title>1</title></path><path class="link" d="M426,507.04225352112684C634,507.04225352112684 634,73.02816901408445 842,73.02816901408445" style="stroke-width: 2.39437; fill: none; stroke: rgb(191, 105, 139); stroke-opacity: 0.4;"><title>1</title></path></g><g><g class="node" transform="translate(842,263.5211267605633)"><rect height="16.76056338028169" width="5" style="fill: rgb(102, 102, 102);"><title>Altphilologie &amp; Alte Geschichte
7</title></rect><text x="-6" y="8.380281690140844" dy=".35em" text-anchor="end" style="font-size: 11px; font-family: Arial, Helvetica; pointer-events: none;">Altphilologie &amp; Alte Geschichte</text></g><g class="node" transform="translate(842,400.5633802816901)"><rect height="4.788732394366197" width="5" style="fill: rgb(102, 102, 102);"><title>Amerikanistik
2</title></rect><text x="-6" y="2.3943661971830985" dy=".35em" text-anchor="end" style="font-size: 11px; font-family: Arial, Helvetica; pointer-events: none;">Amerikanistik</text></g><g class="node" transform="translate(842,672.8169014084508)"><rect height="2.3943661971830985" width="5" style="fill: rgb(102, 102, 102);"><title>Anglistik
1</title></rect><text x="-6" y="1.1971830985915493" dy=".35em" text-anchor="end" style="font-size: 11px; font-family: Arial, Helvetica; pointer-events: none;">Anglistik</text></g><g class="node" transform="translate(842,623.2394366197184)"><rect height="2.3943661971830985" width="5" style="fill: rgb(102, 102, 102);"><title>Anthropologie
1</title></rect><text x="-6" y="1.1971830985915493" dy=".35em" text-anchor="end" style="font-size: 11px; font-family: Arial, Helvetica; pointer-events: none;">Anthropologie</text></g><g class="node" transform="translate(842,586.0563380281691)"><rect height="2.3943661971830985" width="5" style="fill: rgb(102, 102, 102);"><title>Betriebswirtschaft und Unternehmensführung
1</title></rect><text x="-6" y="1.1971830985915493" dy=".35em" text-anchor="end" style="font-size: 11px; font-family: Arial, Helvetica; pointer-events: none;">Betriebswirtschaft und Unternehmensführung</text></g><g class="node" transform="translate(842,130.14084507042247)"><rect height="26.338028169014084" width="5" style="fill: rgb(102, 102, 102);"><title>Bibliothekswesen und Informationsmanagement
11</title></rect><text x="-6" y="13.169014084507042" dy=".35em" text-anchor="end" style="font-size: 11px; font-family: Arial, Helvetica; pointer-events: none;">Bibliothekswesen und Informationsmanagement</text></g><g class="node" transform="translate(842,415.3521126760563)"><rect height="4.788732394366197" width="5" style="fill: rgb(102, 102, 102);"><title>Bildung
2</title></rect><text x="-6" y="2.3943661971830985" dy=".35em" text-anchor="end" style="font-size: 11px; font-family: Arial, Helvetica; pointer-events: none;">Bildung</text></g><g class="node" transform="translate(842,166.47887323943655)"><rect height="23.943661971830984" width="5" style="fill: rgb(102, 102, 102);"><title>Computerwissenschaften
10</title></rect><text x="-6" y="11.971830985915492" dy=".35em" text-anchor="end" style="font-size: 11px; font-family: Arial, Helvetica; pointer-events: none;">Computerwissenschaften</text></g><g class="node" transform="translate(842,314.64788732394356)"><rect height="7.183098591549296" width="5" style="fill: rgb(102, 102, 102);"><title>Deutsch / Germanistik
3</title></rect><text x="-6" y="3.591549295774648" dy=".35em" text-anchor="end" style="font-size: 11px; font-family: Arial, Helvetica; pointer-events: none;">Deutsch / Germanistik</text></g><g class="node" transform="translate(842,-5.684341886080802e-14)"><rect height="76.61971830985915" width="5" style="fill: rgb(102, 102, 102);"><title>Digital Humanities
32</title></rect><text x="-6" y="38.309859154929576" dy=".35em" text-anchor="end" style="font-size: 11px; font-family: Arial, Helvetica; pointer-events: none;">Digital Humanities</text></g><g class="node" transform="translate(842,486.90140845070425)"><rect height="2.3943661971830985" width="5" style="fill: rgb(102, 102, 102);"><title>DV-Organisation
1</title></rect><text x="-6" y="1.1971830985915493" dy=".35em" text-anchor="end" style="font-size: 11px; font-family: Arial, Helvetica; pointer-events: none;">DV-Organisation</text></g><g class="node" transform="translate(842,561.2676056338029)"><rect height="2.3943661971830985" width="5" style="fill: rgb(102, 102, 102);"><title>Französisch
1</title></rect><text x="-6" y="1.1971830985915493" dy=".35em" text-anchor="end" style="font-size: 11px; font-family: Arial, Helvetica; pointer-events: none;">Französisch</text></g><g class="node" transform="translate(842,598.4507042253522)"><rect height="2.3943661971830985" width="5" style="fill: rgb(102, 102, 102);"><title>Geographie &amp; Umweltwissenschaften
1</title></rect><text x="-6" y="1.1971830985915493" dy=".35em" text-anchor="end" style="font-size: 11px; font-family: Arial, Helvetica; pointer-events: none;">Geographie &amp; Umweltwissenschaften</text></g><g class="node" transform="translate(842,231.9718309859154)"><rect height="21.549295774647888" width="5" style="fill: rgb(102, 102, 102);"><title>Germanistik
9</title></rect><text x="-6" y="10.774647887323944" dy=".35em" text-anchor="end" style="font-size: 11px; font-family: Arial, Helvetica; pointer-events: none;">Germanistik</text></g><g class="node" transform="translate(842,200.42253521126753)"><rect height="21.549295774647888" width="5" style="fill: rgb(102, 102, 102);"><title>Geschichte
9</title></rect><text x="-6" y="10.774647887323944" dy=".35em" text-anchor="end" style="font-size: 11px; font-family: Arial, Helvetica; pointer-events: none;">Geschichte</text></g><g class="node" transform="translate(842,499.29577464788736)"><rect height="2.3943661971830985" width="5" style="fill: rgb(102, 102, 102);"><title>Geschichte der Kunst, der Architektur und des Designs
1</title></rect><text x="-6" y="1.1971830985915493" dy=".35em" text-anchor="end" style="font-size: 11px; font-family: Arial, Helvetica; pointer-events: none;">Geschichte der Kunst, der Architektur und des Designs</text></g><g class="node" transform="translate(842,536.4788732394367)"><rect height="2.3943661971830985" width="5" style="fill: rgb(102, 102, 102);"><title>Iberische / Hispanische Sprachwissenschaften
1</title></rect><text x="-6" y="1.1971830985915493" dy=".35em" text-anchor="end" style="font-size: 11px; font-family: Arial, Helvetica; pointer-events: none;">Iberische / Hispanische Sprachwissenschaften</text></g><g class="node" transform="translate(842,548.8732394366198)"><rect height="2.3943661971830985" width="5" style="fill: rgb(102, 102, 102);"><title>Japanologie
1</title></rect><text x="-6" y="1.1971830985915493" dy=".35em" text-anchor="end" style="font-size: 11px; font-family: Arial, Helvetica; pointer-events: none;">Japanologie</text></g><g class="node" transform="translate(842,383.3802816901408)"><rect height="7.183098591549296" width="5" style="fill: rgb(102, 102, 102);"><title>Kommunikations- und Medienwissenschaften
3</title></rect><text x="-6" y="3.591549295774648" dy=".35em" text-anchor="end" style="font-size: 11px; font-family: Arial, Helvetica; pointer-events: none;">Kommunikations- und Medienwissenschaften</text></g><g class="node" transform="translate(842,349.0140845070422)"><rect height="7.183098591549296" width="5" style="fill: rgb(102, 102, 102);"><title>Kunstgeschichte
3</title></rect><text x="-6" y="3.591549295774648" dy=".35em" text-anchor="end" style="font-size: 11px; font-family: Arial, Helvetica; pointer-events: none;">Kunstgeschichte</text></g><g class="node" transform="translate(842,86.6197183098591)"><rect height="33.52112676056338" width="5" style="fill: rgb(102, 102, 102);"><title>Linguistik
14</title></rect><text x="-6" y="16.76056338028169" dy=".35em" text-anchor="end" style="font-size: 11px; font-family: Arial, Helvetica; pointer-events: none;">Linguistik</text></g><g class="node" transform="translate(842,511.69014084507046)"><rect height="2.3943661971830985" width="5" style="fill: rgb(102, 102, 102);"><title>Mediävistik
1</title></rect><text x="-6" y="1.1971830985915493" dy=".35em" text-anchor="end" style="font-size: 11px; font-family: Arial, Helvetica; pointer-events: none;">Mediävistik</text></g><g class="node" transform="translate(842,524.0845070422536)"><rect height="2.3943661971830985" width="5" style="fill: rgb(102, 102, 102);"><title>Medienforschung
1</title></rect><text x="-6" y="1.1971830985915493" dy=".35em" text-anchor="end" style="font-size: 11px; font-family: Arial, Helvetica; pointer-events: none;">Medienforschung</text></g><g class="node" transform="translate(842,430.14084507042253)"><rect height="4.788732394366197" width="5" style="fill: rgb(102, 102, 102);"><title>Musik
2</title></rect><text x="-6" y="2.3943661971830985" dy=".35em" text-anchor="end" style="font-size: 11px; font-family: Arial, Helvetica; pointer-events: none;">Musik</text></g><g class="node" transform="translate(842,444.92957746478874)"><rect height="4.788732394366197" width="5" style="fill: rgb(102, 102, 102);"><title>Nahöstliche und Afrikanische Wissenschaften
2</title></rect><text x="-6" y="2.3943661971830985" dy=".35em" text-anchor="end" style="font-size: 11px; font-family: Arial, Helvetica; pointer-events: none;">Nahöstliche und Afrikanische Wissenschaften</text></g><g class="node" transform="translate(842,474.50704225352115)"><rect height="2.3943661971830985" width="5" style="fill: rgb(102, 102, 102);"><title>Ökonomie
1</title></rect><text x="-6" y="1.1971830985915493" dy=".35em" text-anchor="end" style="font-size: 11px; font-family: Arial, Helvetica; pointer-events: none;">Ökonomie</text></g><g class="node" transform="translate(842,573.661971830986)"><rect height="2.3943661971830985" width="5" style="fill: rgb(102, 102, 102);"><title>Ost- und Südasienstudien
1</title></rect><text x="-6" y="1.1971830985915493" dy=".35em" text-anchor="end" style="font-size: 11px; font-family: Arial, Helvetica; pointer-events: none;">Ost- und Südasienstudien</text></g><g class="node" transform="translate(842,290.28169014084494)"><rect height="14.366197183098592" width="5" style="fill: rgb(102, 102, 102);"><title>Philosophie
6</title></rect><text x="-6" y="7.183098591549296" dy=".35em" text-anchor="end" style="font-size: 11px; font-family: Arial, Helvetica; pointer-events: none;">Philosophie</text></g><g class="node" transform="translate(842,459.71830985915494)"><rect height="4.788732394366197" width="5" style="fill: rgb(102, 102, 102);"><title>Politik
2</title></rect><text x="-6" y="2.3943661971830985" dy=".35em" text-anchor="end" style="font-size: 11px; font-family: Arial, Helvetica; pointer-events: none;">Politik</text></g><g class="node" transform="translate(842,610.8450704225353)"><rect height="2.3943661971830985" width="5" style="fill: rgb(102, 102, 102);"><title>Psychologie
1</title></rect><text x="-6" y="1.1971830985915493" dy=".35em" text-anchor="end" style="font-size: 11px; font-family: Arial, Helvetica; pointer-events: none;">Psychologie</text></g><g class="node" transform="translate(842,366.1971830985915)"><rect height="7.183098591549296" width="5" style="fill: rgb(102, 102, 102);"><title>Recht
3</title></rect><text x="-6" y="3.591549295774648" dy=".35em" text-anchor="end" style="font-size: 11px; font-family: Arial, Helvetica; pointer-events: none;">Recht</text></g><g class="node" transform="translate(842,635.6338028169015)"><rect height="2.3943661971830985" width="5" style="fill: rgb(102, 102, 102);"><title>Russische und Osteuropäische Sprachwissenschaften
1</title></rect><text x="-6" y="1.1971830985915493" dy=".35em" text-anchor="end" style="font-size: 11px; font-family: Arial, Helvetica; pointer-events: none;">Russische und Osteuropäische Sprachwissenschaften</text></g><g class="node" transform="translate(842,648.0281690140846)"><rect height="2.3943661971830985" width="5" style="fill: rgb(102, 102, 102);"><title>Soziologie
1</title></rect><text x="-6" y="1.1971830985915493" dy=".35em" text-anchor="end" style="font-size: 11px; font-family: Arial, Helvetica; pointer-events: none;">Soziologie</text></g><g class="node" transform="translate(842,660.4225352112677)"><rect height="2.3943661971830985" width="5" style="fill: rgb(102, 102, 102);"><title>Theatergeschichte
1</title></rect><text x="-6" y="1.1971830985915493" dy=".35em" text-anchor="end" style="font-size: 11px; font-family: Arial, Helvetica; pointer-events: none;">Theatergeschichte</text></g><g class="node" transform="translate(842,331.8309859154929)"><rect height="7.183098591549296" width="5" style="fill: rgb(102, 102, 102);"><title>Theologie &amp; Religionswissenschaft
3</title></rect><text x="-6" y="3.591549295774648" dy=".35em" text-anchor="end" style="font-size: 11px; font-family: Arial, Helvetica; pointer-events: none;">Theologie &amp; Religionswissenschaft</text></g><g class="node" transform="translate(842,685.2112676056339)"><rect height="2.3943661971830985" width="5" style="fill: rgb(102, 102, 102);"><title>Versicherung
1</title></rect><text x="-6" y="1.1971830985915493" dy=".35em" text-anchor="end" style="font-size: 11px; font-family: Arial, Helvetica; pointer-events: none;">Versicherung</text></g><g class="node" transform="translate(842,697.605633802817)"><rect height="2.3943661971830985" width="5" style="fill: rgb(102, 102, 102);"><title>Volkswirtschaftslehre
1</title></rect><text x="-6" y="1.1971830985915493" dy=".35em" text-anchor="end" style="font-size: 11px; font-family: Arial, Helvetica; pointer-events: none;">Volkswirtschaftslehre</text></g><g class="node" transform="translate(0,515.6338028169014)"><rect height="9.577464788732394" width="5"><title>Abitur
4</title></rect><text x="11" y="4.788732394366197" dy=".35em" text-anchor="start" style="font-size: 11px; font-family: Arial, Helvetica; pointer-events: none;">Abitur</text></g><g class="node" transform="translate(0,476.90140845070425)"><rect height="28.732394366197184" width="5"><title>Bachelor
12</title></rect><text x="11" y="14.366197183098592" dy=".35em" text-anchor="start" style="font-size: 11px; font-family: Arial, Helvetica; pointer-events: none;">Bachelor</text></g><g class="node" transform="translate(0,535.2112676056338)"><rect height="4.788732394366197" width="5"><title>Habilitation
2</title></rect><text x="11" y="2.3943661971830985" dy=".35em" text-anchor="start" style="font-size: 11px; font-family: Arial, Helvetica; pointer-events: none;">Habilitation</text></g><g class="node" transform="translate(0,160)"><rect height="227.46478873239437" width="5"><title>Master
95</title></rect><text x="11" y="113.73239436619718" dy=".35em" text-anchor="start" style="font-size: 11px; font-family: Arial, Helvetica; pointer-events: none;">Master</text></g><g class="node" transform="translate(0,397.46478873239437)"><rect height="69.43661971830986" width="5"><title>Promotion
29</title></rect><text x="11" y="34.71830985915493" dy=".35em" text-anchor="start" style="font-size: 11px; font-family: Arial, Helvetica; pointer-events: none;">Promotion</text></g><g class="node" transform="translate(421,315)"><rect height="67.04225352112675" width="5"><title>Akademie
28</title></rect><text x="11" y="33.52112676056338" dy=".35em" text-anchor="start" style="font-size: 11px; font-family: Arial, Helvetica; pointer-events: none;">Akademie</text></g><g class="node" transform="translate(421,537.8169014084508)"><rect height="2.3943661971830985" width="5"><title>Bibliothek
1</title></rect><text x="11" y="1.1971830985915493" dy=".35em" text-anchor="start" style="font-size: 11px; font-family: Arial, Helvetica; pointer-events: none;">Bibliothek</text></g><g class="node" transform="translate(421,505.8450704225353)"><rect height="7.183098591549296" width="5"><title>freiberuflich
3</title></rect><text x="11" y="3.591549295774648" dy=".35em" text-anchor="start" style="font-size: 11px; font-family: Arial, Helvetica; pointer-events: none;">freiberuflich</text></g><g class="node" transform="translate(421,550.2112676056339)"><rect height="2.3943661971830985" width="5"><title>Leibniz-Gemeinschaft
1</title></rect><text x="11" y="1.1971830985915493" dy=".35em" text-anchor="start" style="font-size: 11px; font-family: Arial, Helvetica; pointer-events: none;">Leibniz-Gemeinschaft</text></g><g class="node" transform="translate(421,464.29577464788736)"><rect height="11.971830985915492" width="5"><title>Max-Planck-Gesellschaft
5</title></rect><text x="11" y="5.985915492957746" dy=".35em" text-anchor="start" style="font-size: 11px; font-family: Arial, Helvetica; pointer-events: none;">Max-Planck-Gesellschaft</text></g><g class="node" transform="translate(421,486.2676056338029)"><rect height="9.577464788732394" width="5"><title>Öffentliche Verwaltung
4</title></rect><text x="11" y="4.788732394366197" dy=".35em" text-anchor="start" style="font-size: 11px; font-family: Arial, Helvetica; pointer-events: none;">Öffentliche Verwaltung</text></g><g class="node" transform="translate(421,523.0281690140846)"><rect height="4.788732394366197" width="5"><title>Stiftung
2</title></rect><text x="11" y="2.3943661971830985" dy=".35em" text-anchor="start" style="font-size: 11px; font-family: Arial, Helvetica; pointer-events: none;">Stiftung</text></g><g class="node" transform="translate(421,392.0422535211268)"><rect height="62.25352112676056" width="5"><title>Student/Promotionsstudent
26</title></rect><text x="11" y="31.12676056338028" dy=".35em" text-anchor="start" style="font-size: 11px; font-family: Arial, Helvetica; pointer-events: none;">Student/Promotionsstudent</text></g><g class="node" transform="translate(421,135)"><rect height="170" width="5"><title>Universität
71</title></rect><text x="11" y="85" dy=".35em" text-anchor="start" style="font-size: 11px; font-family: Arial, Helvetica; pointer-events: none;">Universität</text></g><g class="node" transform="translate(421,562.605633802817)"><rect height="2.3943661971830985" width="5"><title>Wirtschaft
1</title></rect><text x="11" y="1.1971830985915493" dy=".35em" text-anchor="start" style="font-size: 11px; font-family: Arial, Helvetica; pointer-events: none;">Wirtschaft</text></g></g></g></svg>