<?xml version="1.0" encoding="utf-8"?>
<!-- Generator: Adobe Illustrator 22.0.1, SVG Export Plug-In . SVG Version: 6.00 Build 0)  -->
<svg version="1.1" id="Ebene_1" xmlns="http://www.w3.org/2000/svg" xmlns:xlink="http://www.w3.org/1999/xlink" x="0px" y="0px"
	 viewBox="0 0 847 600" style="enable-background:new 0 0 847 600;" xml:space="preserve">
<style type="text/css">
	.st0{fill:none;stroke:#CCCCCC;}
	.st1{font-family:'ArialMT';}
	.st2{font-size:10px;}
	.st3{opacity:0.3;fill:#BF6969;stroke:#BF6969;stroke-width:30;stroke-linejoin:round;enable-background:new    ;}
	.st4{fill:#BF6969;}
	.st5{opacity:0.3;fill:#BFA269;stroke:#BFA269;stroke-width:30;stroke-linejoin:round;enable-background:new    ;}
	.st6{fill:#BFA269;}
	.st7{opacity:0.3;fill:#A2BF69;stroke:#A2BF69;stroke-width:30;stroke-linejoin:round;enable-background:new    ;}
	.st8{fill:#A2BF69;}
	.st9{opacity:0.3;fill:#69BF69;stroke:#69BF69;stroke-width:30;stroke-linejoin:round;enable-background:new    ;}
	.st10{fill:#69BF69;}
	.st11{opacity:0.3;fill:#69BFA2;stroke:#69BFA2;stroke-width:30;stroke-linejoin:round;enable-background:new    ;}
	.st12{fill:#69BFA2;}
	.st13{opacity:0.3;fill:#69A2BF;stroke:#69A2BF;stroke-width:30;stroke-linejoin:round;enable-background:new    ;}
	.st14{fill:#69A2BF;}
	.st15{opacity:0.3;fill:#6969BF;stroke:#6969BF;stroke-width:30;stroke-linejoin:round;enable-background:new    ;}
	.st16{fill:#6969BF;}
	.st17{opacity:0.3;fill:#A269BF;stroke:#A269BF;stroke-width:30;stroke-linejoin:round;enable-background:new    ;}
	.st18{fill:#A269BF;}
	.st19{opacity:0.3;fill:#BF69A2;stroke:#BF69A2;stroke-width:30;stroke-linejoin:round;enable-background:new    ;}
	.st20{fill:#BF69A2;}
	.st21{font-family:'MyriadPro-Semibold';}
	.st22{font-size:21px;}
</style>
<g transform="translate(30.29073003902417,570)">
	<g transform="translate(0,0)">
		<line class="st0" x1="0" y1="0" x2="0" y2="-555"/>
		<text transform="matrix(1 0 0 1 -2.7808 10.1)" class="st1 st2">0</text>
	</g>
	<g transform="translate(80.17092699609759,0)">
		<line class="st0" x1="0" y1="0" x2="0" y2="-555"/>
		<text transform="matrix(1 0 0 1 -2.7808 10.1)" class="st1 st2">1</text>
	</g>
	<g transform="translate(160.34185399219518,0)">
		<line class="st0" x1="0" y1="0" x2="0" y2="-555"/>
		<text transform="matrix(1 0 0 1 -2.7808 10.1)" class="st1 st2">2</text>
	</g>
	<g transform="translate(240.51278098829272,0)">
		<line class="st0" x1="0" y1="0" x2="0" y2="-555"/>
		<text transform="matrix(1 0 0 1 -2.7808 10.1)" class="st1 st2">3</text>
	</g>
	<g transform="translate(320.68370798439037,0)">
		<line class="st0" x1="0" y1="0" x2="0" y2="-555"/>
		<text transform="matrix(1 0 0 1 -2.7808 10.1)" class="st1 st2">4</text>
	</g>
	<g transform="translate(400.8546349804879,0)">
		<line class="st0" x1="0" y1="0" x2="0" y2="-555"/>
		<text transform="matrix(1 0 0 1 -2.7808 10.1)" class="st1 st2">5</text>
	</g>
	<g transform="translate(481.02556197658544,0)">
		<line class="st0" x1="0" y1="0" x2="0" y2="-555"/>
		<text transform="matrix(1 0 0 1 -2.7808 10.1)" class="st1 st2">6</text>
	</g>
	<g transform="translate(561.196488972683,0)">
		<line class="st0" x1="0" y1="0" x2="0" y2="-555"/>
		<text transform="matrix(1 0 0 1 -2.7808 10.1)" class="st1 st2">7</text>
	</g>
	<g transform="translate(641.3674159687807,0)">
		<line class="st0" x1="0" y1="0" x2="0" y2="-555"/>
		<text transform="matrix(1 0 0 1 -2.7808 10.1)" class="st1 st2">8</text>
	</g>
	<g transform="translate(721.5383429648782,0)">
		<line class="st0" x1="0" y1="0" x2="0" y2="-555"/>
		<text transform="matrix(1 0 0 1 -2.7808 10.1)" class="st1 st2">9</text>
	</g>
	<g transform="translate(801.7092699609758,0)">
		<line class="st0" x1="0" y1="0" x2="0" y2="-555"/>
		<text transform="matrix(1 0 0 1 -5.5615 10.1)" class="st1 st2">10</text>
	</g>
	<path class="st0" d="M0-555V0h801.7v-555"/>
</g>
<g transform="translate(30.29073003902417,15)">
	<g transform="translate(0,555)">
		<line class="st0" x1="0" y1="0" x2="801.7" y2="0"/>
		<text transform="matrix(1 0 0 1 -16.9014 3.2)" class="st1 st2">0.0</text>
	</g>
	<g transform="translate(0,499.5)">
		<line class="st0" x1="0" y1="0" x2="801.7" y2="0"/>
		<text transform="matrix(1 0 0 1 -16.9014 3.2)" class="st1 st2">0.5</text>
	</g>
	<g transform="translate(0,444)">
		<line class="st0" x1="0" y1="0" x2="801.7" y2="0"/>
		<text transform="matrix(1 0 0 1 -16.9014 3.2)" class="st1 st2">1.0</text>
	</g>
	<g transform="translate(0,388.5)">
		<line class="st0" x1="0" y1="0" x2="801.7" y2="0"/>
		<text transform="matrix(1 0 0 1 -16.9014 3.2)" class="st1 st2">1.5</text>
	</g>
	<g transform="translate(0,333)">
		<line class="st0" x1="0" y1="0" x2="801.7" y2="0"/>
		<text transform="matrix(1 0 0 1 -16.9014 3.2)" class="st1 st2">2.0</text>
	</g>
	<g transform="translate(0,277.5)">
		<line class="st0" x1="0" y1="0" x2="801.7" y2="0"/>
		<text transform="matrix(1 0 0 1 -16.9014 3.2)" class="st1 st2">2.5</text>
	</g>
	<g transform="translate(0,222)">
		<line class="st0" x1="0" y1="0" x2="801.7" y2="0"/>
		<text transform="matrix(1 0 0 1 -16.9014 3.2)" class="st1 st2">3.0</text>
	</g>
	<g transform="translate(0,166.50000000000003)">
		<line class="st0" x1="0" y1="0" x2="801.7" y2="0"/>
		<text transform="matrix(1 0 0 1 -16.9014 3.2)" class="st1 st2">3.5</text>
	</g>
	<g transform="translate(0,110.99999999999997)">
		<line class="st0" x1="0" y1="0" x2="801.7" y2="0"/>
		<text transform="matrix(1 0 0 1 -16.9014 3.2)" class="st1 st2">4.0</text>
	</g>
	<g transform="translate(0,55.499999999999986)">
		<line class="st0" x1="0" y1="0" x2="801.7" y2="0"/>
		<text transform="matrix(1 0 0 1 -16.9014 3.2)" class="st1 st2">4.5</text>
	</g>
	<g transform="translate(0,0)">
		<line class="st0" x1="0" y1="0" x2="801.7" y2="0"/>
		<text transform="matrix(1 0 0 1 -16.9014 3.2)" class="st1 st2">5.0</text>
	</g>
	<path class="st0" d="M801.7,0H0v555h801.7"/>
</g>
<g id="_x32_" transform="translate(30.29073003902417,15)">
	<path class="st3" d="M160.4,444L160.4,444L160.4,444z"/>
	<circle class="st4" cx="160.3" cy="444" r="6"/>
	<circle class="st4" cx="160.4" cy="444" r="6"/>
	<circle class="st4" cx="160.4" cy="444" r="6"/>
</g>
<g id="_x33_" transform="translate(30.29073003902417,15)">
	<path class="st5" d="M240.5,444V333V444z"/>
	<circle class="st6" cx="240.5" cy="444" r="6"/>
	<circle class="st6" cx="240.5" cy="333" r="6"/>
	<circle class="st6" cx="240.5" cy="444" r="6"/>
	<circle class="st6" cx="240.5" cy="444" r="6"/>
	<circle class="st6" cx="240.5" cy="333" r="6"/>
</g>
<g id="_x34_" transform="translate(30.29073003902417,15)">
	<path class="st7" d="M320.7,444l0-111L320.7,444L320.7,444z"/>
	<circle class="st8" cx="320.7" cy="444" r="6"/>
	<circle class="st8" cx="320.7" cy="333" r="6"/>
	<circle class="st8" cx="320.7" cy="444" r="6"/>
</g>
<g id="_x35_" transform="translate(30.29073003902417,15)">
	<path class="st9" d="M400.9,444V333V444z"/>
	<circle class="st10" cx="400.9" cy="444" r="6"/>
	<circle class="st10" cx="400.9" cy="444" r="6"/>
	<circle class="st10" cx="400.9" cy="333" r="6"/>
	<circle class="st10" cx="400.9" cy="444" r="6"/>
	<circle class="st10" cx="400.9" cy="444" r="6"/>
</g>
<g id="_x36_" transform="translate(30.29073003902417,15)">
	<path class="st11" d="M481,444V0V444z"/>
	<circle class="st12" cx="481" cy="444" r="6"/>
	<circle class="st12" cx="481" cy="0" r="6"/>
	<circle class="st12" cx="481" cy="444" r="6"/>
</g>
<g id="_x37_" transform="translate(30.29073003902417,15)">
	<path class="st13" d="M561.2,444V222V444z"/>
	<circle class="st14" cx="561.2" cy="444" r="6"/>
	<circle class="st14" cx="561.2" cy="444" r="6"/>
	<circle class="st14" cx="561.2" cy="222" r="6"/>
	<circle class="st14" cx="561.2" cy="333" r="6"/>
	<circle class="st14" cx="561.2" cy="444" r="6"/>
	<circle class="st14" cx="561.2" cy="444" r="6"/>
</g>
<g id="_x38_" transform="translate(30.29073003902417,15)">
	<path class="st15" d="M641.4,444V333V444z"/>
	<circle class="st16" cx="641.4" cy="444" r="6"/>
	<circle class="st16" cx="641.4" cy="444" r="6"/>
	<circle class="st16" cx="641.4" cy="333" r="6"/>
</g>
<g id="_x39_" transform="translate(30.29073003902417,15)">
	<path class="st17" d="M721.5,333L721.5,333l0,111L721.5,333z"/>
	<circle class="st18" cx="721.5" cy="333" r="6"/>
	<circle class="st18" cx="721.5" cy="444" r="6"/>
	<circle class="st18" cx="721.5" cy="333" r="6"/>
</g>
<g id="_x31_0" transform="translate(30.29073003902417,15)">
	<path class="st19" d="M801.7,444L801.7,444L801.7,444z"/>
	<circle class="st20" cx="801.7" cy="444" r="6"/>
	<circle class="st20" cx="801.7" cy="444" r="6"/>
	<circle class="st20" cx="801.7" cy="444" r="6"/>
</g>
<text transform="matrix(1 0 0 1 699 550)" class="st21 st22">Entwicklung</text>
<text transform="matrix(1 0 0 1 49 50)" class="st21 st22">Lehre</text>
</svg>
