<?xml version="1.0" encoding="utf-8"?>
<!-- Generator: Adobe Illustrator 22.0.1, SVG Export Plug-In . SVG Version: 6.00 Build 0)  -->
<svg version="1.1" id="Ebene_1" xmlns="http://www.w3.org/2000/svg" xmlns:xlink="http://www.w3.org/1999/xlink" x="0px" y="0px"
	 viewBox="0 0 847 600" style="enable-background:new 0 0 847 600;" xml:space="preserve">
<style type="text/css">
	.st0{fill:none;stroke:#CCCCCC;}
	.st1{font-family:'ArialMT';}
	.st2{font-size:10px;}
	.st3{opacity:0.3;fill:#BF6969;stroke:#BF6969;stroke-width:30;stroke-linejoin:round;enable-background:new    ;}
	.st4{fill:#BF6969;}
	.st5{opacity:0.3;fill:#BFA269;stroke:#BFA269;stroke-width:30;stroke-linejoin:round;enable-background:new    ;}
	.st6{fill:#BFA269;}
	.st7{opacity:0.3;fill:#A2BF69;stroke:#A2BF69;stroke-width:30;stroke-linejoin:round;enable-background:new    ;}
	.st8{fill:#A2BF69;}
	.st9{opacity:0.3;fill:#69BF69;stroke:#69BF69;stroke-width:30;stroke-linejoin:round;enable-background:new    ;}
	.st10{fill:#69BF69;}
	.st11{opacity:0.3;fill:#69BFA2;stroke:#69BFA2;stroke-width:30;stroke-linejoin:round;enable-background:new    ;}
	.st12{fill:#69BFA2;}
	.st13{opacity:0.3;fill:#69A2BF;stroke:#69A2BF;stroke-width:30;stroke-linejoin:round;enable-background:new    ;}
	.st14{fill:#69A2BF;}
	.st15{opacity:0.3;fill:#6969BF;stroke:#6969BF;stroke-width:30;stroke-linejoin:round;enable-background:new    ;}
	.st16{fill:#6969BF;}
	.st17{opacity:0.3;fill:#A269BF;stroke:#A269BF;stroke-width:30;stroke-linejoin:round;enable-background:new    ;}
	.st18{fill:#A269BF;}
	.st19{opacity:0.3;fill:#BF69A2;stroke:#BF69A2;stroke-width:30;stroke-linejoin:round;enable-background:new    ;}
	.st20{fill:#BF69A2;}
	.st21{font-family:'MyriadPro-Semibold';}
	.st22{font-size:21px;}
</style>
<g transform="translate(32.127809882927494,570)">
	<g transform="translate(0,0)">
		<line class="st0" x1="0" y1="0" x2="0" y2="-555"/>
		<text transform="matrix(1 0 0 1 -2.7808 10.1)" class="st1 st2">0</text>
	</g>
	<g transform="translate(79.98721901170725,0)">
		<line class="st0" x1="0" y1="0" x2="0" y2="-555"/>
		<text transform="matrix(1 0 0 1 -2.7808 10.1)" class="st1 st2">1</text>
	</g>
	<g transform="translate(159.9744380234145,0)">
		<line class="st0" x1="0" y1="0" x2="0" y2="-555"/>
		<text transform="matrix(1 0 0 1 -2.7808 10.1)" class="st1 st2">2</text>
	</g>
	<g transform="translate(239.96165703512173,0)">
		<line class="st0" x1="0" y1="0" x2="0" y2="-555"/>
		<text transform="matrix(1 0 0 1 -2.7808 10.1)" class="st1 st2">3</text>
	</g>
	<g transform="translate(319.948876046829,0)">
		<line class="st0" x1="0" y1="0" x2="0" y2="-555"/>
		<text transform="matrix(1 0 0 1 -2.7808 10.1)" class="st1 st2">4</text>
	</g>
	<g transform="translate(399.93609505853624,0)">
		<line class="st0" x1="0" y1="0" x2="0" y2="-555"/>
		<text transform="matrix(1 0 0 1 -2.7808 10.1)" class="st1 st2">5</text>
	</g>
	<g transform="translate(479.92331407024346,0)">
		<line class="st0" x1="0" y1="0" x2="0" y2="-555"/>
		<text transform="matrix(1 0 0 1 -2.7808 10.1)" class="st1 st2">6</text>
	</g>
	<g transform="translate(559.9105330819507,0)">
		<line class="st0" x1="0" y1="0" x2="0" y2="-555"/>
		<text transform="matrix(1 0 0 1 -2.7808 10.1)" class="st1 st2">7</text>
	</g>
	<g transform="translate(639.897752093658,0)">
		<line class="st0" x1="0" y1="0" x2="0" y2="-555"/>
		<text transform="matrix(1 0 0 1 -2.7808 10.1)" class="st1 st2">8</text>
	</g>
	<g transform="translate(719.8849711053653,0)">
		<line class="st0" x1="0" y1="0" x2="0" y2="-555"/>
		<text transform="matrix(1 0 0 1 -2.7808 10.1)" class="st1 st2">9</text>
	</g>
	<g transform="translate(799.8721901170725,0)">
		<line class="st0" x1="0" y1="0" x2="0" y2="-555"/>
		<text transform="matrix(1 0 0 1 -5.5615 10.1)" class="st1 st2">10</text>
	</g>
	<path class="st0" d="M0-555V0h799.9v-555"/>
</g>
<g transform="translate(32.127809882927494,15)">
	<g transform="translate(0,555)">
		<line class="st0" x1="0" y1="0" x2="799.9" y2="0"/>
		<text transform="matrix(1 0 0 1 -8.5615 3.2)" class="st1 st2">0</text>
	</g>
	<g transform="translate(0,485.625)">
		<line class="st0" x1="0" y1="0" x2="799.9" y2="0"/>
		<text transform="matrix(1 0 0 1 -8.5615 3.2)" class="st1 st2">1</text>
	</g>
	<g transform="translate(0,416.25)">
		<line class="st0" x1="0" y1="0" x2="799.9" y2="0"/>
		<text transform="matrix(1 0 0 1 -8.5615 3.2)" class="st1 st2">2</text>
	</g>
	<g transform="translate(0,346.875)">
		<line class="st0" x1="0" y1="0" x2="799.9" y2="0"/>
		<text transform="matrix(1 0 0 1 -8.5615 3.2)" class="st1 st2">3</text>
	</g>
	<g transform="translate(0,277.5)">
		<line class="st0" x1="0" y1="0" x2="799.9" y2="0"/>
		<text transform="matrix(1 0 0 1 -8.5615 3.2)" class="st1 st2">4</text>
	</g>
	<g transform="translate(0,208.125)">
		<line class="st0" x1="0" y1="0" x2="799.9" y2="0"/>
		<text transform="matrix(1 0 0 1 -8.5615 3.2)" class="st1 st2">5</text>
	</g>
	<g transform="translate(0,138.75)">
		<line class="st0" x1="0" y1="0" x2="799.9" y2="0"/>
		<text transform="matrix(1 0 0 1 -8.5615 3.2)" class="st1 st2">6</text>
	</g>
	<g transform="translate(0,69.375)">
		<line class="st0" x1="0" y1="0" x2="799.9" y2="0"/>
		<text transform="matrix(1 0 0 1 -8.5615 3.2)" class="st1 st2">7</text>
	</g>
	<g transform="translate(0,0)">
		<line class="st0" x1="0" y1="0" x2="799.9" y2="0"/>
		<text transform="matrix(1 0 0 1 -8.5615 3.2)" class="st1 st2">8</text>
	</g>
	<path class="st0" d="M799.9,0H0v555h799.9"/>
</g>
<g id="_x32_" transform="translate(32.127809882927494,15)">
	<path class="st3" d="M160,277.5L160,277.5L160,277.5z"/>
	<circle class="st4" cx="160" cy="277.5" r="6"/>
	<circle class="st4" cx="160" cy="277.5" r="6"/>
	<circle class="st4" cx="160" cy="277.5" r="6"/>
</g>
<g id="_x33_" transform="translate(32.127809882927494,15)">
	<path class="st5" d="M240,485.6V208.1V485.6z"/>
	<circle class="st6" cx="240" cy="346.9" r="6"/>
	<circle class="st6" cx="240" cy="416.2" r="6"/>
	<circle class="st6" cx="240" cy="485.6" r="6"/>
	<circle class="st6" cx="240" cy="208.1" r="6"/>
	<circle class="st6" cx="240" cy="485.6" r="6"/>
</g>
<g id="_x34_" transform="translate(32.127809882927494,15)">
	<path class="st7" d="M320,277.5L320,277.5L320,277.5z"/>
	<circle class="st8" cx="319.9" cy="277.5" r="6"/>
	<circle class="st8" cx="319.9" cy="277.5" r="6"/>
	<circle class="st8" cx="320" cy="277.5" r="6"/>
</g>
<g id="_x35_" transform="translate(32.127809882927494,15)">
	<path class="st9" d="M399.9,485.6V138.8V485.6z"/>
	<circle class="st10" cx="399.9" cy="138.8" r="6"/>
	<circle class="st10" cx="399.9" cy="277.5" r="6"/>
	<circle class="st10" cx="399.9" cy="208.1" r="6"/>
	<circle class="st10" cx="399.9" cy="485.6" r="6"/>
	<circle class="st10" cx="399.9" cy="208.1" r="6"/>
</g>
<g id="_x36_" transform="translate(32.127809882927494,15)">
	<path class="st11" d="M479.9,346.9V0V346.9z"/>
	<circle class="st12" cx="479.9" cy="346.9" r="6"/>
	<circle class="st12" cx="479.9" cy="0" r="6"/>
	<circle class="st12" cx="479.9" cy="0" r="6"/>
</g>
<g id="_x37_" transform="translate(32.127809882927494,15)">
	<path class="st13" d="M559.9,416.2V208.1V416.2z"/>
	<circle class="st14" cx="559.9" cy="416.2" r="6"/>
	<circle class="st14" cx="559.9" cy="416.2" r="6"/>
	<circle class="st14" cx="559.9" cy="346.9" r="6"/>
	<circle class="st14" cx="559.9" cy="208.1" r="6"/>
	<circle class="st14" cx="559.9" cy="346.9" r="6"/>
	<circle class="st14" cx="559.9" cy="346.9" r="6"/>
</g>
<g id="_x38_" transform="translate(32.127809882927494,15)">
	<path class="st15" d="M639.9,416.2v-69.4V416.2z"/>
	<circle class="st16" cx="639.9" cy="346.9" r="6"/>
	<circle class="st16" cx="639.9" cy="416.2" r="6"/>
	<circle class="st16" cx="639.9" cy="416.2" r="6"/>
</g>
<g id="_x39_" transform="translate(32.127809882927494,15)">
	<path class="st17" d="M719.9,346.9L719.9,346.9l0,69.4L719.9,346.9z"/>
	<circle class="st18" cx="719.9" cy="346.9" r="6"/>
	<circle class="st18" cx="719.9" cy="416.2" r="6"/>
	<circle class="st18" cx="719.9" cy="346.9" r="6"/>
</g>
<g id="_x31_0" transform="translate(32.127809882927494,15)">
	<path class="st19" d="M799.9,485.6L799.9,485.6L799.9,485.6z"/>
	<circle class="st20" cx="799.9" cy="485.6" r="6"/>
	<circle class="st20" cx="799.9" cy="485.6" r="6"/>
	<circle class="st20" cx="799.9" cy="485.6" r="6"/>
</g>
<text transform="matrix(1 0 0 1 54 56)" class="st21 st22">Projektmanagement</text>
<text transform="matrix(1 0 0 1 700 543)" class="st21 st22">Entwicklung</text>
</svg>
