<svg width="800" height="670" xmlns="http://www.w3.org/2000/svg" version="1.1"><g transform="translate(0,10)"><g><path class="link" d="M5,105.03875968992247C201.25,105.03875968992247 201.25,277.2093023255814 397.5,277.2093023255814" style="stroke-width: 60.0775; fill: none; stroke: rgb(191, 181, 105); stroke-opacity: 0.4;"><title>25</title></path><path class="link" d="M402.5,125.42635658914729C598.75,125.42635658914729 598.75,20.42635658914706 795,20.42635658914706" style="stroke-width: 40.8527; fill: none; stroke: rgb(155, 105, 191); stroke-opacity: 0.4;"><title>17</title></path><path class="link" d="M5,157.09302325581393C201.25,157.09302325581393 201.25,117.01550387596899 397.5,117.01550387596899" style="stroke-width: 24.031; fill: none; stroke: rgb(171, 191, 105); stroke-opacity: 0.4;"><title>10</title></path><path class="link" d="M5,252.7906976744186C201.25,252.7906976744186 201.25,156.66666666666669 397.5,156.66666666666669" style="stroke-width: 21.6279; fill: none; stroke: rgb(191, 120, 105); stroke-opacity: 0.4;"><title>9</title></path><path class="link" d="M5,179.922480620155C201.25,179.922480620155 201.25,366.8992248062015 397.5,366.8992248062015" style="stroke-width: 21.6279; fill: none; stroke: rgb(171, 191, 105); stroke-opacity: 0.4;"><title>9</title></path><path class="link" d="M402.5,154.26356589147287C598.75,154.26356589147287 598.75,85.69767441860441 795,85.69767441860441" style="stroke-width: 16.8217; fill: none; stroke: rgb(155, 105, 191); stroke-opacity: 0.4;"><title>7</title></path><path class="link" d="M5,209.1472868217054C201.25,209.1472868217054 201.25,137.44186046511626 397.5,137.44186046511626" style="stroke-width: 16.8217; fill: none; stroke: rgb(191, 150, 105); stroke-opacity: 0.4;"><title>7</title></path><path class="link" d="M5,356.0852713178295C201.25,356.0852713178295 201.25,409.3410852713178 397.5,409.3410852713178" style="stroke-width: 14.4186; fill: none; stroke: rgb(155, 191, 105); stroke-opacity: 0.4;"><title>6</title></path><path class="link" d="M5,323.25581395348837C201.25,323.25581395348837 201.25,185.50387596899225 397.5,185.50387596899225" style="stroke-width: 12.0155; fill: none; stroke: rgb(191, 166, 105); stroke-opacity: 0.4;"><title>5</title></path><path class="link" d="M5,401.3178294573644C201.25,401.3178294573644 201.25,209.53488372093022 397.5,209.53488372093022" style="stroke-width: 12.0155; fill: none; stroke: rgb(105, 191, 145); stroke-opacity: 0.4;"><title>5</title></path><path class="link" d="M402.5,168.68217054263565C598.75,168.68217054263565 598.75,126.93798449612379 795,126.93798449612379" style="stroke-width: 12.0155; fill: none; stroke: rgb(155, 105, 191); stroke-opacity: 0.4;"><title>5</title></path><path class="link" d="M5,286.8217054263566C201.25,286.8217054263566 201.25,173.48837209302326 397.5,173.48837209302326" style="stroke-width: 12.0155; fill: none; stroke: rgb(186, 191, 105); stroke-opacity: 0.4;"><title>5</title></path><path class="link" d="M402.5,204.72868217054264C598.75,204.72868217054264 598.75,251.04651162790674 795,251.04651162790674" style="stroke-width: 12.0155; fill: none; stroke: rgb(155, 105, 191); stroke-opacity: 0.4;"><title>5</title></path><path class="link" d="M5,379.3023255813954C201.25,379.3023255813954 201.25,197.51937984496124 397.5,197.51937984496124" style="stroke-width: 12.0155; fill: none; stroke: rgb(105, 191, 176); stroke-opacity: 0.4;"><title>5</title></path><path class="link" d="M402.5,322.05426356589146C598.75,322.05426356589146 598.75,45.65891472868194 795,45.65891472868194" style="stroke-width: 9.6124; fill: none; stroke: rgb(110, 105, 191); stroke-opacity: 0.4;"><title>4</title></path><path class="link" d="M5,297.63565891472865C201.25,297.63565891472865 201.25,324.4573643410853 397.5,324.4573643410853" style="stroke-width: 9.6124; fill: none; stroke: rgb(186, 191, 105); stroke-opacity: 0.4;"><title>4</title></path><path class="link" d="M5,334.06976744186045C201.25,334.06976744186045 201.25,334.06976744186045 397.5,334.06976744186045" style="stroke-width: 9.6124; fill: none; stroke: rgb(191, 166, 105); stroke-opacity: 0.4;"><title>4</title></path><path class="link" d="M402.5,186.70542635658913C598.75,186.70542635658913 598.75,193.79844961240283 795,193.79844961240283" style="stroke-width: 9.6124; fill: none; stroke: rgb(155, 105, 191); stroke-opacity: 0.4;"><title>4</title></path><path class="link" d="M5,423.33333333333337C201.25,423.33333333333337 201.25,447.3643410852713 397.5,447.3643410852713" style="stroke-width: 7.2093; fill: none; stroke: rgb(105, 191, 191); stroke-opacity: 0.4;"><title>3</title></path><path class="link" d="M402.5,332.86821705426354C598.75,332.86821705426354 598.75,168.17829457364317 795,168.17829457364317" style="stroke-width: 7.2093; fill: none; stroke: rgb(110, 105, 191); stroke-opacity: 0.4;"><title>3</title></path><path class="link" d="M5,474.9612403100775C201.25,474.9612403100775 201.25,430.1550387596899 397.5,430.1550387596899" style="stroke-width: 7.2093; fill: none; stroke: rgb(125, 191, 105); stroke-opacity: 0.4;"><title>3</title></path><path class="link" d="M5,440.5426356589147C201.25,440.5426356589147 201.25,221.5503875968992 397.5,221.5503875968992" style="stroke-width: 7.2093; fill: none; stroke: rgb(140, 191, 105); stroke-opacity: 0.4;"><title>3</title></path><path class="link" d="M402.5,195.11627906976744C598.75,195.11627906976744 598.75,221.82170542635635 795,221.82170542635635" style="stroke-width: 7.2093; fill: none; stroke: rgb(155, 105, 191); stroke-opacity: 0.4;"><title>3</title></path><path class="link" d="M402.5,178.29457364341087C598.75,178.29457364341087 598.75,158.56589147286797 795,158.56589147286797" style="stroke-width: 7.2093; fill: none; stroke: rgb(155, 105, 191); stroke-opacity: 0.4;"><title>3</title></path><path class="link" d="M402.5,394.92248062015506C598.75,394.92248062015506 598.75,55.27131782945713 795,55.27131782945713" style="stroke-width: 4.8062; fill: none; stroke: rgb(105, 130, 191); stroke-opacity: 0.4;"><title>2</title></path><path class="link" d="M402.5,338.8759689922481C598.75,338.8759689922481 598.75,230.23255813953463 795,230.23255813953463" style="stroke-width: 4.8062; fill: none; stroke: rgb(110, 105, 191); stroke-opacity: 0.4;"><title>2</title></path><path class="link" d="M5,219.9612403100775C201.25,219.9612403100775 201.25,380.1162790697674 397.5,380.1162790697674" style="stroke-width: 4.8062; fill: none; stroke: rgb(191, 150, 105); stroke-opacity: 0.4;"><title>2</title></path><path class="link" d="M402.5,213.13953488372093C598.75,213.13953488372093 598.75,274.26356589147264 795,274.26356589147264" style="stroke-width: 4.8062; fill: none; stroke: rgb(155, 105, 191); stroke-opacity: 0.4;"><title>2</title></path><path class="link" d="M402.5,363.29457364341084C598.75,363.29457364341084 598.75,137.75193798449587 795,137.75193798449587" style="stroke-width: 4.8062; fill: none; stroke: rgb(125, 105, 191); stroke-opacity: 0.4;"><title>2</title></path><path class="link" d="M5,268.4108527131783C201.25,268.4108527131783 201.25,399.72868217054264 397.5,399.72868217054264" style="stroke-width: 4.8062; fill: none; stroke: rgb(191, 120, 105); stroke-opacity: 0.4;"><title>2</title></path><path class="link" d="M402.5,273.60465116279073C598.75,273.60465116279073 598.75,377.519379844961 795,377.519379844961" style="stroke-width: 4.8062; fill: none; stroke: rgb(140, 105, 191); stroke-opacity: 0.4;"><title>2</title></path><path class="link" d="M402.5,266.3953488372093C598.75,266.3953488372093 598.75,313.48837209302303 795,313.48837209302303" style="stroke-width: 4.8062; fill: none; stroke: rgb(140, 105, 191); stroke-opacity: 0.4;"><title>2</title></path><path class="link" d="M402.5,249.5736434108527C598.75,249.5736434108527 598.75,96.5116279069765 795,96.5116279069765" style="stroke-width: 4.8062; fill: none; stroke: rgb(140, 105, 191); stroke-opacity: 0.4;"><title>2</title></path><path class="link" d="M5,229.57364341085267C201.25,229.57364341085267 201.25,478.1782945736434 397.5,478.1782945736434" style="stroke-width: 4.8062; fill: none; stroke: rgb(191, 150, 105); stroke-opacity: 0.4;"><title>2</title></path><path class="link" d="M5,490.9689922480621C201.25,490.9689922480621 201.25,227.55813953488368 397.5,227.55813953488368" style="stroke-width: 4.8062; fill: none; stroke: rgb(110, 191, 105); stroke-opacity: 0.4;"><title>2</title></path><path class="link" d="M5,456.55038759689927C201.25,456.55038759689927 201.25,341.2790697674419 397.5,341.2790697674419" style="stroke-width: 4.8062; fill: none; stroke: rgb(105, 191, 115); stroke-opacity: 0.4;"><title>2</title></path><path class="link" d="M5,304.8449612403101C201.25,304.8449612403101 201.25,463.37209302325584 397.5,463.37209302325584" style="stroke-width: 4.8062; fill: none; stroke: rgb(186, 191, 105); stroke-opacity: 0.4;"><title>2</title></path><path class="link" d="M5,522.9844961240311C201.25,522.9844961240311 201.25,492.984496124031 397.5,492.984496124031" style="stroke-width: 4.8062; fill: none; stroke: rgb(191, 135, 105); stroke-opacity: 0.4;"><title>2</title></path><path class="link" d="M5,224.76744186046508C201.25,224.76744186046508 201.25,394.92248062015506 397.5,394.92248062015506" style="stroke-width: 4.8062; fill: none; stroke: rgb(191, 150, 105); stroke-opacity: 0.4;"><title>2</title></path><path class="link" d="M5,508.1782945736435C201.25,508.1782945736435 201.25,232.3643410852713 397.5,232.3643410852713" style="stroke-width: 4.8062; fill: none; stroke: rgb(105, 161, 191); stroke-opacity: 0.4;"><title>2</title></path><path class="link" d="M402.5,376.51162790697674C598.75,376.51162790697674 598.75,317.0930232558137 795,317.0930232558137" style="stroke-width: 2.4031; fill: none; stroke: rgb(125, 105, 191); stroke-opacity: 0.4;"><title>1</title></path><path class="link" d="M402.5,403.3333333333333C598.75,403.3333333333333 598.75,172.98449612403078 795,172.98449612403078" style="stroke-width: 2.4031; fill: none; stroke: rgb(105, 130, 191); stroke-opacity: 0.4;"><title>1</title></path><path class="link" d="M402.5,494.1860465116279C598.75,494.1860465116279 598.75,175.38759689922458 795,175.38759689922458" style="stroke-width: 2.4031; fill: none; stroke: rgb(105, 115, 191); stroke-opacity: 0.4;"><title>1</title></path><path class="link" d="M402.5,491.7829457364341C598.75,491.7829457364341 598.75,63.682170542635426 795,63.682170542635426" style="stroke-width: 2.4031; fill: none; stroke: rgb(105, 115, 191); stroke-opacity: 0.4;"><title>1</title></path><path class="link" d="M402.5,328.06201550387595C598.75,328.06201550387595 598.75,100.1162790697672 795,100.1162790697672" style="stroke-width: 2.4031; fill: none; stroke: rgb(110, 105, 191); stroke-opacity: 0.4;"><title>1</title></path><path class="link" d="M5,573.7984496124033C201.25,573.7984496124033 201.25,518.9922480620154 397.5,518.9922480620154" style="stroke-width: 2.4031; fill: none; stroke: rgb(191, 105, 105); stroke-opacity: 0.4;"><title>1</title></path><path class="link" d="M5,536.5891472868218C201.25,536.5891472868218 201.25,506.5891472868217 397.5,506.5891472868217" style="stroke-width: 2.4031; fill: none; stroke: rgb(105, 191, 161); stroke-opacity: 0.4;"><title>1</title></path><path class="link" d="M5,494.57364341085275C201.25,494.57364341085275 201.25,531.3953488372092 397.5,531.3953488372092" style="stroke-width: 2.4031; fill: none; stroke: rgb(110, 191, 105); stroke-opacity: 0.4;"><title>1</title></path><path class="link" d="M402.5,342.48062015503876C598.75,342.48062015503876 598.75,297.48062015503854 795,297.48062015503854" style="stroke-width: 2.4031; fill: none; stroke: rgb(110, 105, 191); stroke-opacity: 0.4;"><title>1</title></path><path class="link" d="M402.5,344.8837209302326C598.75,344.8837209302326 598.75,363.91472868217033 795,363.91472868217033" style="stroke-width: 2.4031; fill: none; stroke: rgb(110, 105, 191); stroke-opacity: 0.4;"><title>1</title></path><path class="link" d="M402.5,357.28682170542635C598.75,357.28682170542635 598.75,51.66666666666643 795,51.66666666666643" style="stroke-width: 2.4031; fill: none; stroke: rgb(125, 105, 191); stroke-opacity: 0.4;"><title>1</title></path><path class="link" d="M5,418.5271317829458C201.25,418.5271317829458 201.25,216.74418604651163 397.5,216.74418604651163" style="stroke-width: 2.4031; fill: none; stroke: rgb(105, 191, 191); stroke-opacity: 0.4;"><title>1</title></path><path class="link" d="M402.5,371.70542635658916C598.75,371.70542635658916 598.75,260.65891472868196 795,260.65891472868196" style="stroke-width: 2.4031; fill: none; stroke: rgb(125, 105, 191); stroke-opacity: 0.4;"><title>1</title></path><path class="link" d="M402.5,366.8992248062015C598.75,366.8992248062015 598.75,199.80620155038736 795,199.80620155038736" style="stroke-width: 2.4031; fill: none; stroke: rgb(125, 105, 191); stroke-opacity: 0.4;"><title>1</title></path><path class="link" d="M402.5,378.91472868217056C598.75,378.91472868217056 598.75,331.89922480620135 795,331.89922480620135" style="stroke-width: 2.4031; fill: none; stroke: rgb(125, 105, 191); stroke-opacity: 0.4;"><title>1</title></path><path class="link" d="M402.5,359.68992248062017C598.75,359.68992248062017 598.75,102.519379844961 795,102.519379844961" style="stroke-width: 2.4031; fill: none; stroke: rgb(125, 105, 191); stroke-opacity: 0.4;"><title>1</title></path><path class="link" d="M5,264.8062015503876C201.25,264.8062015503876 201.25,318.4496124031008 397.5,318.4496124031008" style="stroke-width: 2.4031; fill: none; stroke: rgb(191, 120, 105); stroke-opacity: 0.4;"><title>1</title></path><path class="link" d="M402.5,381.3178294573643C598.75,381.3178294573643 598.75,437.94573643410826 795,437.94573643410826" style="stroke-width: 2.4031; fill: none; stroke: rgb(125, 105, 191); stroke-opacity: 0.4;"><title>1</title></path><path class="link" d="M402.5,374.1085271317829C598.75,374.1085271317829 598.75,280.27131782945713 795,280.27131782945713" style="stroke-width: 2.4031; fill: none; stroke: rgb(125, 105, 191); stroke-opacity: 0.4;"><title>1</title></path><path class="link" d="M402.5,369.30232558139534C598.75,369.30232558139534 598.75,233.83720930232533 795,233.83720930232533" style="stroke-width: 2.4031; fill: none; stroke: rgb(125, 105, 191); stroke-opacity: 0.4;"><title>1</title></path><path class="link" d="M5,561.3953488372094C201.25,561.3953488372094 201.25,235.968992248062 397.5,235.968992248062" style="stroke-width: 2.4031; fill: none; stroke: rgb(105, 176, 191); stroke-opacity: 0.4;"><title>1</title></path><path class="link" d="M402.5,257.984496124031C598.75,257.984496124031 598.75,226.62790697674396 795,226.62790697674396" style="stroke-width: 2.4031; fill: none; stroke: rgb(140, 105, 191); stroke-opacity: 0.4;"><title>1</title></path><path class="link" d="M402.5,270C598.75,270 598.75,346.70542635658893 795,346.70542635658893" style="stroke-width: 2.4031; fill: none; stroke: rgb(140, 105, 191); stroke-opacity: 0.4;"><title>1</title></path><path class="link" d="M402.5,294.031007751938C598.75,294.031007751938 598.75,549.5736434108525 795,549.5736434108525" style="stroke-width: 2.4031; fill: none; stroke: rgb(140, 105, 191); stroke-opacity: 0.4;"><title>1</title></path><path class="link" d="M402.5,306.04651162790697C598.75,306.04651162790697 598.75,623.9922480620154 795,623.9922480620154" style="stroke-width: 2.4031; fill: none; stroke: rgb(140, 105, 191); stroke-opacity: 0.4;"><title>1</title></path><path class="link" d="M402.5,255.58139534883722C598.75,255.58139534883722 598.75,163.3720930232556 795,163.3720930232556" style="stroke-width: 2.4031; fill: none; stroke: rgb(140, 105, 191); stroke-opacity: 0.4;"><title>1</title></path><path class="link" d="M402.5,277.2093023255814C598.75,277.2093023255814 598.75,393.5271317829455 795,393.5271317829455" style="stroke-width: 2.4031; fill: none; stroke: rgb(140, 105, 191); stroke-opacity: 0.4;"><title>1</title></path><path class="link" d="M402.5,253.1782945736434C598.75,253.1782945736434 598.75,134.1472868217052 795,134.1472868217052" style="stroke-width: 2.4031; fill: none; stroke: rgb(140, 105, 191); stroke-opacity: 0.4;"><title>1</title></path><path class="link" d="M402.5,260.38759689922483C598.75,260.38759689922483 598.75,258.25581395348814 795,258.25581395348814" style="stroke-width: 2.4031; fill: none; stroke: rgb(140, 105, 191); stroke-opacity: 0.4;"><title>1</title></path><path class="link" d="M402.5,298.83720930232556C598.75,298.83720930232556 598.75,586.7829457364339 795,586.7829457364339" style="stroke-width: 2.4031; fill: none; stroke: rgb(140, 105, 191); stroke-opacity: 0.4;"><title>1</title></path><path class="link" d="M5,460.15503875968994C201.25,460.15503875968994 201.25,543.798449612403 397.5,543.798449612403" style="stroke-width: 2.4031; fill: none; stroke: rgb(105, 191, 115); stroke-opacity: 0.4;"><title>1</title></path><path class="link" d="M402.5,518.9922480620154C598.75,518.9922480620154 598.75,66.08527131782922 795,66.08527131782922" style="stroke-width: 2.4031; fill: none; stroke: rgb(105, 145, 191); stroke-opacity: 0.4;"><title>1</title></path><path class="link" d="M402.5,291.6279069767442C598.75,291.6279069767442 598.75,537.1705426356586 795,537.1705426356586" style="stroke-width: 2.4031; fill: none; stroke: rgb(140, 105, 191); stroke-opacity: 0.4;"><title>1</title></path><path class="link" d="M402.5,262.7906976744186C598.75,262.7906976744186 598.75,277.8682170542633 795,277.8682170542633" style="stroke-width: 2.4031; fill: none; stroke: rgb(140, 105, 191); stroke-opacity: 0.4;"><title>1</title></path><path class="link" d="M402.5,279.6124031007752C598.75,279.6124031007752 598.75,405.93023255813927 795,405.93023255813927" style="stroke-width: 2.4031; fill: none; stroke: rgb(140, 105, 191); stroke-opacity: 0.4;"><title>1</title></path><path class="link" d="M402.5,296.4341085271318C598.75,296.4341085271318 598.75,574.3798449612401 795,574.3798449612401" style="stroke-width: 2.4031; fill: none; stroke: rgb(140, 105, 191); stroke-opacity: 0.4;"><title>1</title></path><path class="link" d="M402.5,282.015503875969C598.75,282.015503875969 598.75,423.13953488372067 795,423.13953488372067" style="stroke-width: 2.4031; fill: none; stroke: rgb(140, 105, 191); stroke-opacity: 0.4;"><title>1</title></path><path class="link" d="M402.5,301.2403100775194C598.75,301.2403100775194 598.75,599.1860465116278 795,599.1860465116278" style="stroke-width: 2.4031; fill: none; stroke: rgb(140, 105, 191); stroke-opacity: 0.4;"><title>1</title></path><path class="link" d="M402.5,303.6434108527132C598.75,303.6434108527132 598.75,611.5891472868216 795,611.5891472868216" style="stroke-width: 2.4031; fill: none; stroke: rgb(140, 105, 191); stroke-opacity: 0.4;"><title>1</title></path><path class="link" d="M402.5,284.4186046511628C598.75,284.4186046511628 598.75,435.54263565891443 795,435.54263565891443" style="stroke-width: 2.4031; fill: none; stroke: rgb(140, 105, 191); stroke-opacity: 0.4;"><title>1</title></path><path class="link" d="M402.5,289.2248062015504C598.75,289.2248062015504 598.75,524.7674418604648 795,524.7674418604648" style="stroke-width: 2.4031; fill: none; stroke: rgb(140, 105, 191); stroke-opacity: 0.4;"><title>1</title></path><path class="link" d="M402.5,286.8217054263566C598.75,286.8217054263566 598.75,450.348837209302 795,450.348837209302" style="stroke-width: 2.4031; fill: none; stroke: rgb(140, 105, 191); stroke-opacity: 0.4;"><title>1</title></path><path class="link" d="M5,548.9922480620156C201.25,548.9922480620156 201.25,344.8837209302326 397.5,344.8837209302326" style="stroke-width: 2.4031; fill: none; stroke: rgb(105, 191, 130); stroke-opacity: 0.4;"><title>1</title></path><path class="link" d="M402.5,216.74418604651163C598.75,216.74418604651163 598.75,295.0775193798447 795,295.0775193798447" style="stroke-width: 2.4031; fill: none; stroke: rgb(155, 105, 191); stroke-opacity: 0.4;"><title>1</title></path><path class="link" d="M402.5,400.93023255813955C598.75,400.93023255813955 598.75,141.3565891472866 795,141.3565891472866" style="stroke-width: 2.4031; fill: none; stroke: rgb(105, 130, 191); stroke-opacity: 0.4;"><title>1</title></path><path class="link" d="M402.5,412.94573643410854C598.75,412.94573643410854 598.75,499.9612403100773 795,499.9612403100773" style="stroke-width: 2.4031; fill: none; stroke: rgb(105, 130, 191); stroke-opacity: 0.4;"><title>1</title></path><path class="link" d="M402.5,398.52713178294573C598.75,398.52713178294573 598.75,104.9224806201548 795,104.9224806201548" style="stroke-width: 2.4031; fill: none; stroke: rgb(105, 130, 191); stroke-opacity: 0.4;"><title>1</title></path><path class="link" d="M402.5,408.13953488372096C598.75,408.13953488372096 598.75,282.6744186046509 795,282.6744186046509" style="stroke-width: 2.4031; fill: none; stroke: rgb(105, 130, 191); stroke-opacity: 0.4;"><title>1</title></path><path class="link" d="M402.5,415.34883720930236C598.75,415.34883720930236 598.75,561.9767441860463 795,561.9767441860463" style="stroke-width: 2.4031; fill: none; stroke: rgb(105, 130, 191); stroke-opacity: 0.4;"><title>1</title></path><path class="link" d="M402.5,405.73643410852713C598.75,405.73643410852713 598.75,202.20930232558115 795,202.20930232558115" style="stroke-width: 2.4031; fill: none; stroke: rgb(105, 130, 191); stroke-opacity: 0.4;"><title>1</title></path><path class="link" d="M402.5,410.5426356589147C598.75,410.5426356589147 598.75,299.8837209302323 795,299.8837209302323" style="stroke-width: 2.4031; fill: none; stroke: rgb(105, 130, 191); stroke-opacity: 0.4;"><title>1</title></path><path class="link" d="M402.5,235.96899224806197C598.75,235.96899224806197 598.75,648.798449612403 795,648.798449612403" style="stroke-width: 2.4031; fill: none; stroke: rgb(155, 105, 191); stroke-opacity: 0.4;"><title>1</title></path><path class="link" d="M402.5,231.16279069767438C598.75,231.16279069767438 598.75,487.5581395348835 795,487.5581395348835" style="stroke-width: 2.4031; fill: none; stroke: rgb(155, 105, 191); stroke-opacity: 0.4;"><title>1</title></path><path class="link" d="M402.5,226.3565891472868C598.75,226.3565891472868 598.75,420.73643410852685 795,420.73643410852685" style="stroke-width: 2.4031; fill: none; stroke: rgb(155, 105, 191); stroke-opacity: 0.4;"><title>1</title></path><path class="link" d="M402.5,233.56589147286817C598.75,233.56589147286817 598.75,512.3643410852711 795,512.3643410852711" style="stroke-width: 2.4031; fill: none; stroke: rgb(155, 105, 191); stroke-opacity: 0.4;"><title>1</title></path><path class="link" d="M402.5,219.14728682170542C598.75,219.14728682170542 598.75,329.4961240310075 795,329.4961240310075" style="stroke-width: 2.4031; fill: none; stroke: rgb(155, 105, 191); stroke-opacity: 0.4;"><title>1</title></path><path class="link" d="M402.5,223.953488372093C598.75,223.953488372093 598.75,391.1240310077517 795,391.1240310077517" style="stroke-width: 2.4031; fill: none; stroke: rgb(155, 105, 191); stroke-opacity: 0.4;"><title>1</title></path><path class="link" d="M402.5,228.7596899224806C598.75,228.7596899224806 598.75,475.15503875968966 795,475.15503875968966" style="stroke-width: 2.4031; fill: none; stroke: rgb(155, 105, 191); stroke-opacity: 0.4;"><title>1</title></path><path class="link" d="M402.5,221.5503875968992C598.75,221.5503875968992 598.75,361.5116279069765 795,361.5116279069765" style="stroke-width: 2.4031; fill: none; stroke: rgb(155, 105, 191); stroke-opacity: 0.4;"><title>1</title></path><path class="link" d="M402.5,462.17054263565893C598.75,462.17054263565893 598.75,61.27906976744163 795,61.27906976744163" style="stroke-width: 2.4031; fill: none; stroke: rgb(171, 105, 191); stroke-opacity: 0.4;"><title>1</title></path><path class="link" d="M402.5,464.57364341085275C598.75,464.57364341085275 598.75,207.01550387596876 795,207.01550387596876" style="stroke-width: 2.4031; fill: none; stroke: rgb(171, 105, 191); stroke-opacity: 0.4;"><title>1</title></path><path class="link" d="M402.5,430.15503875968994C598.75,430.15503875968994 598.75,349.10852713178275 795,349.10852713178275" style="stroke-width: 2.4031; fill: none; stroke: rgb(186, 105, 191); stroke-opacity: 0.4;"><title>1</title></path><path class="link" d="M402.5,427.7519379844961C598.75,427.7519379844961 598.75,107.3255813953486 795,107.3255813953486" style="stroke-width: 2.4031; fill: none; stroke: rgb(186, 105, 191); stroke-opacity: 0.4;"><title>1</title></path><path class="link" d="M402.5,432.5581395348837C598.75,432.5581395348837 598.75,408.3333333333331 795,408.3333333333331" style="stroke-width: 2.4031; fill: none; stroke: rgb(186, 105, 191); stroke-opacity: 0.4;"><title>1</title></path><path class="link" d="M402.5,543.798449612403C598.75,543.798449612403 598.75,177.79069767441837 795,177.79069767441837" style="stroke-width: 2.4031; fill: none; stroke: rgb(191, 105, 181); stroke-opacity: 0.4;"><title>1</title></path><path class="link" d="M402.5,506.5891472868217C598.75,506.5891472868217 598.75,636.3953488372092 795,636.3953488372092" style="stroke-width: 2.4031; fill: none; stroke: rgb(191, 105, 166); stroke-opacity: 0.4;"><title>1</title></path><path class="link" d="M402.5,531.3953488372092C598.75,531.3953488372092 598.75,462.75193798449584 795,462.75193798449584" style="stroke-width: 2.4031; fill: none; stroke: rgb(191, 105, 150); stroke-opacity: 0.4;"><title>1</title></path><path class="link" d="M402.5,479.37984496124034C598.75,479.37984496124034 598.75,143.7596899224804 795,143.7596899224804" style="stroke-width: 2.4031; fill: none; stroke: rgb(191, 105, 135); stroke-opacity: 0.4;"><title>1</title></path><path class="link" d="M402.5,476.9767441860465C598.75,476.9767441860465 598.75,109.7286821705424 795,109.7286821705424" style="stroke-width: 2.4031; fill: none; stroke: rgb(191, 105, 135); stroke-opacity: 0.4;"><title>1</title></path><path class="link" d="M402.5,449.7674418604651C598.75,449.7674418604651 598.75,334.3023255813951 795,334.3023255813951" style="stroke-width: 2.4031; fill: none; stroke: rgb(191, 105, 120); stroke-opacity: 0.4;"><title>1</title></path><path class="link" d="M402.5,447.36434108527135C598.75,447.36434108527135 598.75,204.61240310077494 795,204.61240310077494" style="stroke-width: 2.4031; fill: none; stroke: rgb(191, 105, 120); stroke-opacity: 0.4;"><title>1</title></path><path class="link" d="M402.5,444.9612403100775C598.75,444.9612403100775 598.75,58.87596899224783 795,58.87596899224783" style="stroke-width: 2.4031; fill: none; stroke: rgb(191, 105, 120); stroke-opacity: 0.4;"><title>1</title></path></g><g><g class="node" transform="translate(0,454.14728682170545)"><rect height="7.209302325581395" width="5"><title>Altphilologie &amp; Alte Geschichte
3</title></rect><text x="11" y="3.6046511627906974" dy=".35em" text-anchor="start" style="font-size: 11px; font-family: Arial, Helvetica; pointer-events: none;">Altphilologie &amp; Alte Geschichte</text></g><g class="node" transform="translate(0,471.35658914728685)"><rect height="7.209302325581395" width="5"><title>Amerikanistik
3</title></rect><text x="11" y="3.6046511627906974" dy=".35em" text-anchor="start" style="font-size: 11px; font-family: Arial, Helvetica; pointer-events: none;">Amerikanistik</text></g><g class="node" transform="translate(0,373.2945736434109)"><rect height="12.015503875968992" width="5"><title>Anglistik
5</title></rect><text x="11" y="6.007751937984496" dy=".35em" text-anchor="start" style="font-size: 11px; font-family: Arial, Helvetica; pointer-events: none;">Anglistik</text></g><g class="node" transform="translate(0,520.5813953488373)"><rect height="4.8062015503875966" width="5"><title>Bibliothekswesen
2</title></rect><text x="11" y="2.4031007751937983" dy=".35em" text-anchor="start" style="font-size: 11px; font-family: Arial, Helvetica; pointer-events: none;">Bibliothekswesen</text></g><g class="node" transform="translate(0,572.5968992248064)"><rect height="2.4031007751937983" width="5"><title>Bildung
1</title></rect><text x="11" y="1.2015503875968991" dy=".35em" text-anchor="start" style="font-size: 11px; font-family: Arial, Helvetica; pointer-events: none;">Bildung</text></g><g class="node" transform="translate(0,200.7364341085271)"><rect height="31.24031007751938" width="5"><title>Computerwissenschaften
13</title></rect><text x="11" y="15.62015503875969" dy=".35em" text-anchor="start" style="font-size: 11px; font-family: Arial, Helvetica; pointer-events: none;">Computerwissenschaften</text></g><g class="node" transform="translate(0,241.9767441860465)"><rect height="28.83720930232558" width="5"><title>Digital Humanities
12</title></rect><text x="11" y="14.41860465116279" dy=".35em" text-anchor="start" style="font-size: 11px; font-family: Arial, Helvetica; pointer-events: none;">Digital Humanities</text></g><g class="node" transform="translate(0,280.8139534883721)"><rect height="26.43410852713178" width="5"><title>Germanistik
11</title></rect><text x="11" y="13.21705426356589" dy=".35em" text-anchor="start" style="font-size: 11px; font-family: Arial, Helvetica; pointer-events: none;">Germanistik</text></g><g class="node" transform="translate(0,145.07751937984494)"><rect height="45.65891472868217" width="5"><title>Geschichte
19</title></rect><text x="11" y="22.829457364341085" dy=".35em" text-anchor="start" style="font-size: 11px; font-family: Arial, Helvetica; pointer-events: none;">Geschichte</text></g><g class="node" transform="translate(0,560.1937984496126)"><rect height="2.4031007751937983" width="5"><title>Informatik
1</title></rect><text x="11" y="1.2015503875968991" dy=".35em" text-anchor="start" style="font-size: 11px; font-family: Arial, Helvetica; pointer-events: none;">Informatik</text></g><g class="node" transform="translate(0,436.93798449612405)"><rect height="7.209302325581395" width="5"><title>Japanologie
3</title></rect><text x="11" y="3.6046511627906974" dy=".35em" text-anchor="start" style="font-size: 11px; font-family: Arial, Helvetica; pointer-events: none;">Japanologie</text></g><g class="node" transform="translate(0,547.7906976744188)"><rect height="2.4031007751937983" width="5"><title>Klassische Archäologie
1</title></rect><text x="11" y="1.2015503875968991" dy=".35em" text-anchor="start" style="font-size: 11px; font-family: Arial, Helvetica; pointer-events: none;">Klassische Archäologie</text></g><g class="node" transform="translate(0,348.8759689922481)"><rect height="14.41860465116279" width="5"><title>Kulturwissenschaften
6</title></rect><text x="11" y="7.209302325581395" dy=".35em" text-anchor="start" style="font-size: 11px; font-family: Arial, Helvetica; pointer-events: none;">Kulturwissenschaften</text></g><g class="node" transform="translate(0,535.387596899225)"><rect height="2.4031007751937983" width="5"><title>Kunst &amp; Design
1</title></rect><text x="11" y="1.2015503875968991" dy=".35em" text-anchor="start" style="font-size: 11px; font-family: Arial, Helvetica; pointer-events: none;">Kunst &amp; Design</text></g><g class="node" transform="translate(0,417.3255813953489)"><rect height="9.612403100775193" width="5"><title>Kunstgeschichte
4</title></rect><text x="11" y="4.8062015503875966" dy=".35em" text-anchor="start" style="font-size: 11px; font-family: Arial, Helvetica; pointer-events: none;">Kunstgeschichte</text></g><g class="node" transform="translate(0,317.2480620155039)"><rect height="21.627906976744185" width="5"><title>Linguistik
9</title></rect><text x="11" y="10.813953488372093" dy=".35em" text-anchor="start" style="font-size: 11px; font-family: Arial, Helvetica; pointer-events: none;">Linguistik</text></g><g class="node" transform="translate(0,395.3100775193799)"><rect height="12.015503875968992" width="5"><title>Mittelalterstudien
5</title></rect><text x="11" y="6.007751937984496" dy=".35em" text-anchor="start" style="font-size: 11px; font-family: Arial, Helvetica; pointer-events: none;">Mittelalterstudien</text></g><g class="node" transform="translate(0,505.77519379844966)"><rect height="4.8062015503875966" width="5"><title>Musik
2</title></rect><text x="11" y="2.4031007751937983" dy=".35em" text-anchor="start" style="font-size: 11px; font-family: Arial, Helvetica; pointer-events: none;">Musik</text></g><g class="node" transform="translate(0,75)"><rect height="60.07751937984496" width="5"><title>Nahöstliche und Afrikanische Wissenschaften
25</title></rect><text x="11" y="30.03875968992248" dy=".35em" text-anchor="start" style="font-size: 11px; font-family: Arial, Helvetica; pointer-events: none;">Nahöstliche und Afrikanische Wissenschaften</text></g><g class="node" transform="translate(0,488.56589147286826)"><rect height="7.209302325581395" width="5"><title>Soziologie
3</title></rect><text x="11" y="3.6046511627906974" dy=".35em" text-anchor="start" style="font-size: 11px; font-family: Arial, Helvetica; pointer-events: none;">Soziologie</text></g><g class="node" transform="translate(795,218.21705426356564)"><rect height="16.821705426356587" width="5" style="fill: rgb(102, 102, 102);"><title>Altphilologie &amp; Alte Geschichte
7</title></rect><text x="-6" y="8.410852713178294" dy=".35em" text-anchor="end" style="font-size: 11px; font-family: Arial, Helvetica; pointer-events: none;">Altphilologie &amp; Alte Geschichte</text></g><g class="node" transform="translate(795,345.503875968992)"><rect height="4.8062015503875966" width="5" style="fill: rgb(102, 102, 102);"><title>Amerikanistik
2</title></rect><text x="-6" y="2.4031007751937983" dy=".35em" text-anchor="end" style="font-size: 11px; font-family: Arial, Helvetica; pointer-events: none;">Amerikanistik</text></g><g class="node" transform="translate(795,511.1627906976742)"><rect height="2.4031007751937983" width="5" style="fill: rgb(102, 102, 102);"><title>Anglistik
1</title></rect><text x="-6" y="1.2015503875968991" dy=".35em" text-anchor="end" style="font-size: 11px; font-family: Arial, Helvetica; pointer-events: none;">Anglistik</text></g><g class="node" transform="translate(795,548.3720930232556)"><rect height="2.4031007751937983" width="5" style="fill: rgb(102, 102, 102);"><title>Anthropologie
1</title></rect><text x="-6" y="1.2015503875968991" dy=".35em" text-anchor="end" style="font-size: 11px; font-family: Arial, Helvetica; pointer-events: none;">Anthropologie</text></g><g class="node" transform="translate(795,622.7906976744185)"><rect height="2.4031007751937983" width="5" style="fill: rgb(102, 102, 102);"><title>Betriebswirtschaft und Unternehmensführung
1</title></rect><text x="-6" y="1.2015503875968991" dy=".35em" text-anchor="end" style="font-size: 11px; font-family: Arial, Helvetica; pointer-events: none;">Betriebswirtschaft und Unternehmensführung</text></g><g class="node" transform="translate(795,154.96124031007727)"><rect height="24.031007751937985" width="5" style="fill: rgb(102, 102, 102);"><title>Bibliothekswesen und Informationsmanagement
10</title></rect><text x="-6" y="12.015503875968992" dy=".35em" text-anchor="end" style="font-size: 11px; font-family: Arial, Helvetica; pointer-events: none;">Bibliothekswesen und Informationsmanagement</text></g><g class="node" transform="translate(795,389.9224806201548)"><rect height="4.8062015503875966" width="5" style="fill: rgb(102, 102, 102);"><title>Bildung
2</title></rect><text x="-6" y="2.4031007751937983" dy=".35em" text-anchor="end" style="font-size: 11px; font-family: Arial, Helvetica; pointer-events: none;">Bildung</text></g><g class="node" transform="translate(795,120.9302325581393)"><rect height="24.031007751937985" width="5" style="fill: rgb(102, 102, 102);"><title>Computerwissenschaften
10</title></rect><text x="-6" y="12.015503875968992" dy=".35em" text-anchor="end" style="font-size: 11px; font-family: Arial, Helvetica; pointer-events: none;">Computerwissenschaften</text></g><g class="node" transform="translate(795,293.8759689922478)"><rect height="7.209302325581395" width="5" style="fill: rgb(102, 102, 102);"><title>Deutsch / Germanistik
3</title></rect><text x="-6" y="3.6046511627906974" dy=".35em" text-anchor="end" style="font-size: 11px; font-family: Arial, Helvetica; pointer-events: none;">Deutsch / Germanistik</text></g><g class="node" transform="translate(795,-2.2737367544323206e-13)"><rect height="67.28682170542635" width="5" style="fill: rgb(102, 102, 102);"><title>Digital Humanities
28</title></rect><text x="-6" y="33.643410852713174" dy=".35em" text-anchor="end" style="font-size: 11px; font-family: Arial, Helvetica; pointer-events: none;">Digital Humanities</text></g><g class="node" transform="translate(795,461.55038759689893)"><rect height="2.4031007751937983" width="5" style="fill: rgb(102, 102, 102);"><title>DV-Organisation
1</title></rect><text x="-6" y="1.2015503875968991" dy=".35em" text-anchor="end" style="font-size: 11px; font-family: Arial, Helvetica; pointer-events: none;">DV-Organisation</text></g><g class="node" transform="translate(795,473.95348837209275)"><rect height="2.4031007751937983" width="5" style="fill: rgb(102, 102, 102);"><title>Französisch
1</title></rect><text x="-6" y="1.2015503875968991" dy=".35em" text-anchor="end" style="font-size: 11px; font-family: Arial, Helvetica; pointer-events: none;">Französisch</text></g><g class="node" transform="translate(795,498.7596899224804)"><rect height="2.4031007751937983" width="5" style="fill: rgb(102, 102, 102);"><title>Geographie &amp; Umweltwissenschaften
1</title></rect><text x="-6" y="1.2015503875968991" dy=".35em" text-anchor="end" style="font-size: 11px; font-family: Arial, Helvetica; pointer-events: none;">Geographie &amp; Umweltwissenschaften</text></g><g class="node" transform="translate(795,245.03875968992224)"><rect height="16.821705426356587" width="5" style="fill: rgb(102, 102, 102);"><title>Germanistik
7</title></rect><text x="-6" y="8.410852713178294" dy=".35em" text-anchor="end" style="font-size: 11px; font-family: Arial, Helvetica; pointer-events: none;">Germanistik</text></g><g class="node" transform="translate(795,188.99224806201525)"><rect height="19.224806201550386" width="5" style="fill: rgb(102, 102, 102);"><title>Geschichte
8</title></rect><text x="-6" y="9.612403100775193" dy=".35em" text-anchor="end" style="font-size: 11px; font-family: Arial, Helvetica; pointer-events: none;">Geschichte</text></g><g class="node" transform="translate(795,560.7751937984494)"><rect height="2.4031007751937983" width="5" style="fill: rgb(102, 102, 102);"><title>Geschichte der Kunst, der Architektur und des Designs
1</title></rect><text x="-6" y="1.2015503875968991" dy=".35em" text-anchor="end" style="font-size: 11px; font-family: Arial, Helvetica; pointer-events: none;">Geschichte der Kunst, der Architektur und des Designs</text></g><g class="node" transform="translate(795,585.5813953488371)"><rect height="2.4031007751937983" width="5" style="fill: rgb(102, 102, 102);"><title>Iberische / Hispanische Sprachwissenschaften
1</title></rect><text x="-6" y="1.2015503875968991" dy=".35em" text-anchor="end" style="font-size: 11px; font-family: Arial, Helvetica; pointer-events: none;">Iberische / Hispanische Sprachwissenschaften</text></g><g class="node" transform="translate(795,647.5968992248062)"><rect height="2.4031007751937983" width="5" style="fill: rgb(102, 102, 102);"><title>Japanologie
1</title></rect><text x="-6" y="1.2015503875968991" dy=".35em" text-anchor="end" style="font-size: 11px; font-family: Arial, Helvetica; pointer-events: none;">Japanologie</text></g><g class="node" transform="translate(795,311.0852713178292)"><rect height="7.209302325581395" width="5" style="fill: rgb(102, 102, 102);"><title>Kommunikations- und Medienwissenschaften
3</title></rect><text x="-6" y="3.6046511627906974" dy=".35em" text-anchor="end" style="font-size: 11px; font-family: Arial, Helvetica; pointer-events: none;">Kommunikations- und Medienwissenschaften</text></g><g class="node" transform="translate(795,328.2945736434106)"><rect height="7.209302325581395" width="5" style="fill: rgb(102, 102, 102);"><title>Kunstgeschichte
3</title></rect><text x="-6" y="3.6046511627906974" dy=".35em" text-anchor="end" style="font-size: 11px; font-family: Arial, Helvetica; pointer-events: none;">Kunstgeschichte</text></g><g class="node" transform="translate(795,77.28682170542612)"><rect height="33.643410852713174" width="5" style="fill: rgb(102, 102, 102);"><title>Linguistik
14</title></rect><text x="-6" y="16.821705426356587" dy=".35em" text-anchor="end" style="font-size: 11px; font-family: Arial, Helvetica; pointer-events: none;">Linguistik</text></g><g class="node" transform="translate(795,486.35658914728657)"><rect height="2.4031007751937983" width="5" style="fill: rgb(102, 102, 102);"><title>Medienforschung
1</title></rect><text x="-6" y="1.2015503875968991" dy=".35em" text-anchor="end" style="font-size: 11px; font-family: Arial, Helvetica; pointer-events: none;">Medienforschung</text></g><g class="node" transform="translate(795,360.3100775193796)"><rect height="4.8062015503875966" width="5" style="fill: rgb(102, 102, 102);"><title>Musik
2</title></rect><text x="-6" y="2.4031007751937983" dy=".35em" text-anchor="end" style="font-size: 11px; font-family: Arial, Helvetica; pointer-events: none;">Musik</text></g><g class="node" transform="translate(795,375.1162790697672)"><rect height="4.8062015503875966" width="5" style="fill: rgb(102, 102, 102);"><title>Nahöstliche und Afrikanische Wissenschaften
2</title></rect><text x="-6" y="2.4031007751937983" dy=".35em" text-anchor="end" style="font-size: 11px; font-family: Arial, Helvetica; pointer-events: none;">Nahöstliche und Afrikanische Wissenschaften</text></g><g class="node" transform="translate(795,523.565891472868)"><rect height="2.4031007751937983" width="5" style="fill: rgb(102, 102, 102);"><title>Ökonomie
1</title></rect><text x="-6" y="1.2015503875968991" dy=".35em" text-anchor="end" style="font-size: 11px; font-family: Arial, Helvetica; pointer-events: none;">Ökonomie</text></g><g class="node" transform="translate(795,535.9689922480618)"><rect height="2.4031007751937983" width="5" style="fill: rgb(102, 102, 102);"><title>Ost- und Südasienstudien
1</title></rect><text x="-6" y="1.2015503875968991" dy=".35em" text-anchor="end" style="font-size: 11px; font-family: Arial, Helvetica; pointer-events: none;">Ost- und Südasienstudien</text></g><g class="node" transform="translate(795,271.8604651162788)"><rect height="12.015503875968992" width="5" style="fill: rgb(102, 102, 102);"><title>Philosophie
5</title></rect><text x="-6" y="6.007751937984496" dy=".35em" text-anchor="end" style="font-size: 11px; font-family: Arial, Helvetica; pointer-events: none;">Philosophie</text></g><g class="node" transform="translate(795,404.72868217054236)"><rect height="4.8062015503875966" width="5" style="fill: rgb(102, 102, 102);"><title>Politik
2</title></rect><text x="-6" y="2.4031007751937983" dy=".35em" text-anchor="end" style="font-size: 11px; font-family: Arial, Helvetica; pointer-events: none;">Politik</text></g><g class="node" transform="translate(795,573.1782945736433)"><rect height="2.4031007751937983" width="5" style="fill: rgb(102, 102, 102);"><title>Psychologie
1</title></rect><text x="-6" y="1.2015503875968991" dy=".35em" text-anchor="end" style="font-size: 11px; font-family: Arial, Helvetica; pointer-events: none;">Psychologie</text></g><g class="node" transform="translate(795,419.53488372092994)"><rect height="4.8062015503875966" width="5" style="fill: rgb(102, 102, 102);"><title>Recht
2</title></rect><text x="-6" y="2.4031007751937983" dy=".35em" text-anchor="end" style="font-size: 11px; font-family: Arial, Helvetica; pointer-events: none;">Recht</text></g><g class="node" transform="translate(795,597.9844961240309)"><rect height="2.4031007751937983" width="5" style="fill: rgb(102, 102, 102);"><title>Russische und Osteuropäische Sprachwissenschaften
1</title></rect><text x="-6" y="1.2015503875968991" dy=".35em" text-anchor="end" style="font-size: 11px; font-family: Arial, Helvetica; pointer-events: none;">Russische und Osteuropäische Sprachwissenschaften</text></g><g class="node" transform="translate(795,610.3875968992247)"><rect height="2.4031007751937983" width="5" style="fill: rgb(102, 102, 102);"><title>Soziologie
1</title></rect><text x="-6" y="1.2015503875968991" dy=".35em" text-anchor="end" style="font-size: 11px; font-family: Arial, Helvetica; pointer-events: none;">Soziologie</text></g><g class="node" transform="translate(795,434.3410852713175)"><rect height="4.8062015503875966" width="5" style="fill: rgb(102, 102, 102);"><title>Theologie &amp; Religionswissenschaft
2</title></rect><text x="-6" y="2.4031007751937983" dy=".35em" text-anchor="end" style="font-size: 11px; font-family: Arial, Helvetica; pointer-events: none;">Theologie &amp; Religionswissenschaft</text></g><g class="node" transform="translate(795,635.1937984496124)"><rect height="2.4031007751937983" width="5" style="fill: rgb(102, 102, 102);"><title>Versicherung
1</title></rect><text x="-6" y="1.2015503875968991" dy=".35em" text-anchor="end" style="font-size: 11px; font-family: Arial, Helvetica; pointer-events: none;">Versicherung</text></g><g class="node" transform="translate(795,449.1472868217051)"><rect height="2.4031007751937983" width="5" style="fill: rgb(102, 102, 102);"><title>Volkswirtschaftslehre
1</title></rect><text x="-6" y="1.2015503875968991" dy=".35em" text-anchor="end" style="font-size: 11px; font-family: Arial, Helvetica; pointer-events: none;">Volkswirtschaftslehre</text></g><g class="node" transform="translate(397.5,530.1937984496124)"><rect height="2.4031007751937983" width="5"><title>DBA ECMA
1</title></rect><text x="11" y="1.2015503875968991" dy=".35em" text-anchor="start" style="font-size: 11px; font-family: Arial, Helvetica; pointer-events: none;">DBA ECMA</text></g><g class="node" transform="translate(397.5,490.5813953488372)"><rect height="4.8062015503875966" width="5"><title>Dipl.-Bibliothekar_in
2</title></rect><text x="11" y="2.4031007751937983" dy=".35em" text-anchor="start" style="font-size: 11px; font-family: Arial, Helvetica; pointer-events: none;">Dipl.-Bibliothekar_in</text></g><g class="node" transform="translate(397.5,247.1705426356589)"><rect height="60.07751937984496" width="5"><title>Forschungsdatenreferent_in
25</title></rect><text x="11" y="30.03875968992248" dy=".35em" text-anchor="start" style="font-size: 11px; font-family: Arial, Helvetica; pointer-events: none;">Forschungsdatenreferent_in</text></g><g class="node" transform="translate(397.5,460.968992248062)"><rect height="4.8062015503875966" width="5"><title>IT-Referent_in
2</title></rect><text x="11" y="2.4031007751937983" dy=".35em" text-anchor="start" style="font-size: 11px; font-family: Arial, Helvetica; pointer-events: none;">IT-Referent_in</text></g><g class="node" transform="translate(397.5,475.7751937984496)"><rect height="4.8062015503875966" width="5"><title>Juniorprofessor_in
2</title></rect><text x="11" y="2.4031007751937983" dy=".35em" text-anchor="start" style="font-size: 11px; font-family: Arial, Helvetica; pointer-events: none;">Juniorprofessor_in</text></g><g class="node" transform="translate(397.5,356.08527131782944)"><rect height="26.43410852713178" width="5"><title>Professor_in
11</title></rect><text x="11" y="13.21705426356589" dy=".35em" text-anchor="start" style="font-size: 11px; font-family: Arial, Helvetica; pointer-events: none;">Professor_in</text></g><g class="node" transform="translate(397.5,443.7596899224806)"><rect height="7.209302325581395" width="5"><title>Projektberatung
3</title></rect><text x="11" y="3.6046511627906974" dy=".35em" text-anchor="start" style="font-size: 11px; font-family: Arial, Helvetica; pointer-events: none;">Projektberatung</text></g><g class="node" transform="translate(397.5,426.5503875968992)"><rect height="7.209302325581395" width="5"><title>Promotionsstudent_in
3</title></rect><text x="11" y="3.6046511627906974" dy=".35em" text-anchor="start" style="font-size: 11px; font-family: Arial, Helvetica; pointer-events: none;">Promotionsstudent_in</text></g><g class="node" transform="translate(397.5,517.7906976744185)"><rect height="2.4031007751937983" width="5"><title>SHK
1</title></rect><text x="11" y="1.2015503875968991" dy=".35em" text-anchor="start" style="font-size: 11px; font-family: Arial, Helvetica; pointer-events: none;">SHK</text></g><g class="node" transform="translate(397.5,317.2480620155039)"><rect height="28.83720930232558" width="5"><title>Softwareentwickler_in
12</title></rect><text x="11" y="14.41860465116279" dy=".35em" text-anchor="start" style="font-size: 11px; font-family: Arial, Helvetica; pointer-events: none;">Softwareentwickler_in</text></g><g class="node" transform="translate(397.5,505.3875968992248)"><rect height="2.4031007751937983" width="5"><title>Underwriter_in
1</title></rect><text x="11" y="1.2015503875968991" dy=".35em" text-anchor="start" style="font-size: 11px; font-family: Arial, Helvetica; pointer-events: none;">Underwriter_in</text></g><g class="node" transform="translate(397.5,392.51937984496124)"><rect height="24.031007751937985" width="5"><title>WHK
10</title></rect><text x="11" y="12.015503875968992" dy=".35em" text-anchor="start" style="font-size: 11px; font-family: Arial, Helvetica; pointer-events: none;">WHK</text></g><g class="node" transform="translate(397.5,105)"><rect height="132.1705426356589" width="5"><title>WiMi
55</title></rect><text x="11" y="66.08527131782945" dy=".35em" text-anchor="start" style="font-size: 11px; font-family: Arial, Helvetica; pointer-events: none;">WiMi</text></g><g class="node" transform="translate(397.5,542.5968992248062)"><rect height="2.4031007751937983" width="5"><title>Wiss. Bibliothekar_in
1</title></rect><text x="11" y="1.2015503875968991" dy=".35em" text-anchor="start" style="font-size: 11px; font-family: Arial, Helvetica; pointer-events: none;">Wiss. Bibliothekar_in</text></g></g></g></svg>