<svg width="900" height="620" xmlns="http://www.w3.org/2000/svg" version="1.1"><g transform="translate(0,10)"><g><path class="link" d="M452.5,140.22222222222223C673.75,140.22222222222223 673.75,115.22222222222219 895,115.22222222222219" style="stroke-width: 90.4444; fill: none; stroke: rgb(191, 105, 141); stroke-opacity: 0.4;"><title>11</title></path><path class="link" d="M452.5,214.2222222222222C673.75,214.2222222222222 673.75,256.77777777777777 895,256.77777777777777" style="stroke-width: 57.5556; fill: none; stroke: rgb(191, 105, 141); stroke-opacity: 0.4;"><title>7</title></path><path class="link" d="M452.5,343.44444444444446C673.75,343.44444444444446 673.75,185.11111111111106 895,185.11111111111106" style="stroke-width: 49.3333; fill: none; stroke: rgb(191, 105, 123); stroke-opacity: 0.4;"><title>6</title></path><path class="link" d="M452.5,435.66666666666663C673.75,435.66666666666663 673.75,353.11111111111114 895,353.11111111111114" style="stroke-width: 32.8889; fill: none; stroke: rgb(191, 105, 176); stroke-opacity: 0.4;"><title>4</title></path><path class="link" d="M5,114.5555555555556C226.25,114.5555555555556 226.25,140.22222222222223 447.5,140.22222222222223" style="stroke-width: 24.6667; fill: none; stroke: rgb(105, 191, 111); stroke-opacity: 0.4;"><title>3</title></path><path class="link" d="M452.5,255.33333333333331C673.75,255.33333333333331 673.75,324.3333333333333 895,324.3333333333333" style="stroke-width: 24.6667; fill: none; stroke: rgb(191, 105, 141); stroke-opacity: 0.4;"><title>3</title></path><path class="link" d="M5,283.7777777777778C226.25,283.7777777777778 226.25,218.33333333333334 447.5,218.33333333333334" style="stroke-width: 16.4444; fill: none; stroke: rgb(170, 191, 105); stroke-opacity: 0.4;"><title>2</title></path><path class="link" d="M452.5,376.3333333333333C673.75,376.3333333333333 673.75,293.77777777777777 895,293.77777777777777" style="stroke-width: 16.4444; fill: none; stroke: rgb(191, 105, 123); stroke-opacity: 0.4;"><title>2</title></path><path class="link" d="M5,67.5555555555556C226.25,67.5555555555556 226.25,119.66666666666666 447.5,119.66666666666666" style="stroke-width: 16.4444; fill: none; stroke: rgb(191, 141, 105); stroke-opacity: 0.4;"><title>2</title></path><path class="link" d="M5,196.22222222222226C226.25,196.22222222222226 226.25,177.22222222222223 447.5,177.22222222222223" style="stroke-width: 16.4444; fill: none; stroke: rgb(105, 191, 182); stroke-opacity: 0.4;"><title>2</title></path><path class="link" d="M5,336.66666666666674C226.25,336.66666666666674 226.25,376.3333333333333 447.5,376.3333333333333" style="stroke-width: 16.4444; fill: none; stroke: rgb(117, 105, 191); stroke-opacity: 0.4;"><title>2</title></path><path class="link" d="M452.5,478.5555555555555C673.75,478.5555555555555 673.75,377.77777777777777 895,377.77777777777777" style="stroke-width: 16.4444; fill: none; stroke: rgb(188, 105, 191); stroke-opacity: 0.4;"><title>2</title></path><path class="link" d="M5,169.77777777777783C226.25,169.77777777777783 226.25,443.88888888888886 447.5,443.88888888888886" style="stroke-width: 16.4444; fill: none; stroke: rgb(191, 158, 105); stroke-opacity: 0.4;"><title>2</title></path><path class="link" d="M5,153.33333333333337C226.25,153.33333333333337 226.25,160.77777777777777 447.5,160.77777777777777" style="stroke-width: 16.4444; fill: none; stroke: rgb(191, 158, 105); stroke-opacity: 0.4;"><title>2</title></path><path class="link" d="M5,8.222222222222278C226.25,8.222222222222278 226.25,103.22222222222223 447.5,103.22222222222223" style="stroke-width: 16.4444; fill: none; stroke: rgb(188, 191, 105); stroke-opacity: 0.4;"><title>2</title></path><path class="link" d="M5,24.66666666666672C226.25,24.66666666666672 226.25,327 447.5,327" style="stroke-width: 16.4444; fill: none; stroke: rgb(188, 191, 105); stroke-opacity: 0.4;"><title>2</title></path><path class="link" d="M5,230.8888888888889C226.25,230.8888888888889 226.25,193.66666666666669 447.5,193.66666666666669" style="stroke-width: 16.4444; fill: none; stroke: rgb(105, 191, 129); stroke-opacity: 0.4;"><title>2</title></path><path class="link" d="M5,431.88888888888897C226.25,431.88888888888897 226.25,255.33333333333334 447.5,255.33333333333334" style="stroke-width: 8.22222; fill: none; stroke: rgb(117, 191, 105); stroke-opacity: 0.4;"><title>1</title></path><path class="link" d="M5,261.44444444444446C226.25,261.44444444444446 226.25,456.2222222222222 447.5,456.2222222222222" style="stroke-width: 8.22222; fill: none; stroke: rgb(191, 176, 105); stroke-opacity: 0.4;"><title>1</title></path><path class="link" d="M5,131.00000000000006C226.25,131.00000000000006 226.25,347.55555555555554 447.5,347.55555555555554" style="stroke-width: 8.22222; fill: none; stroke: rgb(105, 191, 111); stroke-opacity: 0.4;"><title>1</title></path><path class="link" d="M5,253.22222222222226C226.25,253.22222222222226 226.25,206 447.5,206" style="stroke-width: 8.22222; fill: none; stroke: rgb(191, 176, 105); stroke-opacity: 0.4;"><title>1</title></path><path class="link" d="M5,541.2222222222223C226.25,541.2222222222223 226.25,288.22222222222223 447.5,288.22222222222223" style="stroke-width: 8.22222; fill: none; stroke: rgb(105, 191, 146); stroke-opacity: 0.4;"><title>1</title></path><path class="link" d="M5,395.4444444444445C226.25,395.4444444444445 226.25,238.88888888888889 447.5,238.88888888888889" style="stroke-width: 8.22222; fill: none; stroke: rgb(105, 191, 164); stroke-opacity: 0.4;"><title>1</title></path><path class="link" d="M5,37.00000000000006C226.25,37.00000000000006 226.25,423.33333333333326 447.5,423.33333333333326" style="stroke-width: 8.22222; fill: none; stroke: rgb(188, 191, 105); stroke-opacity: 0.4;"><title>1</title></path><path class="link" d="M5,208.55555555555557C226.25,208.55555555555557 226.25,355.7777777777777 447.5,355.7777777777777" style="stroke-width: 8.22222; fill: none; stroke: rgb(105, 191, 182); stroke-opacity: 0.4;"><title>1</title></path><path class="link" d="M5,468.3333333333334C226.25,468.3333333333334 226.25,482.6666666666666 447.5,482.6666666666666" style="stroke-width: 8.22222; fill: none; stroke: rgb(191, 123, 105); stroke-opacity: 0.4;"><title>1</title></path><path class="link" d="M5,504.7777777777779C226.25,504.7777777777779 226.25,280 447.5,280" style="stroke-width: 8.22222; fill: none; stroke: rgb(105, 164, 191); stroke-opacity: 0.4;"><title>1</title></path><path class="link" d="M5,450.1111111111112C226.25,450.1111111111112 226.25,263.55555555555554 447.5,263.55555555555554" style="stroke-width: 8.22222; fill: none; stroke: rgb(105, 146, 191); stroke-opacity: 0.4;"><title>1</title></path><path class="link" d="M5,486.55555555555566C226.25,486.55555555555566 226.25,271.77777777777777 447.5,271.77777777777777" style="stroke-width: 8.22222; fill: none; stroke: rgb(105, 129, 191); stroke-opacity: 0.4;"><title>1</title></path><path class="link" d="M5,577.6666666666666C226.25,577.6666666666666 226.25,296.44444444444446 447.5,296.44444444444446" style="stroke-width: 8.22222; fill: none; stroke: rgb(105, 111, 191); stroke-opacity: 0.4;"><title>1</title></path><path class="link" d="M5,45.22222222222227C226.25,45.22222222222227 226.25,500.8888888888888 447.5,500.8888888888888" style="stroke-width: 8.22222; fill: none; stroke: rgb(188, 191, 105); stroke-opacity: 0.4;"><title>1</title></path><path class="link" d="M5,559.4444444444445C226.25,559.4444444444445 226.25,405.1111111111111 447.5,405.1111111111111" style="stroke-width: 8.22222; fill: none; stroke: rgb(135, 105, 191); stroke-opacity: 0.4;"><title>1</title></path><path class="link" d="M5,523.0000000000001C226.25,523.0000000000001 226.25,396.88888888888886 447.5,396.88888888888886" style="stroke-width: 8.22222; fill: none; stroke: rgb(152, 105, 191); stroke-opacity: 0.4;"><title>1</title></path><path class="link" d="M5,377.2222222222223C226.25,377.2222222222223 226.25,388.66666666666663 447.5,388.66666666666663" style="stroke-width: 8.22222; fill: none; stroke: rgb(170, 105, 191); stroke-opacity: 0.4;"><title>1</title></path><path class="link" d="M5,79.88888888888894C226.25,79.88888888888894 226.25,339.3333333333333 447.5,339.3333333333333" style="stroke-width: 8.22222; fill: none; stroke: rgb(191, 141, 105); stroke-opacity: 0.4;"><title>1</title></path><path class="link" d="M5,88.11111111111117C226.25,88.11111111111117 226.25,431.5555555555555 447.5,431.5555555555555" style="stroke-width: 8.22222; fill: none; stroke: rgb(191, 141, 105); stroke-opacity: 0.4;"><title>1</title></path><path class="link" d="M452.5,456.2222222222222C673.75,456.2222222222222 673.75,416.55555555555554 895,416.55555555555554" style="stroke-width: 8.22222; fill: none; stroke: rgb(191, 105, 176); stroke-opacity: 0.4;"><title>1</title></path><path class="link" d="M452.5,500.8888888888888C673.75,500.8888888888888 673.75,213.88888888888886 895,213.88888888888886" style="stroke-width: 8.22222; fill: none; stroke: rgb(191, 105, 158); stroke-opacity: 0.4;"><title>1</title></path><path class="link" d="M5,359.00000000000006C226.25,359.00000000000006 226.25,474.44444444444434 447.5,474.44444444444434" style="stroke-width: 8.22222; fill: none; stroke: rgb(191, 105, 105); stroke-opacity: 0.4;"><title>1</title></path><path class="link" d="M5,306.11111111111114C226.25,306.11111111111114 226.25,230.66666666666666 447.5,230.66666666666666" style="stroke-width: 8.22222; fill: none; stroke: rgb(152, 191, 105); stroke-opacity: 0.4;"><title>1</title></path><path class="link" d="M5,314.33333333333337C226.25,314.33333333333337 226.25,363.99999999999994 447.5,363.99999999999994" style="stroke-width: 8.22222; fill: none; stroke: rgb(152, 191, 105); stroke-opacity: 0.4;"><title>1</title></path><path class="link" d="M452.5,288.2222222222222C673.75,288.2222222222222 673.75,471.22222222222223 895,471.22222222222223" style="stroke-width: 8.22222; fill: none; stroke: rgb(191, 105, 141); stroke-opacity: 0.4;"><title>1</title></path><path class="link" d="M452.5,271.7777777777777C673.75,271.7777777777777 673.75,400.1111111111111 895,400.1111111111111" style="stroke-width: 8.22222; fill: none; stroke: rgb(191, 105, 141); stroke-opacity: 0.4;"><title>1</title></path><path class="link" d="M452.5,279.99999999999994C673.75,279.99999999999994 673.75,434.77777777777777 895,434.77777777777777" style="stroke-width: 8.22222; fill: none; stroke: rgb(191, 105, 141); stroke-opacity: 0.4;"><title>1</title></path><path class="link" d="M452.5,296.4444444444444C673.75,296.4444444444444 673.75,507.6666666666667 895,507.6666666666667" style="stroke-width: 8.22222; fill: none; stroke: rgb(191, 105, 141); stroke-opacity: 0.4;"><title>1</title></path><path class="link" d="M452.5,304.66666666666663C673.75,304.66666666666663 673.75,525.8888888888889 895,525.8888888888889" style="stroke-width: 8.22222; fill: none; stroke: rgb(191, 105, 141); stroke-opacity: 0.4;"><title>1</title></path><path class="link" d="M452.5,388.66666666666663C673.75,388.66666666666663 673.75,408.3333333333333 895,408.3333333333333" style="stroke-width: 8.22222; fill: none; stroke: rgb(191, 105, 123); stroke-opacity: 0.4;"><title>1</title></path><path class="link" d="M5,595.8888888888888C226.25,595.8888888888888 226.25,304.6666666666667 447.5,304.6666666666667" style="stroke-width: 8.22222; fill: none; stroke: rgb(135, 191, 105); stroke-opacity: 0.4;"><title>1</title></path><path class="link" d="M452.5,405.1111111111111C673.75,405.1111111111111 673.75,489.44444444444446 895,489.44444444444446" style="stroke-width: 8.22222; fill: none; stroke: rgb(191, 105, 123); stroke-opacity: 0.4;"><title>1</title></path><path class="link" d="M452.5,396.88888888888886C673.75,396.88888888888886 673.75,453 895,453" style="stroke-width: 8.22222; fill: none; stroke: rgb(191, 105, 123); stroke-opacity: 0.4;"><title>1</title></path><path class="link" d="M5,413.66666666666674C226.25,413.66666666666674 226.25,247.11111111111111 447.5,247.11111111111111" style="stroke-width: 8.22222; fill: none; stroke: rgb(105, 182, 191); stroke-opacity: 0.4;"><title>1</title></path></g><g><g class="node" transform="translate(0,222.66666666666669)"><rect height="16.444444444444443" width="5"><title>Altphilologie &amp; Alte Geschichte
2</title></rect><text x="11" y="8.222222222222221" dy=".35em" text-anchor="start" style="font-size: 11px; font-family: Arial, Helvetica; pointer-events: none;">Altphilologie &amp; Alte Geschichte</text></g><g class="node" transform="translate(0,391.3333333333334)"><rect height="8.222222222222221" width="5"><title>Amerikanistik
1</title></rect><text x="11" y="4.111111111111111" dy=".35em" text-anchor="start" style="font-size: 11px; font-family: Arial, Helvetica; pointer-events: none;">Amerikanistik</text></g><g class="node" transform="translate(0,482.44444444444457)"><rect height="8.222222222222221" width="5"><title>Anglistik
1</title></rect><text x="11" y="4.111111111111111" dy=".35em" text-anchor="start" style="font-size: 11px; font-family: Arial, Helvetica; pointer-events: none;">Anglistik</text></g><g class="node" transform="translate(0,249.11111111111114)"><rect height="16.444444444444443" width="5"><title>Bibliothekswesen
2</title></rect><text x="11" y="8.222222222222221" dy=".35em" text-anchor="start" style="font-size: 11px; font-family: Arial, Helvetica; pointer-events: none;">Bibliothekswesen</text></g><g class="node" transform="translate(0,464.22222222222234)"><rect height="8.222222222222221" width="5"><title>Bildung
1</title></rect><text x="11" y="4.111111111111111" dy=".35em" text-anchor="start" style="font-size: 11px; font-family: Arial, Helvetica; pointer-events: none;">Bildung</text></g><g class="node" transform="translate(0,5.684341886080802e-14)"><rect height="49.33333333333333" width="5"><title>Computerwissenschaften
6</title></rect><text x="11" y="24.666666666666664" dy=".35em" text-anchor="start" style="font-size: 11px; font-family: Arial, Helvetica; pointer-events: none;">Computerwissenschaften</text></g><g class="node" transform="translate(0,275.5555555555556)"><rect height="16.444444444444443" width="5"><title>Deutsch / Germanistik
2</title></rect><text x="11" y="8.222222222222221" dy=".35em" text-anchor="start" style="font-size: 11px; font-family: Arial, Helvetica; pointer-events: none;">Deutsch / Germanistik</text></g><g class="node" transform="translate(0,59.333333333333385)"><rect height="32.888888888888886" width="5"><title>Digital Humanities
4</title></rect><text x="11" y="16.444444444444443" dy=".35em" text-anchor="start" style="font-size: 11px; font-family: Arial, Helvetica; pointer-events: none;">Digital Humanities</text></g><g class="node" transform="translate(0,302.00000000000006)"><rect height="16.444444444444443" width="5"><title>Germanistik
2</title></rect><text x="11" y="8.222222222222221" dy=".35em" text-anchor="start" style="font-size: 11px; font-family: Arial, Helvetica; pointer-events: none;">Germanistik</text></g><g class="node" transform="translate(0,102.22222222222227)"><rect height="32.888888888888886" width="5"><title>Geschichte
4</title></rect><text x="11" y="16.444444444444443" dy=".35em" text-anchor="start" style="font-size: 11px; font-family: Arial, Helvetica; pointer-events: none;">Geschichte</text></g><g class="node" transform="translate(0,354.88888888888897)"><rect height="8.222222222222221" width="5"><title>Gymnasium
1</title></rect><text x="11" y="4.111111111111111" dy=".35em" text-anchor="start" style="font-size: 11px; font-family: Arial, Helvetica; pointer-events: none;">Gymnasium</text></g><g class="node" transform="translate(0,373.1111111111112)"><rect height="8.222222222222221" width="5"><title>Informatik
1</title></rect><text x="11" y="4.111111111111111" dy=".35em" text-anchor="start" style="font-size: 11px; font-family: Arial, Helvetica; pointer-events: none;">Informatik</text></g><g class="node" transform="translate(0,591.7777777777777)"><rect height="8.222222222222221" width="5"><title>Japanologie
1</title></rect><text x="11" y="4.111111111111111" dy=".35em" text-anchor="start" style="font-size: 11px; font-family: Arial, Helvetica; pointer-events: none;">Japanologie</text></g><g class="node" transform="translate(0,409.55555555555566)"><rect height="8.222222222222221" width="5"><title>Klassische Archäologie
1</title></rect><text x="11" y="4.111111111111111" dy=".35em" text-anchor="start" style="font-size: 11px; font-family: Arial, Helvetica; pointer-events: none;">Klassische Archäologie</text></g><g class="node" transform="translate(0,427.7777777777779)"><rect height="8.222222222222221" width="5"><title>Kulturwissenschaften
1</title></rect><text x="11" y="4.111111111111111" dy=".35em" text-anchor="start" style="font-size: 11px; font-family: Arial, Helvetica; pointer-events: none;">Kulturwissenschaften</text></g><g class="node" transform="translate(0,446.0000000000001)"><rect height="8.222222222222221" width="5"><title>Kunst &amp; Design
1</title></rect><text x="11" y="4.111111111111111" dy=".35em" text-anchor="start" style="font-size: 11px; font-family: Arial, Helvetica; pointer-events: none;">Kunst &amp; Design</text></g><g class="node" transform="translate(0,328.4444444444445)"><rect height="16.444444444444443" width="5"><title>Kunstgeschichte
2</title></rect><text x="11" y="8.222222222222221" dy=".35em" text-anchor="start" style="font-size: 11px; font-family: Arial, Helvetica; pointer-events: none;">Kunstgeschichte</text></g><g class="node" transform="translate(0,145.11111111111114)"><rect height="32.888888888888886" width="5"><title>Linguistik
4</title></rect><text x="11" y="16.444444444444443" dy=".35em" text-anchor="start" style="font-size: 11px; font-family: Arial, Helvetica; pointer-events: none;">Linguistik</text></g><g class="node" transform="translate(0,500.6666666666668)"><rect height="8.222222222222221" width="5"><title>Mittelalterstudien
1</title></rect><text x="11" y="4.111111111111111" dy=".35em" text-anchor="start" style="font-size: 11px; font-family: Arial, Helvetica; pointer-events: none;">Mittelalterstudien</text></g><g class="node" transform="translate(0,518.888888888889)"><rect height="8.222222222222221" width="5"><title>Musik
1</title></rect><text x="11" y="4.111111111111111" dy=".35em" text-anchor="start" style="font-size: 11px; font-family: Arial, Helvetica; pointer-events: none;">Musik</text></g><g class="node" transform="translate(0,537.1111111111112)"><rect height="8.222222222222221" width="5"><title>Nahöstliche und Afrikanische Wissenschaften
1</title></rect><text x="11" y="4.111111111111111" dy=".35em" text-anchor="start" style="font-size: 11px; font-family: Arial, Helvetica; pointer-events: none;">Nahöstliche und Afrikanische Wissenschaften</text></g><g class="node" transform="translate(0,555.3333333333334)"><rect height="8.222222222222221" width="5"><title>Philosophie
1</title></rect><text x="11" y="4.111111111111111" dy=".35em" text-anchor="start" style="font-size: 11px; font-family: Arial, Helvetica; pointer-events: none;">Philosophie</text></g><g class="node" transform="translate(0,188.00000000000003)"><rect height="24.666666666666664" width="5"><title>Soziologie
3</title></rect><text x="11" y="12.333333333333332" dy=".35em" text-anchor="start" style="font-size: 11px; font-family: Arial, Helvetica; pointer-events: none;">Soziologie</text></g><g class="node" transform="translate(0,573.5555555555555)"><rect height="8.222222222222221" width="5"><title>Theater-, Film- und Medienwissenschaft
1</title></rect><text x="11" y="4.111111111111111" dy=".35em" text-anchor="start" style="font-size: 11px; font-family: Arial, Helvetica; pointer-events: none;">Theater-, Film- und Medienwissenschaft</text></g><g class="node" transform="translate(447.5,470.33333333333326)"><rect height="16.444444444444443" width="5"><title>Abitur
2</title></rect><text x="11" y="8.222222222222221" dy=".35em" text-anchor="start" style="font-size: 11px; font-family: Arial, Helvetica; pointer-events: none;">Abitur</text></g><g class="node" transform="translate(447.5,419.2222222222222)"><rect height="41.11111111111111" width="5"><title>Bachelor
5</title></rect><text x="11" y="20.555555555555554" dy=".35em" text-anchor="start" style="font-size: 11px; font-family: Arial, Helvetica; pointer-events: none;">Bachelor</text></g><g class="node" transform="translate(447.5,496.7777777777777)"><rect height="8.222222222222221" width="5"><title>Habilitation
1</title></rect><text x="11" y="4.111111111111111" dy=".35em" text-anchor="start" style="font-size: 11px; font-family: Arial, Helvetica; pointer-events: none;">Habilitation</text></g><g class="node" transform="translate(447.5,95)"><rect height="213.77777777777777" width="5"><title>Master
26</title></rect><text x="11" y="106.88888888888889" dy=".35em" text-anchor="start" style="font-size: 11px; font-family: Arial, Helvetica; pointer-events: none;">Master</text></g><g class="node" transform="translate(447.5,318.77777777777777)"><rect height="90.44444444444443" width="5"><title>Promotion
11</title></rect><text x="11" y="45.222222222222214" dy=".35em" text-anchor="start" style="font-size: 11px; font-family: Arial, Helvetica; pointer-events: none;">Promotion</text></g><g class="node" transform="translate(895,227.99999999999997)"><rect height="74" width="5" style="fill: rgb(102, 102, 102);"><title>Akademie
9</title></rect><text x="-6" y="37" dy=".35em" text-anchor="end" style="font-size: 11px; font-family: Arial, Helvetica; pointer-events: none;">Akademie</text></g><g class="node" transform="translate(895,430.6666666666667)"><rect height="8.222222222222221" width="5" style="fill: rgb(102, 102, 102);"><title>Bibliothek
1</title></rect><text x="-6" y="4.111111111111111" dy=".35em" text-anchor="end" style="font-size: 11px; font-family: Arial, Helvetica; pointer-events: none;">Bibliothek</text></g><g class="node" transform="translate(895,448.8888888888889)"><rect height="8.222222222222221" width="5" style="fill: rgb(102, 102, 102);"><title>freiberuflich
1</title></rect><text x="-6" y="4.111111111111111" dy=".35em" text-anchor="end" style="font-size: 11px; font-family: Arial, Helvetica; pointer-events: none;">freiberuflich</text></g><g class="node" transform="translate(895,467.11111111111114)"><rect height="8.222222222222221" width="5" style="fill: rgb(102, 102, 102);"><title>Leibniz-Gemeinschaft
1</title></rect><text x="-6" y="4.111111111111111" dy=".35em" text-anchor="end" style="font-size: 11px; font-family: Arial, Helvetica; pointer-events: none;">Leibniz-Gemeinschaft</text></g><g class="node" transform="translate(895,485.33333333333337)"><rect height="8.222222222222221" width="5" style="fill: rgb(102, 102, 102);"><title>Max-Planck-Gesellschaft
1</title></rect><text x="-6" y="4.111111111111111" dy=".35em" text-anchor="end" style="font-size: 11px; font-family: Arial, Helvetica; pointer-events: none;">Max-Planck-Gesellschaft</text></g><g class="node" transform="translate(895,396)"><rect height="24.666666666666664" width="5" style="fill: rgb(102, 102, 102);"><title>Öffentliche Verwaltung
3</title></rect><text x="-6" y="12.333333333333332" dy=".35em" text-anchor="end" style="font-size: 11px; font-family: Arial, Helvetica; pointer-events: none;">Öffentliche Verwaltung</text></g><g class="node" transform="translate(895,503.5555555555556)"><rect height="8.222222222222221" width="5" style="fill: rgb(102, 102, 102);"><title>Stiftung
1</title></rect><text x="-6" y="4.111111111111111" dy=".35em" text-anchor="end" style="font-size: 11px; font-family: Arial, Helvetica; pointer-events: none;">Stiftung</text></g><g class="node" transform="translate(895,312)"><rect height="74" width="5" style="fill: rgb(102, 102, 102);"><title>Student/Promotionsstudent
9</title></rect><text x="-6" y="37" dy=".35em" text-anchor="end" style="font-size: 11px; font-family: Arial, Helvetica; pointer-events: none;">Student/Promotionsstudent</text></g><g class="node" transform="translate(895,69.99999999999997)"><rect height="148" width="5" style="fill: rgb(102, 102, 102);"><title>Universität
18</title></rect><text x="-6" y="74" dy=".35em" text-anchor="end" style="font-size: 11px; font-family: Arial, Helvetica; pointer-events: none;">Universität</text></g><g class="node" transform="translate(895,521.7777777777778)"><rect height="8.222222222222221" width="5" style="fill: rgb(102, 102, 102);"><title>Wirtschaft
1</title></rect><text x="-6" y="4.111111111111111" dy=".35em" text-anchor="end" style="font-size: 11px; font-family: Arial, Helvetica; pointer-events: none;">Wirtschaft</text></g></g></g></svg>