<svg width="1200" height="570" xmlns="http://www.w3.org/2000/svg" version="1.1"><g transform="translate(0,10)"><g><path class="link" d="M5,131.66666666666669C151.875,131.66666666666669 151.875,126.66666666666664 298.75,126.66666666666664" style="stroke-width: 133.333; fill: none; stroke: rgb(191, 138, 105); stroke-opacity: 0.4;"><title>15</title></path><path class="link" d="M901.25,62.22222222222223C1048.125,62.22222222222223 1048.125,97.2222222222222 1195,97.2222222222222" style="stroke-width: 124.444; fill: none; stroke: rgb(111, 105, 191); stroke-opacity: 0.4;"><title>14</title></path><path class="link" d="M303.75,108.88888888888886C450.625,108.88888888888886 450.625,78.88888888888889 597.5,78.88888888888889" style="stroke-width: 97.7778; fill: none; stroke: rgb(191, 155, 105); stroke-opacity: 0.4;"><title>11</title></path><path class="link" d="M602.5,78.88888888888889C749.375,78.88888888888889 749.375,48.88888888888889 896.25,48.88888888888889" style="stroke-width: 97.7778; fill: none; stroke: rgb(144, 191, 105); stroke-opacity: 0.4;"><title>11</title></path><path class="link" d="M5,328.33333333333337C151.875,328.33333333333337 151.875,233.33333333333331 298.75,233.33333333333331" style="stroke-width: 80; fill: none; stroke: rgb(191, 105, 105); stroke-opacity: 0.4;"><title>9</title></path><path class="link" d="M5,233.8888888888889C151.875,233.8888888888889 151.875,318.88888888888886 298.75,318.88888888888886" style="stroke-width: 71.1111; fill: none; stroke: rgb(191, 138, 105); stroke-opacity: 0.4;"><title>8</title></path><path class="link" d="M5,399.44444444444446C151.875,399.44444444444446 151.875,385.55555555555554 298.75,385.55555555555554" style="stroke-width: 62.2222; fill: none; stroke: rgb(191, 105, 105); stroke-opacity: 0.4;"><title>7</title></path><path class="link" d="M303.75,314.44444444444446C450.625,314.44444444444446 450.625,158.8888888888889 597.5,158.8888888888889" style="stroke-width: 62.2222; fill: none; stroke: rgb(191, 122, 105); stroke-opacity: 0.4;"><title>7</title></path><path class="link" d="M602.5,231.11111111111111C749.375,231.11111111111111 749.375,128.8888888888889 896.25,128.8888888888889" style="stroke-width: 62.2222; fill: none; stroke: rgb(127, 191, 105); stroke-opacity: 0.4;"><title>7</title></path><path class="link" d="M303.75,188.88888888888889C450.625,188.88888888888889 450.625,231.11111111111111 597.5,231.11111111111111" style="stroke-width: 62.2222; fill: none; stroke: rgb(191, 155, 105); stroke-opacity: 0.4;"><title>7</title></path><path class="link" d="M303.75,376.6666666666667C450.625,376.6666666666667 450.625,347.77777777777777 597.5,347.77777777777777" style="stroke-width: 44.4444; fill: none; stroke: rgb(191, 122, 105); stroke-opacity: 0.4;"><title>5</title></path><path class="link" d="M901.25,146.66666666666669C1048.125,146.66666666666669 1048.125,244.99999999999997 1195,244.99999999999997" style="stroke-width: 44.4444; fill: none; stroke: rgb(111, 105, 191); stroke-opacity: 0.4;"><title>5</title></path><path class="link" d="M303.75,237.77777777777774C450.625,237.77777777777774 450.625,307.77777777777777 597.5,307.77777777777777" style="stroke-width: 35.5556; fill: none; stroke: rgb(191, 155, 105); stroke-opacity: 0.4;"><title>4</title></path><path class="link" d="M602.5,338.88888888888886C749.375,338.88888888888886 749.375,301.1111111111111 896.25,301.1111111111111" style="stroke-width: 26.6667; fill: none; stroke: rgb(177, 191, 105); stroke-opacity: 0.4;"><title>3</title></path><path class="link" d="M901.25,196.66666666666666C1048.125,196.66666666666666 1048.125,276.1111111111111 1195,276.1111111111111" style="stroke-width: 17.7778; fill: none; stroke: rgb(191, 122, 105); stroke-opacity: 0.4;"><title>2</title></path><path class="link" d="M602.5,145.55555555555557C749.375,145.55555555555557 749.375,242.2222222222222 896.25,242.2222222222222" style="stroke-width: 17.7778; fill: none; stroke: rgb(144, 191, 105); stroke-opacity: 0.4;"><title>2</title></path><path class="link" d="M602.5,307.7777777777778C749.375,307.7777777777778 749.375,196.66666666666666 896.25,196.66666666666666" style="stroke-width: 17.7778; fill: none; stroke: rgb(177, 191, 105); stroke-opacity: 0.4;"><title>2</title></path><path class="link" d="M5,439.4444444444445C151.875,439.4444444444445 151.875,462.2222222222223 298.75,462.2222222222223" style="stroke-width: 17.7778; fill: none; stroke: rgb(191, 105, 105); stroke-opacity: 0.4;"><title>2</title></path><path class="link" d="M901.25,296.6666666666667C1048.125,296.6666666666667 1048.125,311.66666666666663 1195,311.66666666666663" style="stroke-width: 17.7778; fill: none; stroke: rgb(105, 166, 191); stroke-opacity: 0.4;"><title>2</title></path><path class="link" d="M901.25,260C1048.125,260 1048.125,293.88888888888886 1195,293.88888888888886" style="stroke-width: 17.7778; fill: none; stroke: rgb(105, 133, 191); stroke-opacity: 0.4;"><title>2</title></path><path class="link" d="M901.25,242.2222222222222C1048.125,242.2222222222222 1048.125,177.2222222222222 1195,177.2222222222222" style="stroke-width: 17.7778; fill: none; stroke: rgb(105, 133, 191); stroke-opacity: 0.4;"><title>2</title></path><path class="link" d="M5,476.1111111111112C151.875,476.1111111111112 151.875,425.55555555555554 298.75,425.55555555555554" style="stroke-width: 17.7778; fill: none; stroke: rgb(191, 122, 105); stroke-opacity: 0.4;"><title>2</title></path><path class="link" d="M303.75,453.33333333333337C450.625,453.33333333333337 450.625,397.7777777777778 597.5,397.7777777777778" style="stroke-width: 17.7778; fill: none; stroke: rgb(191, 188, 105); stroke-opacity: 0.4;"><title>2</title></path><path class="link" d="M303.75,430C450.625,430 450.625,515.5555555555557 597.5,515.5555555555557" style="stroke-width: 8.88889; fill: none; stroke: rgb(191, 122, 105); stroke-opacity: 0.4;"><title>1</title></path><path class="link" d="M602.5,365.55555555555554C749.375,365.55555555555554 749.375,451.11111111111126 896.25,451.11111111111126" style="stroke-width: 8.88889; fill: none; stroke: rgb(177, 191, 105); stroke-opacity: 0.4;"><title>1</title></path><path class="link" d="M303.75,412.22222222222223C450.625,412.22222222222223 450.625,440.00000000000006 597.5,440.00000000000006" style="stroke-width: 8.88889; fill: none; stroke: rgb(191, 122, 105); stroke-opacity: 0.4;"><title>1</title></path><path class="link" d="M602.5,321.11111111111114C749.375,321.11111111111114 749.375,255.55555555555554 896.25,255.55555555555554" style="stroke-width: 8.88889; fill: none; stroke: rgb(177, 191, 105); stroke-opacity: 0.4;"><title>1</title></path><path class="link" d="M602.5,294.44444444444446C749.375,294.44444444444446 749.375,164.44444444444446 896.25,164.44444444444446" style="stroke-width: 8.88889; fill: none; stroke: rgb(177, 191, 105); stroke-opacity: 0.4;"><title>1</title></path><path class="link" d="M602.5,356.6666666666667C749.375,356.6666666666667 749.375,432.22222222222234 896.25,432.22222222222234" style="stroke-width: 8.88889; fill: none; stroke: rgb(177, 191, 105); stroke-opacity: 0.4;"><title>1</title></path><path class="link" d="M602.5,402.22222222222223C749.375,402.22222222222223 749.375,413.3333333333334 896.25,413.3333333333334" style="stroke-width: 8.88889; fill: none; stroke: rgb(160, 191, 105); stroke-opacity: 0.4;"><title>1</title></path><path class="link" d="M602.5,384.44444444444446C749.375,384.44444444444446 749.375,264.44444444444446 896.25,264.44444444444446" style="stroke-width: 8.88889; fill: none; stroke: rgb(160, 191, 105); stroke-opacity: 0.4;"><title>1</title></path><path class="link" d="M602.5,393.33333333333337C749.375,393.33333333333337 749.375,375.5555555555556 896.25,375.5555555555556" style="stroke-width: 8.88889; fill: none; stroke: rgb(160, 191, 105); stroke-opacity: 0.4;"><title>1</title></path><path class="link" d="M602.5,158.8888888888889C749.375,158.8888888888889 749.375,328.8888888888889 896.25,328.8888888888889" style="stroke-width: 8.88889; fill: none; stroke: rgb(144, 191, 105); stroke-opacity: 0.4;"><title>1</title></path><path class="link" d="M303.75,350C450.625,350 450.625,266.6666666666667 597.5,266.6666666666667" style="stroke-width: 8.88889; fill: none; stroke: rgb(191, 122, 105); stroke-opacity: 0.4;"><title>1</title></path><path class="link" d="M602.5,176.66666666666669C749.375,176.66666666666669 749.375,394.4444444444445 896.25,394.4444444444445" style="stroke-width: 8.88889; fill: none; stroke: rgb(144, 191, 105); stroke-opacity: 0.4;"><title>1</title></path><path class="link" d="M303.75,259.99999999999994C450.625,259.99999999999994 450.625,384.44444444444446 597.5,384.44444444444446" style="stroke-width: 8.88889; fill: none; stroke: rgb(191, 155, 105); stroke-opacity: 0.4;"><title>1</title></path><path class="link" d="M5,452.7777777777778C151.875,452.7777777777778 151.875,485.5555555555556 298.75,485.5555555555556" style="stroke-width: 8.88889; fill: none; stroke: rgb(191, 105, 105); stroke-opacity: 0.4;"><title>1</title></path><path class="link" d="M602.5,167.7777777777778C749.375,167.7777777777778 749.375,356.6666666666667 896.25,356.6666666666667" style="stroke-width: 8.88889; fill: none; stroke: rgb(144, 191, 105); stroke-opacity: 0.4;"><title>1</title></path><path class="link" d="M602.5,185.55555555555557C749.375,185.55555555555557 749.375,470.00000000000017 896.25,470.00000000000017" style="stroke-width: 8.88889; fill: none; stroke: rgb(144, 191, 105); stroke-opacity: 0.4;"><title>1</title></path><path class="link" d="M602.5,275.55555555555554C749.375,275.55555555555554 749.375,507.777777777778 896.25,507.777777777778" style="stroke-width: 8.88889; fill: none; stroke: rgb(127, 191, 105); stroke-opacity: 0.4;"><title>1</title></path><path class="link" d="M901.25,545.5555555555558C1048.125,545.5555555555558 1048.125,360.55555555555554 1195,360.55555555555554" style="stroke-width: 8.88889; fill: none; stroke: rgb(191, 105, 122); stroke-opacity: 0.4;"><title>1</title></path><path class="link" d="M602.5,266.6666666666667C749.375,266.6666666666667 749.375,337.7777777777778 896.25,337.7777777777778" style="stroke-width: 8.88889; fill: none; stroke: rgb(127, 191, 105); stroke-opacity: 0.4;"><title>1</title></path><path class="link" d="M602.5,458.88888888888897C749.375,458.88888888888897 749.375,210 896.25,210" style="stroke-width: 8.88889; fill: none; stroke: rgb(111, 191, 105); stroke-opacity: 0.4;"><title>1</title></path><path class="link" d="M602.5,421.11111111111114C749.375,421.11111111111114 749.375,526.6666666666669 896.25,526.6666666666669" style="stroke-width: 8.88889; fill: none; stroke: rgb(105, 191, 116); stroke-opacity: 0.4;"><title>1</title></path><path class="link" d="M602.5,496.6666666666668C749.375,496.6666666666668 749.375,273.3333333333333 896.25,273.3333333333333" style="stroke-width: 8.88889; fill: none; stroke: rgb(105, 191, 133); stroke-opacity: 0.4;"><title>1</title></path><path class="link" d="M602.5,515.5555555555557C749.375,515.5555555555557 749.375,488.8888888888891 896.25,488.8888888888891" style="stroke-width: 8.88889; fill: none; stroke: rgb(105, 191, 149); stroke-opacity: 0.4;"><title>1</title></path><path class="link" d="M602.5,477.7777777777779C749.375,477.7777777777779 749.375,218.8888888888889 896.25,218.8888888888889" style="stroke-width: 8.88889; fill: none; stroke: rgb(105, 191, 166); stroke-opacity: 0.4;"><title>1</title></path><path class="link" d="M602.5,440.00000000000006C749.375,440.00000000000006 749.375,545.5555555555558 896.25,545.5555555555558" style="stroke-width: 8.88889; fill: none; stroke: rgb(105, 191, 182); stroke-opacity: 0.4;"><title>1</title></path><path class="link" d="M5,273.8888888888889C151.875,273.8888888888889 151.875,448.8888888888889 298.75,448.8888888888889" style="stroke-width: 8.88889; fill: none; stroke: rgb(191, 138, 105); stroke-opacity: 0.4;"><title>1</title></path><path class="link" d="M901.25,218.8888888888889C1048.125,218.8888888888889 1048.125,407.22222222222223 1195,407.22222222222223" style="stroke-width: 8.88889; fill: none; stroke: rgb(191, 122, 105); stroke-opacity: 0.4;"><title>1</title></path><path class="link" d="M901.25,183.33333333333334C1048.125,183.33333333333334 1048.125,163.88888888888889 1195,163.88888888888889" style="stroke-width: 8.88889; fill: none; stroke: rgb(191, 122, 105); stroke-opacity: 0.4;"><title>1</title></path><path class="link" d="M901.25,210C1048.125,210 1048.125,379.44444444444446 1195,379.44444444444446" style="stroke-width: 8.88889; fill: none; stroke: rgb(191, 122, 105); stroke-opacity: 0.4;"><title>1</title></path><path class="link" d="M901.25,451.11111111111126C1048.125,451.11111111111126 1048.125,333.88888888888886 1195,333.88888888888886" style="stroke-width: 8.88889; fill: none; stroke: rgb(105, 182, 191); stroke-opacity: 0.4;"><title>1</title></path><path class="link" d="M303.75,268.88888888888886C450.625,268.88888888888886 450.625,458.88888888888897 597.5,458.88888888888897" style="stroke-width: 8.88889; fill: none; stroke: rgb(191, 155, 105); stroke-opacity: 0.4;"><title>1</title></path><path class="link" d="M901.25,310C1048.125,310 1048.125,435 1195,435" style="stroke-width: 8.88889; fill: none; stroke: rgb(105, 166, 191); stroke-opacity: 0.4;"><title>1</title></path><path class="link" d="M901.25,413.3333333333334C1048.125,413.3333333333334 1048.125,416.11111111111114 1195,416.11111111111114" style="stroke-width: 8.88889; fill: none; stroke: rgb(105, 149, 191); stroke-opacity: 0.4;"><title>1</title></path><path class="link" d="M303.75,403.3333333333333C450.625,403.3333333333333 450.625,421.11111111111114 597.5,421.11111111111114" style="stroke-width: 8.88889; fill: none; stroke: rgb(191, 122, 105); stroke-opacity: 0.4;"><title>1</title></path><path class="link" d="M901.25,273.3333333333333C1048.125,273.3333333333333 1048.125,388.33333333333337 1195,388.33333333333337" style="stroke-width: 8.88889; fill: none; stroke: rgb(105, 133, 191); stroke-opacity: 0.4;"><title>1</title></path><path class="link" d="M303.75,485.5555555555556C450.625,485.5555555555556 450.625,275.55555555555554 597.5,275.55555555555554" style="stroke-width: 8.88889; fill: none; stroke: rgb(191, 171, 105); stroke-opacity: 0.4;"><title>1</title></path><path class="link" d="M901.25,328.8888888888889C1048.125,328.8888888888889 1048.125,491.66666666666674 1195,491.66666666666674" style="stroke-width: 8.88889; fill: none; stroke: rgb(105, 116, 191); stroke-opacity: 0.4;"><title>1</title></path><path class="link" d="M901.25,337.7777777777778C1048.125,337.7777777777778 1048.125,510.55555555555566 1195,510.55555555555566" style="stroke-width: 8.88889; fill: none; stroke: rgb(105, 116, 191); stroke-opacity: 0.4;"><title>1</title></path><path class="link" d="M303.75,421.1111111111111C450.625,421.1111111111111 450.625,496.6666666666668 597.5,496.6666666666668" style="stroke-width: 8.88889; fill: none; stroke: rgb(191, 122, 105); stroke-opacity: 0.4;"><title>1</title></path><path class="link" d="M303.75,466.6666666666667C450.625,466.6666666666667 450.625,477.7777777777779 597.5,477.7777777777779" style="stroke-width: 8.88889; fill: none; stroke: rgb(191, 188, 105); stroke-opacity: 0.4;"><title>1</title></path><path class="link" d="M901.25,507.777777777778C1048.125,507.777777777778 1048.125,199.44444444444443 1195,199.44444444444443" style="stroke-width: 8.88889; fill: none; stroke: rgb(127, 105, 191); stroke-opacity: 0.4;"><title>1</title></path><path class="link" d="M901.25,526.6666666666669C1048.125,526.6666666666669 1048.125,208.33333333333331 1195,208.33333333333331" style="stroke-width: 8.88889; fill: none; stroke: rgb(144, 105, 191); stroke-opacity: 0.4;"><title>1</title></path><path class="link" d="M901.25,394.4444444444445C1048.125,394.4444444444445 1048.125,190.55555555555554 1195,190.55555555555554" style="stroke-width: 8.88889; fill: none; stroke: rgb(160, 105, 191); stroke-opacity: 0.4;"><title>1</title></path><path class="link" d="M901.25,432.22222222222234C1048.125,432.22222222222234 1048.125,325 1195,325" style="stroke-width: 8.88889; fill: none; stroke: rgb(177, 105, 191); stroke-opacity: 0.4;"><title>1</title></path><path class="link" d="M901.25,488.8888888888891C1048.125,488.8888888888891 1048.125,351.66666666666663 1195,351.66666666666663" style="stroke-width: 8.88889; fill: none; stroke: rgb(191, 105, 188); stroke-opacity: 0.4;"><title>1</title></path><path class="link" d="M901.25,375.5555555555556C1048.125,375.5555555555556 1048.125,453.8888888888889 1195,453.8888888888889" style="stroke-width: 8.88889; fill: none; stroke: rgb(191, 105, 171); stroke-opacity: 0.4;"><title>1</title></path><path class="link" d="M901.25,356.6666666666667C1048.125,356.6666666666667 1048.125,472.7777777777778 1195,472.7777777777778" style="stroke-width: 8.88889; fill: none; stroke: rgb(191, 105, 155); stroke-opacity: 0.4;"><title>1</title></path><path class="link" d="M901.25,470.00000000000017C1048.125,470.00000000000017 1048.125,342.7777777777777 1195,342.7777777777777" style="stroke-width: 8.88889; fill: none; stroke: rgb(191, 105, 138); stroke-opacity: 0.4;"><title>1</title></path><path class="link" d="M602.5,132.22222222222223C749.375,132.22222222222223 749.375,183.33333333333334 896.25,183.33333333333334" style="stroke-width: 8.88889; fill: none; stroke: rgb(144, 191, 105); stroke-opacity: 0.4;"><title>1</title></path></g><g><g class="node" transform="translate(298.75,59.99999999999997)"><rect height="213.33333333333334" width="5"><title>befristet
24</title></rect><text x="11" y="106.66666666666667" dy=".35em" text-anchor="start" style="font-size: 11px; font-family: Arial, Helvetica; pointer-events: none;">befristet</text></g><g class="node" transform="translate(298.75,481.11111111111114)"><rect height="8.88888888888889" width="5"><title>befristet 
1</title></rect><text x="11" y="4.444444444444445" dy=".35em" text-anchor="start" style="font-size: 11px; font-family: Arial, Helvetica; pointer-events: none;">befristet </text></g><g class="node" transform="translate(298.75,283.3333333333333)"><rect height="151.11111111111111" width="5"><title>keine Angabe
17</title></rect><text x="11" y="75.55555555555556" dy=".35em" text-anchor="start" style="font-size: 11px; font-family: Arial, Helvetica; pointer-events: none;">keine Angabe</text></g><g class="node" transform="translate(298.75,444.44444444444446)"><rect height="26.666666666666668" width="5"><title>unbefristet
3</title></rect><text x="11" y="13.333333333333334" dy=".35em" text-anchor="start" style="font-size: 11px; font-family: Arial, Helvetica; pointer-events: none;">unbefristet</text></g><g class="node" transform="translate(0,467.2222222222223)"><rect height="17.77777777777778" width="5"><title>keine Angabe
2</title></rect><text x="11" y="8.88888888888889" dy=".35em" text-anchor="start" style="font-size: 11px; font-family: Arial, Helvetica; pointer-events: none;">keine Angabe</text></g><g class="node" transform="translate(0,288.33333333333337)"><rect height="168.88888888888889" width="5"><title>Teilzeit
19</title></rect><text x="11" y="84.44444444444444" dy=".35em" text-anchor="start" style="font-size: 11px; font-family: Arial, Helvetica; pointer-events: none;">Teilzeit</text></g><g class="node" transform="translate(0,65)"><rect height="213.33333333333334" width="5"><title>Vollzeit
24</title></rect><text x="11" y="106.66666666666667" dy=".35em" text-anchor="start" style="font-size: 11px; font-family: Arial, Helvetica; pointer-events: none;">Vollzeit</text></g><g class="node" transform="translate(1195,430.55555555555554)"><rect height="8.88888888888889" width="5" style="fill: rgb(102, 102, 102);"><title>E1-E7
1</title></rect><text x="-6" y="4.444444444444445" dy=".35em" text-anchor="end" style="font-size: 11px; font-family: Arial, Helvetica; pointer-events: none;">E1-E7</text></g><g class="node" transform="translate(1195,449.44444444444446)"><rect height="8.88888888888889" width="5" style="fill: rgb(102, 102, 102);"><title>E11
1</title></rect><text x="-6" y="4.444444444444445" dy=".35em" text-anchor="end" style="font-size: 11px; font-family: Arial, Helvetica; pointer-events: none;">E11</text></g><g class="node" transform="translate(1195,375)"><rect height="17.77777777777778" width="5" style="fill: rgb(102, 102, 102);"><title>E12
2</title></rect><text x="-6" y="8.88888888888889" dy=".35em" text-anchor="end" style="font-size: 11px; font-family: Arial, Helvetica; pointer-events: none;">E12</text></g><g class="node" transform="translate(1195,34.99999999999997)"><rect height="177.77777777777777" width="5" style="fill: rgb(102, 102, 102);"><title>E13
20</title></rect><text x="-6" y="88.88888888888889" dy=".35em" text-anchor="end" style="font-size: 11px; font-family: Arial, Helvetica; pointer-events: none;">E13</text></g><g class="node" transform="translate(1195,468.33333333333337)"><rect height="8.88888888888889" width="5" style="fill: rgb(102, 102, 102);"><title>E14
1</title></rect><text x="-6" y="4.444444444444445" dy=".35em" text-anchor="end" style="font-size: 11px; font-family: Arial, Helvetica; pointer-events: none;">E14</text></g><g class="node" transform="translate(1195,487.2222222222223)"><rect height="8.88888888888889" width="5" style="fill: rgb(102, 102, 102);"><title>E15
1</title></rect><text x="-6" y="4.444444444444445" dy=".35em" text-anchor="end" style="font-size: 11px; font-family: Arial, Helvetica; pointer-events: none;">E15</text></g><g class="node" transform="translate(1195,402.77777777777777)"><rect height="17.77777777777778" width="5" style="fill: rgb(102, 102, 102);"><title>E9
2</title></rect><text x="-6" y="8.88888888888889" dy=".35em" text-anchor="end" style="font-size: 11px; font-family: Arial, Helvetica; pointer-events: none;">E9</text></g><g class="node" transform="translate(1195,222.77777777777774)"><rect height="142.22222222222223" width="5" style="fill: rgb(102, 102, 102);"><title>keine Angabe
16</title></rect><text x="-6" y="71.11111111111111" dy=".35em" text-anchor="end" style="font-size: 11px; font-family: Arial, Helvetica; pointer-events: none;">keine Angabe</text></g><g class="node" transform="translate(1195,506.1111111111112)"><rect height="8.88888888888889" width="5" style="fill: rgb(102, 102, 102);"><title>W2
1</title></rect><text x="-6" y="4.444444444444445" dy=".35em" text-anchor="end" style="font-size: 11px; font-family: Arial, Helvetica; pointer-events: none;">W2</text></g><g class="node" transform="translate(896.25,371.11111111111114)"><rect height="8.88888888888889" width="5"><title>DBA ECMA
1</title></rect><text x="-6" y="4.444444444444445" dy=".35em" text-anchor="end" style="font-size: 11px; font-family: Arial, Helvetica; pointer-events: none;">DBA ECMA</text></g><g class="node" transform="translate(896.25,408.88888888888897)"><rect height="8.88888888888889" width="5"><title>Dipl.-Bibliothekar_in
1</title></rect><text x="-6" y="4.444444444444445" dy=".35em" text-anchor="end" style="font-size: 11px; font-family: Arial, Helvetica; pointer-events: none;">Dipl.-Bibliothekar_in</text></g><g class="node" transform="translate(896.25,390.00000000000006)"><rect height="8.88888888888889" width="5"><title>Forschungsdatenreferent_in
1</title></rect><text x="-6" y="4.444444444444445" dy=".35em" text-anchor="end" style="font-size: 11px; font-family: Arial, Helvetica; pointer-events: none;">Forschungsdatenreferent_in</text></g><g class="node" transform="translate(896.25,465.5555555555557)"><rect height="8.88888888888889" width="5"><title>Insitutsassistent_in
1</title></rect><text x="-6" y="4.444444444444445" dy=".35em" text-anchor="end" style="font-size: 11px; font-family: Arial, Helvetica; pointer-events: none;">Insitutsassistent_in</text></g><g class="node" transform="translate(896.25,503.33333333333354)"><rect height="8.88888888888889" width="5"><title>IT-Referent_in
1</title></rect><text x="-6" y="4.444444444444445" dy=".35em" text-anchor="end" style="font-size: 11px; font-family: Arial, Helvetica; pointer-events: none;">IT-Referent_in</text></g><g class="node" transform="translate(896.25,352.22222222222223)"><rect height="8.88888888888889" width="5"><title>Juniorprofessor_in
1</title></rect><text x="-6" y="4.444444444444445" dy=".35em" text-anchor="end" style="font-size: 11px; font-family: Arial, Helvetica; pointer-events: none;">Juniorprofessor_in</text></g><g class="node" transform="translate(896.25,178.88888888888889)"><rect height="44.44444444444444" width="5"><title>keine Angabe
5</title></rect><text x="-6" y="22.22222222222222" dy=".35em" text-anchor="end" style="font-size: 11px; font-family: Arial, Helvetica; pointer-events: none;">keine Angabe</text></g><g class="node" transform="translate(896.25,324.44444444444446)"><rect height="17.77777777777778" width="5"><title>Professor_in
2</title></rect><text x="-6" y="8.88888888888889" dy=".35em" text-anchor="end" style="font-size: 11px; font-family: Arial, Helvetica; pointer-events: none;">Professor_in</text></g><g class="node" transform="translate(896.25,541.1111111111113)"><rect height="8.88888888888889" width="5"><title>Projektkommunikation und Beratung
1</title></rect><text x="-6" y="4.444444444444445" dy=".35em" text-anchor="end" style="font-size: 11px; font-family: Arial, Helvetica; pointer-events: none;">Projektkommunikation und Beratung</text></g><g class="node" transform="translate(896.25,427.7777777777779)"><rect height="8.88888888888889" width="5"><title>Promotionsstudent_in
1</title></rect><text x="-6" y="4.444444444444445" dy=".35em" text-anchor="end" style="font-size: 11px; font-family: Arial, Helvetica; pointer-events: none;">Promotionsstudent_in</text></g><g class="node" transform="translate(896.25,446.6666666666668)"><rect height="8.88888888888889" width="5"><title>SHK
1</title></rect><text x="-6" y="4.444444444444445" dy=".35em" text-anchor="end" style="font-size: 11px; font-family: Arial, Helvetica; pointer-events: none;">SHK</text></g><g class="node" transform="translate(896.25,233.33333333333331)"><rect height="44.44444444444444" width="5"><title>Softwareentwickler_in
5</title></rect><text x="-6" y="22.22222222222222" dy=".35em" text-anchor="end" style="font-size: 11px; font-family: Arial, Helvetica; pointer-events: none;">Softwareentwickler_in</text></g><g class="node" transform="translate(896.25,484.4444444444446)"><rect height="8.88888888888889" width="5"><title>Underwriter_in
1</title></rect><text x="-6" y="4.444444444444445" dy=".35em" text-anchor="end" style="font-size: 11px; font-family: Arial, Helvetica; pointer-events: none;">Underwriter_in</text></g><g class="node" transform="translate(896.25,287.77777777777777)"><rect height="26.666666666666668" width="5"><title>WHK
3</title></rect><text x="-6" y="13.333333333333334" dy=".35em" text-anchor="end" style="font-size: 11px; font-family: Arial, Helvetica; pointer-events: none;">WHK</text></g><g class="node" transform="translate(896.25,522.2222222222224)"><rect height="8.88888888888889" width="5"><title>Wiss. Bibliothekar_in
1</title></rect><text x="-6" y="4.444444444444445" dy=".35em" text-anchor="end" style="font-size: 11px; font-family: Arial, Helvetica; pointer-events: none;">Wiss. Bibliothekar_in</text></g><g class="node" transform="translate(896.25,0)"><rect height="168.88888888888889" width="5"><title>WMA
19</title></rect><text x="-6" y="84.44444444444444" dy=".35em" text-anchor="end" style="font-size: 11px; font-family: Arial, Helvetica; pointer-events: none;">WMA</text></g><g class="node" transform="translate(597.5,200)"><rect height="80" width="5"><title>Akademie
9</title></rect><text x="11" y="40" dy=".35em" text-anchor="start" style="font-size: 11px; font-family: Arial, Helvetica; pointer-events: none;">Akademie</text></g><g class="node" transform="translate(597.5,416.6666666666667)"><rect height="8.88888888888889" width="5"><title>Bibliothek
1</title></rect><text x="11" y="4.444444444444445" dy=".35em" text-anchor="start" style="font-size: 11px; font-family: Arial, Helvetica; pointer-events: none;">Bibliothek</text></g><g class="node" transform="translate(597.5,435.5555555555556)"><rect height="8.88888888888889" width="5"><title>freiberuflich
1</title></rect><text x="11" y="4.444444444444445" dy=".35em" text-anchor="start" style="font-size: 11px; font-family: Arial, Helvetica; pointer-events: none;">freiberuflich</text></g><g class="node" transform="translate(597.5,454.4444444444445)"><rect height="8.88888888888889" width="5"><title>Leibniz-Gemeinschaft
1</title></rect><text x="11" y="4.444444444444445" dy=".35em" text-anchor="start" style="font-size: 11px; font-family: Arial, Helvetica; pointer-events: none;">Leibniz-Gemeinschaft</text></g><g class="node" transform="translate(597.5,473.3333333333334)"><rect height="8.88888888888889" width="5"><title>Max-Planck-Gesellschaft
1</title></rect><text x="11" y="4.444444444444445" dy=".35em" text-anchor="start" style="font-size: 11px; font-family: Arial, Helvetica; pointer-events: none;">Max-Planck-Gesellschaft</text></g><g class="node" transform="translate(597.5,380)"><rect height="26.666666666666668" width="5"><title>Öffentliche Verwaltung
3</title></rect><text x="11" y="13.333333333333334" dy=".35em" text-anchor="start" style="font-size: 11px; font-family: Arial, Helvetica; pointer-events: none;">Öffentliche Verwaltung</text></g><g class="node" transform="translate(597.5,492.22222222222234)"><rect height="8.88888888888889" width="5"><title>Stiftung
1</title></rect><text x="11" y="4.444444444444445" dy=".35em" text-anchor="start" style="font-size: 11px; font-family: Arial, Helvetica; pointer-events: none;">Stiftung</text></g><g class="node" transform="translate(597.5,290)"><rect height="80" width="5"><title>Student/Promotionsstudent
9</title></rect><text x="11" y="40" dy=".35em" text-anchor="start" style="font-size: 11px; font-family: Arial, Helvetica; pointer-events: none;">Student/Promotionsstudent</text></g><g class="node" transform="translate(597.5,30)"><rect height="160" width="5"><title>Universität
18</title></rect><text x="11" y="80" dy=".35em" text-anchor="start" style="font-size: 11px; font-family: Arial, Helvetica; pointer-events: none;">Universität</text></g><g class="node" transform="translate(597.5,511.11111111111126)"><rect height="8.88888888888889" width="5"><title>Wirtschaft
1</title></rect><text x="11" y="4.444444444444445" dy=".35em" text-anchor="start" style="font-size: 11px; font-family: Arial, Helvetica; pointer-events: none;">Wirtschaft</text></g></g></g></svg>