<svg width="847" height="620" xmlns="http://www.w3.org/2000/svg" version="1.1"><g transform="translate(0,10)"><g><path class="link" d="M5,159.44C213,159.44 213,144.44 421,144.44" style="stroke-width: 218.88; fill: none; stroke: rgb(191, 105, 105); stroke-opacity: 0.4;"><title>57</title></path><path class="link" d="M5,330.32C213,330.32 213,367.56 421,367.56" style="stroke-width: 122.88; fill: none; stroke: rgb(191, 105, 105); stroke-opacity: 0.4;"><title>32</title></path><path class="link" d="M426,75.32C634,75.32 634,40.31999999999994 842,40.31999999999994" style="stroke-width: 80.64; fill: none; stroke: rgb(105, 126, 191); stroke-opacity: 0.4;"><title>21</title></path><path class="link" d="M426,344.52C634,344.52 634,129.03999999999994 842,129.03999999999994" style="stroke-width: 76.8; fill: none; stroke: rgb(105, 191, 126); stroke-opacity: 0.4;"><title>20</title></path><path class="link" d="M426,132.92000000000002C634,132.92000000000002 634,194.71999999999994 842,194.71999999999994" style="stroke-width: 34.56; fill: none; stroke: rgb(105, 126, 191); stroke-opacity: 0.4;"><title>9</title></path><path class="link" d="M5,530.8000000000001C213,530.8000000000001 213,280.76 421,280.76" style="stroke-width: 30.72; fill: none; stroke: rgb(191, 169, 105); stroke-opacity: 0.4;"><title>8</title></path><path class="link" d="M426,165.56C634,165.56 634,260.3999999999999 842,260.3999999999999" style="stroke-width: 30.72; fill: none; stroke: rgb(105, 126, 191); stroke-opacity: 0.4;"><title>8</title></path><path class="link" d="M5,468.96C213,468.96 213,442.44 421,442.44" style="stroke-width: 26.88; fill: none; stroke: rgb(148, 191, 105); stroke-opacity: 0.4;"><title>7</title></path><path class="link" d="M426,194.36C634,194.36 634,318.3999999999999 842,318.3999999999999" style="stroke-width: 26.88; fill: none; stroke: rgb(105, 126, 191); stroke-opacity: 0.4;"><title>7</title></path><path class="link" d="M426,436.67999999999995C634,436.67999999999995 634,417.1199999999999 842,417.1199999999999" style="stroke-width: 23.04; fill: none; stroke: rgb(105, 191, 126); stroke-opacity: 0.4;"><title>6</title></path><path class="link" d="M426,413.64C634,413.64 634,384.07999999999987 842,384.07999999999987" style="stroke-width: 23.04; fill: none; stroke: rgb(105, 191, 126); stroke-opacity: 0.4;"><title>6</title></path><path class="link" d="M426,510.44C634,510.44 634,223.51999999999995 842,223.51999999999995" style="stroke-width: 23.04; fill: none; stroke: rgb(191, 105, 169); stroke-opacity: 0.4;"><title>6</title></path><path class="link" d="M5,403.28C213,403.28 213,510.44 421,510.44" style="stroke-width: 23.04; fill: none; stroke: rgb(191, 105, 105); stroke-opacity: 0.4;"><title>6</title></path><path class="link" d="M426,477.4C634,477.4 634,453.9999999999999 842,453.9999999999999" style="stroke-width: 23.04; fill: none; stroke: rgb(148, 105, 191); stroke-opacity: 0.4;"><title>6</title></path><path class="link" d="M5,493.91999999999996C213,493.91999999999996 213,477.4 421,477.4" style="stroke-width: 23.04; fill: none; stroke: rgb(148, 191, 105); stroke-opacity: 0.4;"><title>6</title></path><path class="link" d="M426,248.12C634,248.12 634,514.3199999999999 842,514.3199999999999" style="stroke-width: 19.2; fill: none; stroke: rgb(105, 126, 191); stroke-opacity: 0.4;"><title>5</title></path><path class="link" d="M426,392.52000000000004C634,392.52000000000004 634,285.35999999999996 842,285.35999999999996" style="stroke-width: 19.2; fill: none; stroke: rgb(105, 191, 126); stroke-opacity: 0.4;"><title>5</title></path><path class="link" d="M426,541.5600000000001C634,541.5600000000001 634,341.43999999999994 842,341.43999999999994" style="stroke-width: 19.2; fill: none; stroke: rgb(105, 191, 191); stroke-opacity: 0.4;"><title>5</title></path><path class="link" d="M426,267.32000000000005C634,267.32000000000005 634,543.52 842,543.52" style="stroke-width: 19.2; fill: none; stroke: rgb(105, 126, 191); stroke-opacity: 0.4;"><title>5</title></path><path class="link" d="M426,286.52C634,286.52 634,572.72 842,572.72" style="stroke-width: 19.2; fill: none; stroke: rgb(105, 126, 191); stroke-opacity: 0.4;"><title>5</title></path><path class="link" d="M5,424.40000000000003C213,424.40000000000003 213,541.5600000000001 421,541.5600000000001" style="stroke-width: 19.2; fill: none; stroke: rgb(191, 105, 105); stroke-opacity: 0.4;"><title>5</title></path><path class="link" d="M426,228.92000000000002C634,228.92000000000002 634,485.11999999999995 842,485.11999999999995" style="stroke-width: 19.2; fill: none; stroke: rgb(105, 126, 191); stroke-opacity: 0.4;"><title>5</title></path><path class="link" d="M5,449.76C213,449.76 213,259.64 421,259.64" style="stroke-width: 11.52; fill: none; stroke: rgb(148, 191, 105); stroke-opacity: 0.4;"><title>3</title></path><path class="link" d="M426,213.56C634,213.56 634,366.7999999999999 842,366.7999999999999" style="stroke-width: 11.52; fill: none; stroke: rgb(105, 126, 191); stroke-opacity: 0.4;"><title>3</title></path><path class="link" d="M426,452.03999999999996C634,452.03999999999996 634,596.1600000000001 842,596.1600000000001" style="stroke-width: 7.68; fill: none; stroke: rgb(105, 191, 126); stroke-opacity: 0.4;"><title>2</title></path><path class="link" d="M5,548.08C213,548.08 213,563.08 421,563.08" style="stroke-width: 3.84; fill: none; stroke: rgb(191, 169, 105); stroke-opacity: 0.4;"><title>1</title></path><path class="link" d="M426,563.08C634,563.08 634,430.55999999999995 842,430.55999999999995" style="stroke-width: 3.84; fill: none; stroke: rgb(191, 169, 105); stroke-opacity: 0.4;"><title>1</title></path></g><g><g class="node" transform="translate(421,531.96)"><rect height="19.2" width="5"><title>18 bis 24 Jahre
5</title></rect><text x="11" y="9.6" dy=".35em" text-anchor="start" style="font-size: 11px; font-family: Arial, Helvetica; pointer-events: none;">18 bis 24 Jahre</text></g><g class="node" transform="translate(421,306.12)"><rect height="149.76" width="5"><title>25 bis 34 Jahre
39</title></rect><text x="11" y="74.88" dy=".35em" text-anchor="start" style="font-size: 11px; font-family: Arial, Helvetica; pointer-events: none;">25 bis 34 Jahre</text></g><g class="node" transform="translate(421,35)"><rect height="261.12" width="5"><title>35 bis 44 Jahre
68</title></rect><text x="11" y="130.56" dy=".35em" text-anchor="start" style="font-size: 11px; font-family: Arial, Helvetica; pointer-events: none;">35 bis 44 Jahre</text></g><g class="node" transform="translate(421,465.88)"><rect height="23.04" width="5"><title>45 bis 54 Jahre
6</title></rect><text x="11" y="11.52" dy=".35em" text-anchor="start" style="font-size: 11px; font-family: Arial, Helvetica; pointer-events: none;">45 bis 54 Jahre</text></g><g class="node" transform="translate(421,498.92)"><rect height="23.04" width="5"><title>55 bis 64 Jahre
6</title></rect><text x="11" y="11.52" dy=".35em" text-anchor="start" style="font-size: 11px; font-family: Arial, Helvetica; pointer-events: none;">55 bis 64 Jahre</text></g><g class="node" transform="translate(421,561.1600000000001)"><rect height="3.84" width="5"><title>Keine Angabe
1</title></rect><text x="11" y="1.92" dy=".35em" text-anchor="start" style="font-size: 11px; font-family: Arial, Helvetica; pointer-events: none;">Keine Angabe</text></g><g class="node" transform="translate(0,515.44)"><rect height="34.56" width="5"><title>Keine Angabe
9</title></rect><text x="11" y="17.28" dy=".35em" text-anchor="start" style="font-size: 11px; font-family: Arial, Helvetica; pointer-events: none;">Keine Angabe</text></g><g class="node" transform="translate(0,50)"><rect height="384" width="5"><title>männlich
100</title></rect><text x="11" y="192" dy=".35em" text-anchor="start" style="font-size: 11px; font-family: Arial, Helvetica; pointer-events: none;">männlich</text></g><g class="node" transform="translate(0,444)"><rect height="61.44" width="5"><title>weiblich
16</title></rect><text x="11" y="30.72" dy=".35em" text-anchor="start" style="font-size: 11px; font-family: Arial, Helvetica; pointer-events: none;">weiblich</text></g><g class="node" transform="translate(842,405.5999999999999)"><rect height="26.88" width="5" style="fill: rgb(102, 102, 102);"><title>1
7</title></rect><text x="-6" y="13.44" dy=".35em" text-anchor="end" style="font-size: 11px; font-family: Arial, Helvetica; pointer-events: none;">1</text></g><g class="node" transform="translate(842,245.03999999999994)"><rect height="49.92" width="5" style="fill: rgb(102, 102, 102);"><title>12
13</title></rect><text x="-6" y="24.96" dy=".35em" text-anchor="end" style="font-size: 11px; font-family: Arial, Helvetica; pointer-events: none;">12</text></g><g class="node" transform="translate(842,504.7199999999999)"><rect height="19.2" width="5" style="fill: rgb(102, 102, 102);"><title>13
5</title></rect><text x="-6" y="9.6" dy=".35em" text-anchor="end" style="font-size: 11px; font-family: Arial, Helvetica; pointer-events: none;">13</text></g><g class="node" transform="translate(842,177.43999999999994)"><rect height="57.599999999999994" width="5" style="fill: rgb(102, 102, 102);"><title>15
15</title></rect><text x="-6" y="28.799999999999997" dy=".35em" text-anchor="end" style="font-size: 11px; font-family: Arial, Helvetica; pointer-events: none;">15</text></g><g class="node" transform="translate(842,442.4799999999999)"><rect height="23.04" width="5" style="fill: rgb(102, 102, 102);"><title>18
6</title></rect><text x="-6" y="11.52" dy=".35em" text-anchor="end" style="font-size: 11px; font-family: Arial, Helvetica; pointer-events: none;">18</text></g><g class="node" transform="translate(842,361.0399999999999)"><rect height="34.56" width="5" style="fill: rgb(102, 102, 102);"><title>2
9</title></rect><text x="-6" y="17.28" dy=".35em" text-anchor="end" style="font-size: 11px; font-family: Arial, Helvetica; pointer-events: none;">2</text></g><g class="node" transform="translate(842,-5.684341886080802e-14)"><rect height="80.64" width="5" style="fill: rgb(102, 102, 102);"><title>20
21</title></rect><text x="-6" y="40.32" dy=".35em" text-anchor="end" style="font-size: 11px; font-family: Arial, Helvetica; pointer-events: none;">20</text></g><g class="node" transform="translate(842,475.5199999999999)"><rect height="19.2" width="5" style="fill: rgb(102, 102, 102);"><title>28
5</title></rect><text x="-6" y="9.6" dy=".35em" text-anchor="end" style="font-size: 11px; font-family: Arial, Helvetica; pointer-events: none;">28</text></g><g class="node" transform="translate(842,90.63999999999994)"><rect height="76.8" width="5" style="fill: rgb(102, 102, 102);"><title>3
20</title></rect><text x="-6" y="38.4" dy=".35em" text-anchor="end" style="font-size: 11px; font-family: Arial, Helvetica; pointer-events: none;">3</text></g><g class="node" transform="translate(842,592.32)"><rect height="7.68" width="5" style="fill: rgb(102, 102, 102);"><title>4
2</title></rect><text x="-6" y="3.84" dy=".35em" text-anchor="end" style="font-size: 11px; font-family: Arial, Helvetica; pointer-events: none;">4</text></g><g class="node" transform="translate(842,304.9599999999999)"><rect height="46.08" width="5" style="fill: rgb(102, 102, 102);"><title>5
12</title></rect><text x="-6" y="23.04" dy=".35em" text-anchor="end" style="font-size: 11px; font-family: Arial, Helvetica; pointer-events: none;">5</text></g><g class="node" transform="translate(842,533.92)"><rect height="19.2" width="5" style="fill: rgb(102, 102, 102);"><title>6
5</title></rect><text x="-6" y="9.6" dy=".35em" text-anchor="end" style="font-size: 11px; font-family: Arial, Helvetica; pointer-events: none;">6</text></g><g class="node" transform="translate(842,563.12)"><rect height="19.2" width="5" style="fill: rgb(102, 102, 102);"><title>7
5</title></rect><text x="-6" y="9.6" dy=".35em" text-anchor="end" style="font-size: 11px; font-family: Arial, Helvetica; pointer-events: none;">7</text></g></g></g></svg>