<svg width="800" height="570" xmlns="http://www.w3.org/2000/svg" version="1.1"><g transform="translate(0,10)"><g><path class="link" d="M5,101.44444444444444C135,101.44444444444444 135,86.44444444444444 265,86.44444444444444" style="stroke-width: 132.889; fill: none; stroke: rgb(191, 105, 105); stroke-opacity: 0.4;"><title>13</title></path><path class="link" d="M270,81.33333333333333C400,81.33333333333333 400,86.33333333333333 530,86.33333333333333" style="stroke-width: 122.667; fill: none; stroke: rgb(105, 191, 171); stroke-opacity: 0.4;"><title>12</title></path><path class="link" d="M270,285.55555555555554C400,285.55555555555554 400,209 530,209" style="stroke-width: 122.667; fill: none; stroke: rgb(118, 191, 105); stroke-opacity: 0.4;"><title>12</title></path><path class="link" d="M535,81.22222222222221C665,81.22222222222221 665,56.222222222222214 795,56.222222222222214" style="stroke-width: 112.444; fill: none; stroke: rgb(191, 105, 184); stroke-opacity: 0.4;"><title>11</title></path><path class="link" d="M5,219C135,219 135,275.3333333333333 265,275.3333333333333" style="stroke-width: 102.222; fill: none; stroke: rgb(191, 105, 105); stroke-opacity: 0.4;"><title>10</title></path><path class="link" d="M270,178.44444444444443C400,178.44444444444443 400,336.55555555555554 530,336.55555555555554" style="stroke-width: 71.5556; fill: none; stroke: rgb(105, 191, 171); stroke-opacity: 0.4;"><title>7</title></path><path class="link" d="M5,397.6666666666667C135,397.6666666666667 135,362.2222222222222 265,362.2222222222222" style="stroke-width: 71.5556; fill: none; stroke: rgb(191, 184, 105); stroke-opacity: 0.4;"><title>7</title></path><path class="link" d="M535,173.2222222222222C665,173.2222222222222 665,229.77777777777777 795,229.77777777777777" style="stroke-width: 71.5556; fill: none; stroke: rgb(191, 105, 184); stroke-opacity: 0.4;"><title>7</title></path><path class="link" d="M535,331.44444444444446C665,331.44444444444446 665,143.1111111111111 795,143.1111111111111" style="stroke-width: 61.3333; fill: none; stroke: rgb(191, 105, 145); stroke-opacity: 0.4;"><title>6</title></path><path class="link" d="M535,443.66666666666663C665,443.66666666666663 665,347.11111111111114 795,347.11111111111114" style="stroke-width: 40.8889; fill: none; stroke: rgb(118, 105, 191); stroke-opacity: 0.4;"><title>4</title></path><path class="link" d="M5,341.44444444444446C135,341.44444444444446 135,173.33333333333331 265,173.33333333333331" style="stroke-width: 40.8889; fill: none; stroke: rgb(191, 184, 105); stroke-opacity: 0.4;"><title>4</title></path><path class="link" d="M535,224.33333333333331C665,224.33333333333331 665,311.3333333333333 795,311.3333333333333" style="stroke-width: 30.6667; fill: none; stroke: rgb(191, 105, 184); stroke-opacity: 0.4;"><title>3</title></path><path class="link" d="M270,372.4444444444444C400,372.4444444444444 400,438.5555555555555 530,438.5555555555555" style="stroke-width: 30.6667; fill: none; stroke: rgb(118, 191, 105); stroke-opacity: 0.4;"><title>3</title></path><path class="link" d="M5,448.77777777777777C135,448.77777777777777 135,423.3333333333333 265,423.3333333333333" style="stroke-width: 30.6667; fill: none; stroke: rgb(191, 184, 105); stroke-opacity: 0.4;"><title>3</title></path><path class="link" d="M5,300.77777777777777C135,300.77777777777777 135,489.33333333333337 265,489.33333333333337" style="stroke-width: 20.4444; fill: none; stroke: rgb(191, 105, 105); stroke-opacity: 0.4;"><title>2</title></path><path class="link" d="M5,280.3333333333333C135,280.3333333333333 135,458.8888888888889 265,458.8888888888889" style="stroke-width: 20.4444; fill: none; stroke: rgb(191, 105, 105); stroke-opacity: 0.4;"><title>2</title></path><path class="link" d="M535,494.5555555555555C665,494.5555555555555 665,377.77777777777777 795,377.77777777777777" style="stroke-width: 20.4444; fill: none; stroke: rgb(105, 131, 191); stroke-opacity: 0.4;"><title>2</title></path><path class="link" d="M270,428.44444444444446C400,428.44444444444446 400,392.77777777777777 530,392.77777777777777" style="stroke-width: 20.4444; fill: none; stroke: rgb(105, 171, 191); stroke-opacity: 0.4;"><title>2</title></path><path class="link" d="M5,504.77777777777777C135,504.77777777777777 135,519.7777777777778 265,519.7777777777778" style="stroke-width: 20.4444; fill: none; stroke: rgb(191, 145, 105); stroke-opacity: 0.4;"><title>2</title></path><path class="link" d="M5,484.3333333333333C135,484.3333333333333 135,204 265,204" style="stroke-width: 20.4444; fill: none; stroke: rgb(191, 145, 105); stroke-opacity: 0.4;"><title>2</title></path><path class="link" d="M535,372.3333333333333C665,372.3333333333333 665,275.77777777777777 795,275.77777777777777" style="stroke-width: 20.4444; fill: none; stroke: rgb(191, 105, 145); stroke-opacity: 0.4;"><title>2</title></path><path class="link" d="M270,484.22222222222223C400,484.22222222222223 400,408.1111111111111 530,408.1111111111111" style="stroke-width: 10.2222; fill: none; stroke: rgb(105, 191, 131); stroke-opacity: 0.4;"><title>1</title></path><path class="link" d="M270,494.44444444444446C400,494.44444444444446 400,519.8888888888888 530,519.8888888888888" style="stroke-width: 10.2222; fill: none; stroke: rgb(105, 191, 131); stroke-opacity: 0.4;"><title>1</title></path><path class="link" d="M270,514.6666666666667C400,514.6666666666667 400,285.66666666666663 530,285.66666666666663" style="stroke-width: 10.2222; fill: none; stroke: rgb(191, 145, 105); stroke-opacity: 0.4;"><title>1</title></path><path class="link" d="M270,524.8888888888889C400,524.8888888888889 400,469.2222222222222 530,469.2222222222222" style="stroke-width: 10.2222; fill: none; stroke: rgb(191, 145, 105); stroke-opacity: 0.4;"><title>1</title></path><path class="link" d="M535,469.2222222222222C665,469.2222222222222 665,423.55555555555554 795,423.55555555555554" style="stroke-width: 10.2222; fill: none; stroke: rgb(118, 105, 191); stroke-opacity: 0.4;"><title>1</title></path><path class="link" d="M535,519.8888888888888C665,519.8888888888888 665,178.88888888888889 795,178.88888888888889" style="stroke-width: 10.2222; fill: none; stroke: rgb(158, 105, 191); stroke-opacity: 0.4;"><title>1</title></path><path class="link" d="M270,351.99999999999994C400,351.99999999999994 400,377.4444444444444 530,377.4444444444444" style="stroke-width: 10.2222; fill: none; stroke: rgb(118, 191, 105); stroke-opacity: 0.4;"><title>1</title></path><path class="link" d="M270,392.8888888888888C400,392.8888888888888 400,489.44444444444434 530,489.44444444444434" style="stroke-width: 10.2222; fill: none; stroke: rgb(118, 191, 105); stroke-opacity: 0.4;"><title>1</title></path><path class="link" d="M270,453.77777777777777C400,453.77777777777777 400,458.99999999999994 530,458.99999999999994" style="stroke-width: 10.2222; fill: none; stroke: rgb(158, 191, 105); stroke-opacity: 0.4;"><title>1</title></path><path class="link" d="M270,413.1111111111111C400,413.1111111111111 400,275.4444444444444 530,275.4444444444444" style="stroke-width: 10.2222; fill: none; stroke: rgb(105, 171, 191); stroke-opacity: 0.4;"><title>1</title></path><path class="link" d="M535,244.77777777777774C665,244.77777777777774 665,403.1111111111111 795,403.1111111111111" style="stroke-width: 10.2222; fill: none; stroke: rgb(191, 105, 184); stroke-opacity: 0.4;"><title>1</title></path><path class="link" d="M535,254.99999999999997C665,254.99999999999997 665,443.77777777777777 795,443.77777777777777" style="stroke-width: 10.2222; fill: none; stroke: rgb(191, 105, 184); stroke-opacity: 0.4;"><title>1</title></path><path class="link" d="M535,275.4444444444444C665,275.4444444444444 665,524.6666666666666 795,524.6666666666666" style="stroke-width: 10.2222; fill: none; stroke: rgb(191, 105, 184); stroke-opacity: 0.4;"><title>1</title></path><path class="link" d="M535,285.66666666666663C665,285.66666666666663 665,544.8888888888888 795,544.8888888888888" style="stroke-width: 10.2222; fill: none; stroke: rgb(191, 105, 184); stroke-opacity: 0.4;"><title>1</title></path><path class="link" d="M535,387.66666666666663C665,387.66666666666663 665,413.3333333333333 795,413.3333333333333" style="stroke-width: 10.2222; fill: none; stroke: rgb(191, 105, 145); stroke-opacity: 0.4;"><title>1</title></path><path class="link" d="M270,464C400,464 400,499.6666666666666 530,499.6666666666666" style="stroke-width: 10.2222; fill: none; stroke: rgb(158, 191, 105); stroke-opacity: 0.4;"><title>1</title></path><path class="link" d="M535,408.1111111111111C665,408.1111111111111 665,504.44444444444446 795,504.44444444444446" style="stroke-width: 10.2222; fill: none; stroke: rgb(191, 105, 145); stroke-opacity: 0.4;"><title>1</title></path><path class="link" d="M535,397.88888888888886C665,397.88888888888886 665,464 795,464" style="stroke-width: 10.2222; fill: none; stroke: rgb(191, 105, 145); stroke-opacity: 0.4;"><title>1</title></path><path class="link" d="M535,265.2222222222222C665,265.2222222222222 665,484.22222222222223 795,484.22222222222223" style="stroke-width: 10.2222; fill: none; stroke: rgb(191, 105, 184); stroke-opacity: 0.4;"><title>1</title></path></g><g><g class="node" transform="translate(265,448.6666666666667)"><rect height="20.444444444444443" width="5"><title>18 bis 24 Jahre
2</title></rect><text x="11" y="10.222222222222221" dy=".35em" text-anchor="start" style="font-size: 11px; font-family: Arial, Helvetica; pointer-events: none;">18 bis 24 Jahre</text></g><g class="node" transform="translate(265,224.2222222222222)"><rect height="173.77777777777777" width="5"><title>25 bis 34 Jahre
17</title></rect><text x="11" y="86.88888888888889" dy=".35em" text-anchor="start" style="font-size: 11px; font-family: Arial, Helvetica; pointer-events: none;">25 bis 34 Jahre</text></g><g class="node" transform="translate(265,20)"><rect height="194.2222222222222" width="5"><title>35 bis 44 Jahre
19</title></rect><text x="11" y="97.1111111111111" dy=".35em" text-anchor="start" style="font-size: 11px; font-family: Arial, Helvetica; pointer-events: none;">35 bis 44 Jahre</text></g><g class="node" transform="translate(265,408)"><rect height="30.666666666666664" width="5"><title>45 bis 54 Jahre
3</title></rect><text x="11" y="15.333333333333332" dy=".35em" text-anchor="start" style="font-size: 11px; font-family: Arial, Helvetica; pointer-events: none;">45 bis 54 Jahre</text></g><g class="node" transform="translate(265,479.11111111111114)"><rect height="20.444444444444443" width="5"><title>55 bis 64 Jahre
2</title></rect><text x="11" y="10.222222222222221" dy=".35em" text-anchor="start" style="font-size: 11px; font-family: Arial, Helvetica; pointer-events: none;">55 bis 64 Jahre</text></g><g class="node" transform="translate(265,509.5555555555556)"><rect height="20.444444444444443" width="5"><title>Keine Angabe
2</title></rect><text x="11" y="10.222222222222221" dy=".35em" text-anchor="start" style="font-size: 11px; font-family: Arial, Helvetica; pointer-events: none;">Keine Angabe</text></g><g class="node" transform="translate(0,474.1111111111111)"><rect height="40.888888888888886" width="5"><title>Keine Angabe
4</title></rect><text x="11" y="20.444444444444443" dy=".35em" text-anchor="start" style="font-size: 11px; font-family: Arial, Helvetica; pointer-events: none;">Keine Angabe</text></g><g class="node" transform="translate(0,35)"><rect height="276" width="5"><title>männlich
27</title></rect><text x="11" y="138" dy=".35em" text-anchor="start" style="font-size: 11px; font-family: Arial, Helvetica; pointer-events: none;">männlich</text></g><g class="node" transform="translate(0,321)"><rect height="143.1111111111111" width="5"><title>weiblich
14</title></rect><text x="11" y="71.55555555555554" dy=".35em" text-anchor="start" style="font-size: 11px; font-family: Arial, Helvetica; pointer-events: none;">weiblich</text></g><g class="node" transform="translate(530,484.33333333333326)"><rect height="20.444444444444443" width="5"><title>Abitur
2</title></rect><text x="-6" y="10.222222222222221" dy=".35em" text-anchor="end" style="font-size: 11px; font-family: Arial, Helvetica; pointer-events: none;">Abitur</text></g><g class="node" transform="translate(530,423.2222222222222)"><rect height="51.11111111111111" width="5"><title>Bachelor
5</title></rect><text x="-6" y="25.555555555555554" dy=".35em" text-anchor="end" style="font-size: 11px; font-family: Arial, Helvetica; pointer-events: none;">Bachelor</text></g><g class="node" transform="translate(530,514.7777777777777)"><rect height="10.222222222222221" width="5"><title>Habilitation
1</title></rect><text x="-6" y="5.111111111111111" dy=".35em" text-anchor="end" style="font-size: 11px; font-family: Arial, Helvetica; pointer-events: none;">Habilitation</text></g><g class="node" transform="translate(530,25)"><rect height="265.77777777777777" width="5"><title>Master
26</title></rect><text x="-6" y="132.88888888888889" dy=".35em" text-anchor="end" style="font-size: 11px; font-family: Arial, Helvetica; pointer-events: none;">Master</text></g><g class="node" transform="translate(530,300.77777777777777)"><rect height="112.44444444444443" width="5"><title>Promotion
11</title></rect><text x="-6" y="56.222222222222214" dy=".35em" text-anchor="end" style="font-size: 11px; font-family: Arial, Helvetica; pointer-events: none;">Promotion</text></g><g class="node" transform="translate(795,194)"><rect height="92" width="5" style="fill: rgb(102, 102, 102);"><title>Akademie
9</title></rect><text x="-6" y="46" dy=".35em" text-anchor="end" style="font-size: 11px; font-family: Arial, Helvetica; pointer-events: none;">Akademie</text></g><g class="node" transform="translate(795,438.6666666666667)"><rect height="10.222222222222221" width="5" style="fill: rgb(102, 102, 102);"><title>Bibliothek
1</title></rect><text x="-6" y="5.111111111111111" dy=".35em" text-anchor="end" style="font-size: 11px; font-family: Arial, Helvetica; pointer-events: none;">Bibliothek</text></g><g class="node" transform="translate(795,458.8888888888889)"><rect height="10.222222222222221" width="5" style="fill: rgb(102, 102, 102);"><title>freiberuflich
1</title></rect><text x="-6" y="5.111111111111111" dy=".35em" text-anchor="end" style="font-size: 11px; font-family: Arial, Helvetica; pointer-events: none;">freiberuflich</text></g><g class="node" transform="translate(795,479.11111111111114)"><rect height="10.222222222222221" width="5" style="fill: rgb(102, 102, 102);"><title>Leibniz-Gemeinschaft
1</title></rect><text x="-6" y="5.111111111111111" dy=".35em" text-anchor="end" style="font-size: 11px; font-family: Arial, Helvetica; pointer-events: none;">Leibniz-Gemeinschaft</text></g><g class="node" transform="translate(795,499.33333333333337)"><rect height="10.222222222222221" width="5" style="fill: rgb(102, 102, 102);"><title>Max-Planck-Gesellschaft
1</title></rect><text x="-6" y="5.111111111111111" dy=".35em" text-anchor="end" style="font-size: 11px; font-family: Arial, Helvetica; pointer-events: none;">Max-Planck-Gesellschaft</text></g><g class="node" transform="translate(795,398)"><rect height="30.666666666666664" width="5" style="fill: rgb(102, 102, 102);"><title>Öffentliche Verwaltung
3</title></rect><text x="-6" y="15.333333333333332" dy=".35em" text-anchor="end" style="font-size: 11px; font-family: Arial, Helvetica; pointer-events: none;">Öffentliche Verwaltung</text></g><g class="node" transform="translate(795,519.5555555555555)"><rect height="10.222222222222221" width="5" style="fill: rgb(102, 102, 102);"><title>Stiftung
1</title></rect><text x="-6" y="5.111111111111111" dy=".35em" text-anchor="end" style="font-size: 11px; font-family: Arial, Helvetica; pointer-events: none;">Stiftung</text></g><g class="node" transform="translate(795,296)"><rect height="92" width="5" style="fill: rgb(102, 102, 102);"><title>Student/Promotionsstudent
9</title></rect><text x="-6" y="46" dy=".35em" text-anchor="end" style="font-size: 11px; font-family: Arial, Helvetica; pointer-events: none;">Student/Promotionsstudent</text></g><g class="node" transform="translate(795,0)"><rect height="184" width="5" style="fill: rgb(102, 102, 102);"><title>Universität
18</title></rect><text x="-6" y="92" dy=".35em" text-anchor="end" style="font-size: 11px; font-family: Arial, Helvetica; pointer-events: none;">Universität</text></g><g class="node" transform="translate(795,539.7777777777777)"><rect height="10.222222222222221" width="5" style="fill: rgb(102, 102, 102);"><title>Wirtschaft
1</title></rect><text x="-6" y="5.111111111111111" dy=".35em" text-anchor="end" style="font-size: 11px; font-family: Arial, Helvetica; pointer-events: none;">Wirtschaft</text></g></g></g></svg>