<svg width="800" height="520" xmlns="http://www.w3.org/2000/svg" version="1.1"><g transform="translate(0,10)"><g><path class="link" d="M402.5,21.111111111111082C598.75,21.111111111111082 598.75,255 795,255" style="stroke-width: 42.2222; fill: none; stroke: rgb(180, 105, 191); stroke-opacity: 0.4;"><title>3</title></path><path class="link" d="M5,113.33333333333334C201.25,113.33333333333334 201.25,125.55555555555553 397.5,125.55555555555553" style="stroke-width: 42.2222; fill: none; stroke: rgb(191, 137, 105); stroke-opacity: 0.4;"><title>3</title></path><path class="link" d="M402.5,316.29629629629625C598.75,316.29629629629625 598.75,132.40740740740742 795,132.40740740740742" style="stroke-width: 42.2222; fill: none; stroke: rgb(180, 191, 105); stroke-opacity: 0.4;"><title>3</title></path><path class="link" d="M402.5,73.3333333333333C598.75,73.3333333333333 598.75,297.2222222222222 795,297.2222222222222" style="stroke-width: 42.2222; fill: none; stroke: rgb(105, 126, 191); stroke-opacity: 0.4;"><title>3</title></path><path class="link" d="M5,327.40740740740745C201.25,327.40740740740745 201.25,309.25925925925924 397.5,309.25925925925924" style="stroke-width: 28.1481; fill: none; stroke: rgb(191, 105, 105); stroke-opacity: 0.4;"><title>2</title></path><path class="link" d="M402.5,385.55555555555554C598.75,385.55555555555554 598.75,181.66666666666669 795,181.66666666666669" style="stroke-width: 28.1481; fill: none; stroke: rgb(116, 191, 105); stroke-opacity: 0.4;"><title>2</title></path><path class="link" d="M5,218.88888888888889C201.25,218.88888888888889 201.25,447.77777777777777 397.5,447.77777777777777" style="stroke-width: 28.1481; fill: none; stroke: rgb(191, 137, 105); stroke-opacity: 0.4;"><title>2</title></path><path class="link" d="M5,64.07407407407408C201.25,64.07407407407408 201.25,14.074074074074046 397.5,14.074074074074046" style="stroke-width: 28.1481; fill: none; stroke: rgb(191, 137, 105); stroke-opacity: 0.4;"><title>2</title></path><path class="link" d="M402.5,208.88888888888886C598.75,208.88888888888886 598.75,97.22222222222223 795,97.22222222222223" style="stroke-width: 28.1481; fill: none; stroke: rgb(116, 105, 191); stroke-opacity: 0.4;"><title>2</title></path><path class="link" d="M402.5,118.51851851851849C598.75,118.51851851851849 598.75,69.07407407407408 795,69.07407407407408" style="stroke-width: 28.1481; fill: none; stroke: rgb(148, 105, 191); stroke-opacity: 0.4;"><title>2</title></path><path class="link" d="M402.5,146.66666666666663C598.75,146.66666666666663 598.75,332.4074074074074 795,332.4074074074074" style="stroke-width: 28.1481; fill: none; stroke: rgb(148, 105, 191); stroke-opacity: 0.4;"><title>2</title></path><path class="link" d="M402.5,461.85185185185185C598.75,461.85185185185185 598.75,416.85185185185185 795,416.85185185185185" style="stroke-width: 28.1481; fill: none; stroke: rgb(105, 191, 159); stroke-opacity: 0.4;"><title>2</title></path><path class="link" d="M5,362.5925925925926C201.25,362.5925925925926 201.25,416.66666666666663 397.5,416.66666666666663" style="stroke-width: 14.0741; fill: none; stroke: rgb(191, 105, 105); stroke-opacity: 0.4;"><title>1</title></path><path class="link" d="M5,292.22222222222223C201.25,292.22222222222223 201.25,177.77777777777774 397.5,177.77777777777774" style="stroke-width: 14.0741; fill: none; stroke: rgb(191, 105, 105); stroke-opacity: 0.4;"><title>1</title></path><path class="link" d="M5,85.18518518518519C201.25,85.18518518518519 201.25,59.25925925925923 397.5,59.25925925925923" style="stroke-width: 14.0741; fill: none; stroke: rgb(191, 137, 105); stroke-opacity: 0.4;"><title>1</title></path><path class="link" d="M5,169.62962962962965C201.25,169.62962962962965 201.25,278.1481481481481 397.5,278.1481481481481" style="stroke-width: 14.0741; fill: none; stroke: rgb(191, 137, 105); stroke-opacity: 0.4;"><title>1</title></path><path class="link" d="M5,155.55555555555557C201.25,155.55555555555557 201.25,254.07407407407405 397.5,254.07407407407405" style="stroke-width: 14.0741; fill: none; stroke: rgb(191, 137, 105); stroke-opacity: 0.4;"><title>1</title></path><path class="link" d="M5,428.8888888888889C201.25,428.8888888888889 201.25,330.3703703703703 397.5,330.3703703703703" style="stroke-width: 14.0741; fill: none; stroke: rgb(191, 169, 105); stroke-opacity: 0.4;"><title>1</title></path><path class="link" d="M5,442.962962962963C201.25,442.962962962963 201.25,468.88888888888886 397.5,468.88888888888886" style="stroke-width: 14.0741; fill: none; stroke: rgb(191, 169, 105); stroke-opacity: 0.4;"><title>1</title></path><path class="link" d="M5,348.51851851851853C201.25,348.51851851851853 201.25,392.59259259259255 397.5,392.59259259259255" style="stroke-width: 14.0741; fill: none; stroke: rgb(191, 105, 105); stroke-opacity: 0.4;"><title>1</title></path><path class="link" d="M5,400.74074074074076C201.25,400.74074074074076 201.25,87.40740740740738 397.5,87.40740740740738" style="stroke-width: 14.0741; fill: none; stroke: rgb(191, 169, 105); stroke-opacity: 0.4;"><title>1</title></path><path class="link" d="M5,414.81481481481484C201.25,414.81481481481484 201.25,229.99999999999997 397.5,229.99999999999997" style="stroke-width: 14.0741; fill: none; stroke: rgb(191, 169, 105); stroke-opacity: 0.4;"><title>1</title></path><path class="link" d="M5,264.0740740740741C201.25,264.0740740740741 201.25,73.3333333333333 397.5,73.3333333333333" style="stroke-width: 14.0741; fill: none; stroke: rgb(191, 105, 105); stroke-opacity: 0.4;"><title>1</title></path><path class="link" d="M402.5,354.4444444444444C598.75,354.4444444444444 598.75,160.55555555555557 795,160.55555555555557" style="stroke-width: 14.0741; fill: none; stroke: rgb(148, 191, 105); stroke-opacity: 0.4;"><title>1</title></path><path class="link" d="M5,278.14814814814815C201.25,278.14814814814815 201.25,153.70370370370367 397.5,153.70370370370367" style="stroke-width: 14.0741; fill: none; stroke: rgb(191, 105, 105); stroke-opacity: 0.4;"><title>1</title></path><path class="link" d="M402.5,416.66666666666663C598.75,416.66666666666663 598.75,202.77777777777777 795,202.77777777777777" style="stroke-width: 14.0741; fill: none; stroke: rgb(105, 191, 126); stroke-opacity: 0.4;"><title>1</title></path><path class="link" d="M402.5,440.7407407407407C598.75,440.7407407407407 598.75,216.85185185185185 795,216.85185185185185" style="stroke-width: 14.0741; fill: none; stroke: rgb(105, 191, 159); stroke-opacity: 0.4;"><title>1</title></path><path class="link" d="M5,306.2962962962963C201.25,306.2962962962963 201.25,215.9259259259259 397.5,215.9259259259259" style="stroke-width: 14.0741; fill: none; stroke: rgb(191, 105, 105); stroke-opacity: 0.4;"><title>1</title></path><path class="link" d="M402.5,492.96296296296293C598.75,492.96296296296293 598.75,437.96296296296293 795,437.96296296296293" style="stroke-width: 14.0741; fill: none; stroke: rgb(105, 191, 191); stroke-opacity: 0.4;"><title>1</title></path><path class="link" d="M402.5,177.77777777777774C598.75,177.77777777777774 598.75,353.5185185185185 795,353.5185185185185" style="stroke-width: 14.0741; fill: none; stroke: rgb(105, 159, 191); stroke-opacity: 0.4;"><title>1</title></path><path class="link" d="M5,183.70370370370372C201.25,183.70370370370372 201.25,354.4444444444444 397.5,354.4444444444444" style="stroke-width: 14.0741; fill: none; stroke: rgb(191, 137, 105); stroke-opacity: 0.4;"><title>1</title></path><path class="link" d="M402.5,229.99999999999997C598.75,229.99999999999997 598.75,367.59259259259255 795,367.59259259259255" style="stroke-width: 14.0741; fill: none; stroke: rgb(116, 105, 191); stroke-opacity: 0.4;"><title>1</title></path><path class="link" d="M5,197.77777777777777C201.25,197.77777777777777 201.25,378.5185185185185 397.5,378.5185185185185" style="stroke-width: 14.0741; fill: none; stroke: rgb(191, 137, 105); stroke-opacity: 0.4;"><title>1</title></path><path class="link" d="M402.5,254.07407407407405C598.75,254.07407407407405 598.75,381.66666666666663 795,381.66666666666663" style="stroke-width: 14.0741; fill: none; stroke: rgb(191, 105, 137); stroke-opacity: 0.4;"><title>1</title></path><path class="link" d="M5,240C201.25,240 201.25,492.96296296296293 397.5,492.96296296296293" style="stroke-width: 14.0741; fill: none; stroke: rgb(191, 137, 105); stroke-opacity: 0.4;"><title>1</title></path><path class="link" d="M5,141.4814814814815C201.25,141.4814814814815 201.25,201.85185185185182 397.5,201.85185185185182" style="stroke-width: 14.0741; fill: none; stroke: rgb(191, 137, 105); stroke-opacity: 0.4;"><title>1</title></path><path class="link" d="M402.5,278.1481481481481C598.75,278.1481481481481 598.75,395.7407407407407 795,395.7407407407407" style="stroke-width: 14.0741; fill: none; stroke: rgb(191, 105, 169); stroke-opacity: 0.4;"><title>1</title></path><path class="link" d="M5,386.6666666666667C201.25,386.6666666666667 201.25,35.185185185185155 397.5,35.185185185185155" style="stroke-width: 14.0741; fill: none; stroke: rgb(191, 169, 105); stroke-opacity: 0.4;"><title>1</title></path></g><g><g class="node" transform="translate(0,50)"><rect height="197.03703703703704" width="5"><title>Selbststudium
14</title></rect><text x="11" y="98.51851851851852" dy=".35em" text-anchor="start" style="font-size: 11px; font-family: Arial, Helvetica; pointer-events: none;">Selbststudium</text></g><g class="node" transform="translate(0,257.03703703703707)"><rect height="112.5925925925926" width="5"><title>Studium
8</title></rect><text x="11" y="56.2962962962963" dy=".35em" text-anchor="start" style="font-size: 11px; font-family: Arial, Helvetica; pointer-events: none;">Studium</text></g><g class="node" transform="translate(0,379.6296296296297)"><rect height="70.37037037037037" width="5"><title>Studium &amp; Praxis
5</title></rect><text x="11" y="35.18518518518518" dy=".35em" text-anchor="start" style="font-size: 11px; font-family: Arial, Helvetica; pointer-events: none;">Studium &amp; Praxis</text></g><g class="node" transform="translate(397.5,-2.842170943040401e-14)"><rect height="42.22222222222222" width="5"><title>01
3</title></rect><text x="11" y="21.11111111111111" dy=".35em" text-anchor="start" style="font-size: 11px; font-family: Arial, Helvetica; pointer-events: none;">01</text></g><g class="node" transform="translate(397.5,52.22222222222219)"><rect height="42.22222222222222" width="5"><title>02
3</title></rect><text x="11" y="21.11111111111111" dy=".35em" text-anchor="start" style="font-size: 11px; font-family: Arial, Helvetica; pointer-events: none;">02</text></g><g class="node" transform="translate(397.5,104.44444444444441)"><rect height="56.2962962962963" width="5"><title>03
4</title></rect><text x="11" y="28.14814814814815" dy=".35em" text-anchor="start" style="font-size: 11px; font-family: Arial, Helvetica; pointer-events: none;">03</text></g><g class="node" transform="translate(397.5,170.7407407407407)"><rect height="14.074074074074074" width="5"><title>04
1</title></rect><text x="11" y="7.037037037037037" dy=".35em" text-anchor="start" style="font-size: 11px; font-family: Arial, Helvetica; pointer-events: none;">04</text></g><g class="node" transform="translate(397.5,194.81481481481478)"><rect height="42.22222222222222" width="5"><title>05
3</title></rect><text x="11" y="21.11111111111111" dy=".35em" text-anchor="start" style="font-size: 11px; font-family: Arial, Helvetica; pointer-events: none;">05</text></g><g class="node" transform="translate(397.5,247.037037037037)"><rect height="14.074074074074074" width="5"><title>06
1</title></rect><text x="11" y="7.037037037037037" dy=".35em" text-anchor="start" style="font-size: 11px; font-family: Arial, Helvetica; pointer-events: none;">06</text></g><g class="node" transform="translate(397.5,271.1111111111111)"><rect height="14.074074074074074" width="5"><title>07
1</title></rect><text x="11" y="7.037037037037037" dy=".35em" text-anchor="start" style="font-size: 11px; font-family: Arial, Helvetica; pointer-events: none;">07</text></g><g class="node" transform="translate(397.5,295.18518518518516)"><rect height="42.22222222222222" width="5"><title>12
3</title></rect><text x="11" y="21.11111111111111" dy=".35em" text-anchor="start" style="font-size: 11px; font-family: Arial, Helvetica; pointer-events: none;">12</text></g><g class="node" transform="translate(397.5,347.4074074074074)"><rect height="14.074074074074074" width="5"><title>13
1</title></rect><text x="11" y="7.037037037037037" dy=".35em" text-anchor="start" style="font-size: 11px; font-family: Arial, Helvetica; pointer-events: none;">13</text></g><g class="node" transform="translate(397.5,371.48148148148147)"><rect height="28.14814814814815" width="5"><title>15
2</title></rect><text x="11" y="14.074074074074074" dy=".35em" text-anchor="start" style="font-size: 11px; font-family: Arial, Helvetica; pointer-events: none;">15</text></g><g class="node" transform="translate(397.5,409.6296296296296)"><rect height="14.074074074074074" width="5"><title>18
1</title></rect><text x="11" y="7.037037037037037" dy=".35em" text-anchor="start" style="font-size: 11px; font-family: Arial, Helvetica; pointer-events: none;">18</text></g><g class="node" transform="translate(397.5,433.7037037037037)"><rect height="42.22222222222222" width="5"><title>20
3</title></rect><text x="11" y="21.11111111111111" dy=".35em" text-anchor="start" style="font-size: 11px; font-family: Arial, Helvetica; pointer-events: none;">20</text></g><g class="node" transform="translate(397.5,485.9259259259259)"><rect height="14.074074074074074" width="5"><title>28
1</title></rect><text x="11" y="7.037037037037037" dy=".35em" text-anchor="start" style="font-size: 11px; font-family: Arial, Helvetica; pointer-events: none;">28</text></g><g class="node" transform="translate(795,55)"><rect height="168.88888888888889" width="5" style="fill: rgb(102, 102, 102);"><title>Ja
12</title></rect><text x="-6" y="84.44444444444444" dy=".35em" text-anchor="end" style="font-size: 11px; font-family: Arial, Helvetica; pointer-events: none;">Ja</text></g><g class="node" transform="translate(795,233.88888888888889)"><rect height="211.11111111111111" width="5" style="fill: rgb(102, 102, 102);"><title>Nein
15</title></rect><text x="-6" y="105.55555555555556" dy=".35em" text-anchor="end" style="font-size: 11px; font-family: Arial, Helvetica; pointer-events: none;">Nein</text></g></g></g></svg>